<?xml version="1.0" encoding="utf-8"?>
<!-- Generator: Adobe Illustrator 15.0.0, SVG Export Plug-In . SVG Version: 6.00 Build 0)  -->
<!DOCTYPE svg PUBLIC "-//W3C//DTD SVG 1.1//EN" "http://www.w3.org/Graphics/SVG/1.1/DTD/svg11.dtd">
<svg version="1.1"
	 id="svg2" xmlns:svg="http://www.w3.org/2000/svg" xmlns:rdf="http://www.w3.org/1999/02/22-rdf-syntax-ns#" xmlns:cc="http://creativecommons.org/ns#" xmlns:dc="http://purl.org/dc/elements/1.1/"
	 xmlns="http://www.w3.org/2000/svg" xmlns:xlink="http://www.w3.org/1999/xlink" x="0px" y="0px" width="200px" height="250px"
	 viewBox="0 0 200 250" enable-background="new 0 0 200 250" xml:space="preserve">
<g id="Слой_x0020_1">
	<g id="_343298240">
		<path id="_274578864" fill="#D2D3D5" stroke="#000000" stroke-width="5.9056" d="M146.553,119.886
			c8.666,8.875,13.89,20.333,13.89,32.843c0,28.185-26.507,51.033-59.204,51.033c-32.698,0-59.205-22.849-59.205-51.033
			c0-13.272,5.879-25.359,15.514-34.436l0.048-30.804c0.774-23.056,19.705-41.51,42.95-41.51c23.349,0,42.348,18.623,42.959,41.825
			l0.007,29.479C144.555,118.122,145.568,118.988,146.553,119.886L146.553,119.886z M64.683,112.828
			c10.377-6.5,22.855-10.291,36.281-10.291c13.028,0,25.166,3.569,35.356,9.721l0.056-24.454
			c-0.609-19.267-16.417-34.698-35.83-34.698c-19.729,0-35.734,15.938-35.848,35.64L64.683,112.828L64.683,112.828z"/>
		<defs>
			<filter id="Adobe_OpacityMaskFilter" filterUnits="userSpaceOnUse" x="39.081" y="43.025" width="124.314" height="163.689">
				<feColorMatrix  type="matrix" values="1 0 0 0 0  0 1 0 0 0  0 0 1 0 0  0 0 0 1 0"/>
			</filter>
		</defs>
		<mask maskUnits="userSpaceOnUse" x="39.081" y="43.025" width="124.314" height="163.689" id="id0">
			
				<linearGradient id="rect14_1_" gradientUnits="userSpaceOnUse" x1="374.8789" y1="-212.3633" x2="375.5969" y2="-263.3779" gradientTransform="matrix(1 0 0 -1 -274 -113)">
				<stop  offset="0" style="stop-color:#FFFFFF"/>
				<stop  offset="1" style="stop-color:#FFFFFF;stop-opacity:0"/>
			</linearGradient>
			
				<rect id="rect14" x="39.081" y="43.025" fill="url(#rect14_1_)" filter="url(#Adobe_OpacityMaskFilter)" width="124.313" height="163.689"/>
		</mask>
		<path id="_343297616" mask="url(#id0)" fill="#666666" stroke="#000000" stroke-width="5.9056" d="M146.553,119.886
			c8.666,8.875,13.89,20.333,13.89,32.843c0,28.185-26.507,51.033-59.204,51.033c-32.698,0-59.205-22.849-59.205-51.033
			c0-13.272,5.879-25.359,15.514-34.436l0.048-30.804c0.774-23.056,19.705-41.51,42.95-41.51c23.349,0,42.348,18.623,42.959,41.825
			l0.007,29.479C144.555,118.122,145.568,118.988,146.553,119.886L146.553,119.886z M64.683,112.828
			c10.377-6.5,22.855-10.291,36.281-10.291c13.028,0,25.166,3.569,35.356,9.721l0.056-24.454
			c-0.609-19.267-16.417-34.698-35.83-34.698c-19.729,0-35.734,15.938-35.848,35.64L64.683,112.828L64.683,112.828z"/>
		<defs>
			<filter id="Adobe_OpacityMaskFilter_1_" filterUnits="userSpaceOnUse" x="39.081" y="43.025" width="124.314" height="163.689">
				<feColorMatrix  type="matrix" values="1 0 0 0 0  0 1 0 0 0  0 0 1 0 0  0 0 0 1 0"/>
			</filter>
		</defs>
		<mask maskUnits="userSpaceOnUse" x="39.081" y="43.025" width="124.314" height="163.689" id="id2">
			
				<linearGradient id="rect22_1_" gradientUnits="userSpaceOnUse" x1="366.1572" y1="-255.1035" x2="384.3177" y2="-220.6367" gradientTransform="matrix(1 0 0 -1 -274 -113)">
				<stop  offset="0" style="stop-color:#FFFFFF"/>
				<stop  offset="1" style="stop-color:#FFFFFF;stop-opacity:0"/>
			</linearGradient>
			
				<rect id="rect22" x="39.081" y="43.025" fill="url(#rect22_1_)" filter="url(#Adobe_OpacityMaskFilter_1_)" width="124.313" height="163.689"/>
		</mask>
		<path id="_343297664" mask="url(#id2)" fill="#4D4D4D" stroke="#000000" stroke-width="5.9056" d="M64.683,112.828
			c10.377-6.5,22.855-10.291,36.281-10.291c13.028,0,25.166,3.569,35.356,9.721l0.056-24.454
			c-0.609-19.267-16.417-34.698-35.83-34.698c-19.729,0-35.734,15.938-35.848,35.64L64.683,112.828L64.683,112.828z
			 M146.553,119.886c8.666,8.875,13.89,20.333,13.89,32.843c0,28.185-26.507,51.033-59.204,51.033
			c-32.698,0-59.205-22.849-59.205-51.033c0-13.272,5.879-25.359,15.514-34.436l0.048-30.804c0.774-23.056,19.705-41.51,42.95-41.51
			c23.349,0,42.348,18.623,42.959,41.825l0.007,29.479C144.555,118.122,145.568,118.988,146.553,119.886L146.553,119.886z"/>
		<path id="_343298168" d="M101.006,134.614c7.42,0,13.438,6.018,13.438,13.438c0,5.522-3.332,10.264-8.098,12.329l1.894,3.668
			l6.667,12.912H101.57H88.235l6.669-12.912l1.703-3.298c-5.263-1.823-9.039-6.821-9.039-12.699
			C87.568,140.632,93.585,134.614,101.006,134.614L101.006,134.614z"/>
	</g>
</g>
</svg>
