<?xml version="1.0" encoding="UTF-8" standalone="no"?>
<!-- Created with Inkscape (http://www.inkscape.org/) -->

<svg
   xmlns:dc="http://purl.org/dc/elements/1.1/"
   xmlns:cc="http://creativecommons.org/ns#"
   xmlns:rdf="http://www.w3.org/1999/02/22-rdf-syntax-ns#"
   xmlns:svg="http://www.w3.org/2000/svg"
   xmlns="http://www.w3.org/2000/svg"
   xmlns:xlink="http://www.w3.org/1999/xlink"
   xmlns:sodipodi="http://sodipodi.sourceforge.net/DTD/sodipodi-0.dtd"
   xmlns:inkscape="http://www.inkscape.org/namespaces/inkscape"
   width="64"
   height="64"
   id="svg2"
   version="1.1"
   inkscape:version="0.48.1 "
   sodipodi:docname="enemy.svg"
   inkscape:export-filename="C:\Users\Prem\embed-studios\Candy Cat Graphics\64x64 PNG\enemy.png"
   inkscape:export-xdpi="90"
   inkscape:export-ydpi="90">
  <defs
     id="defs4">
    <linearGradient
       id="linearGradient3755">
      <stop
         style="stop-color:#ffffff;stop-opacity:1;"
         offset="0"
         id="stop3757" />
      <stop
         id="stop3763"
         offset="0.75"
         style="stop-color:#bfbfbf;stop-opacity:0.85098039;" />
      <stop
         style="stop-color:#808080;stop-opacity:0.3764706;"
         offset="0.9513889"
         id="stop3765" />
      <stop
         style="stop-color:#808080;stop-opacity:0;"
         offset="1"
         id="stop3759" />
    </linearGradient>
    <radialGradient
       inkscape:collect="always"
       xlink:href="#linearGradient3755"
       id="radialGradient3761"
       cx="35.797279"
       cy="33.758556"
       fx="35.797279"
       fy="33.758556"
       r="15.089153"
       gradientTransform="matrix(1,0,0,0.93305444,0,2.2599856)"
       gradientUnits="userSpaceOnUse" />
  </defs>
  <sodipodi:namedview
     id="base"
     pagecolor="#ffffff"
     bordercolor="#666666"
     borderopacity="1.0"
     inkscape:pageopacity="0.0"
     inkscape:pageshadow="2"
     inkscape:zoom="7.9195959"
     inkscape:cx="14.743175"
     inkscape:cy="32.203949"
     inkscape:document-units="px"
     inkscape:current-layer="layer1"
     showgrid="false"
     inkscape:snap-page="true"
     inkscape:snap-center="true"
     inkscape:snap-object-midpoints="true"
     inkscape:snap-midpoints="true"
     inkscape:snap-smooth-nodes="true"
     inkscape:object-nodes="true"
     inkscape:object-paths="true"
     inkscape:snap-intersection-paths="true"
     inkscape:snap-bbox="true"
     inkscape:bbox-paths="true"
     inkscape:bbox-nodes="true"
     inkscape:snap-bbox-midpoints="true"
     inkscape:snap-bbox-edge-midpoints="true"
     showguides="true"
     inkscape:guide-bbox="true"
     inkscape:window-width="1366"
     inkscape:window-height="716"
     inkscape:window-x="-8"
     inkscape:window-y="-8"
     inkscape:window-maximized="1"
     inkscape:snap-global="false" />
  <metadata
     id="metadata7">
    <rdf:RDF>
      <cc:Work
         rdf:about="">
        <dc:format>image/svg+xml</dc:format>
        <dc:type
           rdf:resource="http://purl.org/dc/dcmitype/StillImage" />
        <dc:title></dc:title>
      </cc:Work>
    </rdf:RDF>
  </metadata>
  <g
     inkscape:label="Layer 1"
     inkscape:groupmode="layer"
     id="layer1"
     transform="translate(0,-988.36218)">
    <path
       sodipodi:type="arc"
       style="fill:url(#radialGradient3761);fill-opacity:1;stroke:none"
       id="path2985"
       sodipodi:cx="35.797279"
       sodipodi:cy="33.758556"
       sodipodi:rx="15.089153"
       sodipodi:ry="14.079001"
       d="m 50.886433,33.758556 a 15.089153,14.079001 0 1 1 -30.178307,0 15.089153,14.079001 0 1 1 30.178307,0 z"
       transform="matrix(1.6568193,0,0,1.7756941,-27.309623,960.41731)" />
    <path
       style="fill:none;stroke:#d40000;stroke-width:3;stroke-linecap:butt;stroke-linejoin:miter;stroke-miterlimit:4;stroke-opacity:1;stroke-dasharray:none"
       d="m 16.036172,21.321055 10.85914,6.060916"
       id="path3767"
       inkscape:connector-curvature="0"
       transform="translate(0,988.36218)"
       sodipodi:nodetypes="cc" />
    <path
       style="fill:none;stroke:#d40000;stroke-width:3;stroke-linecap:butt;stroke-linejoin:miter;stroke-miterlimit:4;stroke-opacity:1;stroke-dasharray:none"
       d="m 34.976532,30.791236 13.51079,-7.071069"
       id="path3769"
       inkscape:connector-curvature="0"
       transform="translate(0,988.36218)"
       sodipodi:nodetypes="cc" />
    <path
       sodipodi:type="arc"
       style="fill:#a50000;fill-opacity:1;stroke:#363600;stroke-width:2;stroke-linecap:butt;stroke-linejoin:miter;stroke-miterlimit:4;stroke-opacity:1;stroke-dasharray:none"
       id="path3771"
       sodipodi:cx="20.581858"
       sodipodi:cy="29.654814"
       sodipodi:rx="3.4092648"
       sodipodi:ry="3.4092648"
       d="m 23.991122,29.654814 a 3.4092648,3.4092648 0 1 1 -6.818529,0 3.4092648,3.4092648 0 1 1 6.818529,0 z"
       transform="translate(0.88388389,987.58934)" />
    <path
       transform="translate(21.150069,990.9986)"
       d="m 23.991122,29.654814 a 3.4092648,3.4092648 0 1 1 -6.818529,0 3.4092648,3.4092648 0 1 1 6.818529,0 z"
       sodipodi:ry="3.4092648"
       sodipodi:rx="3.4092648"
       sodipodi:cy="29.654814"
       sodipodi:cx="20.581858"
       id="path3773"
       style="fill:#a50000;fill-opacity:1;stroke:#363600;stroke-width:2;stroke-linecap:butt;stroke-linejoin:miter;stroke-miterlimit:4;stroke-opacity:1;stroke-dasharray:none"
       sodipodi:type="arc" />
    <path
       sodipodi:type="arc"
       style="fill:#ff0000;fill-opacity:1;stroke:none"
       id="path3775"
       sodipodi:cx="-19.129765"
       sodipodi:cy="35.400055"
       sodipodi:rx="5.4927044"
       sodipodi:ry="5.4927044"
       d="m -13.63706,35.400055 a 5.4927044,5.4927044 0 1 1 -10.985409,0 5.4927044,5.4927044 0 1 1 10.985409,0 z"
       transform="matrix(0.26436781,0,0,0.26436781,27.217514,1007.3325)" />
    <path
       transform="matrix(0.26436781,0,0,0.26436781,46.410412,1010.363)"
       d="m -13.63706,35.400055 a 5.4927044,5.4927044 0 1 1 -10.985409,0 5.4927044,5.4927044 0 1 1 10.985409,0 z"
       sodipodi:ry="5.4927044"
       sodipodi:rx="5.4927044"
       sodipodi:cy="35.400055"
       sodipodi:cx="-19.129765"
       id="path3777"
       style="fill:#ff0000;fill-opacity:1;stroke:none"
       sodipodi:type="arc" />
    <path
       style="fill:none;stroke:#000000;stroke-width:1px;stroke-linecap:butt;stroke-linejoin:miter;stroke-opacity:1"
       d="m 13.131983,38.998724 c 0.130625,0.518205 0.364729,2.770881 0.883884,3.030458 0.845873,0.422937 1.394698,-1.498014 1.894036,0 0.03478,0.104336 0.519838,2.478371 0.757614,2.399112 0.615436,-0.205145 1.736277,-5.871253 2.77792,-2.399112 0.253635,0.845452 1.899425,7.318217 2.525381,6.692261 1.677526,-1.677527 2.141315,-4.240265 3.030458,-6.439723 0.03237,-0.08006 0.289693,-1.225535 0.378807,-1.136421 0.899673,0.899673 0.898629,2.896505 1.388959,4.04061 0.253625,0.59179 0.175205,2.504844 0.378808,1.894036 1.069477,-3.208432 0.567676,-5.268599 2.272843,-0.883884 0.338577,0.870628 0.653,3.178382 1.262691,3.788072 1.373643,-2.463645 1.789623,-0.421105 2.272843,-3.409264 0.256389,-0.512779 0.881546,-0.879209 1.136421,-1.38896 0.155586,-0.311171 1.833908,2.000262 2.651651,2.272843 1.380463,0.460155 1.917653,-2.170191 2.65165,-2.904189 0.571116,-0.571115 1.401111,1.887961 1.641498,1.767767 0.434276,-0.217137 1.163628,-1.416166 1.38896,-1.641497 0.60328,-0.603281 2.03035,0.931951 2.65165,0 1.101169,-1.651753 1.810911,-3.802454 3.661803,-4.419418"
       id="path3785"
       inkscape:connector-curvature="0"
       transform="translate(0,988.36218)"
       sodipodi:nodetypes="cscssscssssccssssssc" />
  </g>
</svg>
