<?xml version="1.0" encoding="UTF-8" standalone="no"?>
<!-- Generator: Adobe Illustrator 15.0.0, SVG Export Plug-In . SVG Version: 6.00 Build 0)  -->

<svg
   xmlns:dc="http://purl.org/dc/elements/1.1/"
   xmlns:cc="http://creativecommons.org/ns#"
   xmlns:rdf="http://www.w3.org/1999/02/22-rdf-syntax-ns#"
   xmlns:svg="http://www.w3.org/2000/svg"
   xmlns="http://www.w3.org/2000/svg"
   xmlns:xlink="http://www.w3.org/1999/xlink"
   xmlns:sodipodi="http://sodipodi.sourceforge.net/DTD/sodipodi-0.dtd"
   xmlns:inkscape="http://www.inkscape.org/namespaces/inkscape"
   version="1.1"
   id="svg3309"
   x="0px"
   y="0px"
   width="1280px"
   height="720px"
   viewBox="0 0 1280 720"
   enable-background="new 0 0 1280 720"
   xml:space="preserve"
   inkscape:version="0.48.2 r9819"
   sodipodi:docname="background.svg"><metadata
   id="metadata208"><rdf:RDF><cc:Work
       rdf:about=""><dc:format>image/svg+xml</dc:format><dc:type
         rdf:resource="http://purl.org/dc/dcmitype/StillImage" /></cc:Work></rdf:RDF></metadata><defs
   id="defs206"><linearGradient
     gradientTransform="matrix(1,0,0,-1,-205.999,425)"
     y2="460.5672"
     x2="861.2306"
     y1="-330.3276"
     x1="830.7646"
     gradientUnits="userSpaceOnUse"
     id="rect3451_1_">
		<stop
   id="stop5"
   style="stop-color:#35e8dc;stop-opacity:1;"
   offset="0" />
		
		<stop
   id="stop9"
   style="stop-color:#4e9bea;stop-opacity:1;"
   offset="1" />
	</linearGradient><radialGradient
     gradientUnits="userSpaceOnUse"
     gradientTransform="matrix(1,0,0,-1,-205.999,425)"
     r="1140.1143"
     cy="128.1309"
     cx="845.8477"
     id="path3453_1_">
		<stop
   id="stop13"
   style="stop-color:#fdd013;stop-opacity:1;"
   offset="0" />
		<stop
   id="stop15"
   style="stop-color:#fdd013;stop-opacity:1;"
   offset="0.25" />
		<stop
   id="stop17"
   style="stop-color:#ffae91;stop-opacity:1;"
   offset="0.60000002" />
		<stop
   id="stop19"
   style="stop-color:#ff652c;stop-opacity:1;"
   offset="1" />
	</radialGradient><linearGradient
     gradientTransform="matrix(1,0,0,-1,-205.999,425)"
     y2="-218.9464"
     x2="320.6841"
     y1="-295.0815"
     x1="327.1812"
     gradientUnits="userSpaceOnUse"
     id="path3455_1_">
		<stop
   id="stop23"
   style="stop-color:#435809"
   offset="0" />
		<stop
   id="stop25"
   style="stop-color:#85A11F"
   offset="0.702" />
		<stop
   id="stop27"
   style="stop-color:#A7C62A"
   offset="1" />
	</linearGradient><linearGradient
     gradientTransform="matrix(1,0,0,-1,-205.999,425)"
     y2="-180.8365"
     x2="1249.2831"
     y1="-297.3335"
     x1="1256.873"
     gradientUnits="userSpaceOnUse"
     id="path3457_1_">
		<stop
   id="stop31"
   style="stop-color:#435809"
   offset="0" />
		<stop
   id="stop33"
   style="stop-color:#5B7211"
   offset="0.4118" />
		<stop
   id="stop35"
   style="stop-color:#A7C62A"
   offset="1" />
	</linearGradient><linearGradient
     gradientTransform="matrix(1,0,0,-1,-205.999,425)"
     y2="-149.3703"
     x2="774.3842"
     y1="-323.7139"
     x1="786.1963"
     gradientUnits="userSpaceOnUse"
     id="path3459_1_">
		<stop
   id="stop39"
   style="stop-color:#435809"
   offset="0" />
		<stop
   id="stop41"
   style="stop-color:#5B7211"
   offset="0.32352221" />
		<stop
   id="stop43"
   style="stop-color:#85A11F"
   offset="0.55023748" />
		<stop
   id="stop45"
   style="stop-color:#88A420"
   offset="0.68626666" />
		<stop
   id="stop47"
   style="stop-color:#A7C62A"
   offset="1" />
	</linearGradient><linearGradient
     gradientTransform="matrix(1,0,0,-1,-205.999,425)"
     y2="-114.7256"
     x2="508.7441"
     y1="-114.7256"
     x1="317.7534"
     gradientUnits="userSpaceOnUse"
     id="path3463_1_">
		<stop
   id="stop52"
   style="stop-color:#064844"
   offset="0" />
		<stop
   id="stop54"
   style="stop-color:#119D94"
   offset="1" />
	</linearGradient><linearGradient
     gradientTransform="matrix(1,0,0,-1,-205.999,425)"
     y2="-97.1117"
     x2="683.4097"
     y1="-176.0728"
     x1="798.5986"
     gradientUnits="userSpaceOnUse"
     id="path3465_1_">
		<stop
   id="stop58"
   style="stop-color:#038D80"
   offset="0" />
		<stop
   id="stop60"
   style="stop-color:#23B0A7"
   offset="1" />
	</linearGradient><radialGradient
     gradientUnits="userSpaceOnUse"
     gradientTransform="matrix(1,0,0,-1,-205.999,425)"
     r="100.438"
     cy="-114.459"
     cx="1255.4502"
     id="path3467_1_">
		<stop
   id="stop64"
   style="stop-color:#25AEA6"
   offset="0" />
		<stop
   id="stop66"
   style="stop-color:#22A59D"
   offset="0.451" />
		<stop
   id="stop68"
   style="stop-color:#18867F"
   offset="0.7686" />
		<stop
   id="stop70"
   style="stop-color:#064844"
   offset="1" />
	</radialGradient><defs
     id="defs73">
		<filter
   height="397.025"
   width="1017.292"
   y="1.32"
   x="128.669"
   filterUnits="userSpaceOnUse"
   id="Adobe_OpacityMaskFilter">
			<feColorMatrix
   id="feColorMatrix76"
   values="1 0 0 0 0  0 1 0 0 0  0 0 1 0 0  0 0 0 1 0"
   type="matrix" />
		</filter>
	</defs><mask
     id="id0"
     height="397.025"
     width="1017.292"
     y="1.32"
     x="128.669"
     maskUnits="userSpaceOnUse">
		
			<radialGradient
   gradientUnits="userSpaceOnUse"
   gradientTransform="matrix(1 0 0 -1 -205.999 425)"
   r="561.9179"
   cy="610.4199"
   cx="-571.6484"
   id="rect3323_1_">
			<stop
   id="stop80"
   style="stop-color:#FFFFFF"
   offset="0" />
			<stop
   id="stop82"
   style="stop-color:#FFFFFF;stop-opacity:0.502"
   offset="0.702" />
			<stop
   id="stop84"
   style="stop-color:#FFFFFF;stop-opacity:0"
   offset="1" />
		</radialGradient>
		
			<rect
   height="397.084"
   width="1017.35"
   filter="url(#Adobe_OpacityMaskFilter)"
   fill="url(#rect3323_1_)"
   y="1.291"
   x="128.642"
   id="rect3323" />
	</mask><defs
     id="defs88">
		<filter
   height="50.203"
   width="190.992"
   y="603.164"
   x="111.754"
   filterUnits="userSpaceOnUse"
   id="Adobe_OpacityMaskFilter_1_">
			<feColorMatrix
   id="feColorMatrix91"
   values="1 0 0 0 0  0 1 0 0 0  0 0 1 0 0  0 0 0 1 0"
   type="matrix" />
		</filter>
	</defs><mask
     id="id2"
     height="50.203"
     width="190.992"
     y="603.164"
     x="111.754"
     maskUnits="userSpaceOnUse">
		
			<linearGradient
   gradientTransform="matrix(1 0 0 -1 -205.999 425)"
   y2="994.9335"
   x2="1524.2992"
   y1="-282.2075"
   x1="1733.6494"
   gradientUnits="userSpaceOnUse"
   id="rect3331_1_">
			<stop
   id="stop95"
   style="stop-color:#FFFFFF"
   offset="0" />
			<stop
   id="stop97"
   style="stop-color:#FFFFFF;stop-opacity:0"
   offset="1" />
		</linearGradient>
		
			<rect
   height="1169.521"
   width="2622.5"
   filter="url(#Adobe_OpacityMaskFilter_1_)"
   fill="url(#rect3331_1_)"
   y="-516.121"
   x="111.725"
   id="rect3331" />
	</mask><linearGradient
     gradientTransform="matrix(1,0,0,-1,-205.999,425)"
     y2="-203.2656"
     x2="1733.8701"
     y1="-203.2656"
     x1="1524.0801"
     gradientUnits="userSpaceOnUse"
     id="path3471_1_">
		<stop
   id="stop101"
   style="stop-color:#064844"
   offset="0" />
		<stop
   id="stop103"
   style="stop-color:#119D94"
   offset="1" />
	</linearGradient><defs
     id="defs106">
		<filter
   height="112.021"
   width="947.83"
   y="607.481"
   x="113.611"
   filterUnits="userSpaceOnUse"
   id="Adobe_OpacityMaskFilter_2_">
			<feColorMatrix
   id="feColorMatrix109"
   values="1 0 0 0 0  0 1 0 0 0  0 0 1 0 0  0 0 0 1 0"
   type="matrix" />
		</filter>
	</defs><mask
     id="id4"
     height="112.021"
     width="947.83"
     y="607.481"
     x="113.611"
     maskUnits="userSpaceOnUse">
		
			<linearGradient
   gradientTransform="matrix(1 0 0 -1 -205.999 425)"
   y2="-282.8048"
   x2="792.4764"
   y1="-194.1821"
   x1="794.5645"
   gradientUnits="userSpaceOnUse"
   id="rect3339_1_">
			<stop
   id="stop113"
   style="stop-color:#FFFFFF"
   offset="0" />
			<stop
   id="stop115"
   style="stop-color:#FFFFFF;stop-opacity:0"
   offset="1" />
		</linearGradient>
		
			<rect
   height="114.382"
   width="950.192"
   filter="url(#Adobe_OpacityMaskFilter_2_)"
   fill="url(#rect3339_1_)"
   y="606.302"
   x="112.426"
   id="rect3339" />
	</mask><defs
     id="defs119">
		<filter
   height="75.077"
   width="235.868"
   y="644.124"
   x="0"
   filterUnits="userSpaceOnUse"
   id="Adobe_OpacityMaskFilter_3_">
			<feColorMatrix
   id="feColorMatrix122"
   values="1 0 0 0 0  0 1 0 0 0  0 0 1 0 0  0 0 0 1 0"
   type="matrix" />
		</filter>
	</defs><mask
     id="id6"
     height="75.077"
     width="235.868"
     y="644.124"
     x="0"
     maskUnits="userSpaceOnUse">
		
			<linearGradient
   gradientTransform="matrix(1 0 0 -1 -205.999 425)"
   y2="-276.1821"
   x2="323.9331"
   y1="-237.1421"
   x1="323.9331"
   gradientUnits="userSpaceOnUse"
   id="rect3347_1_">
			<stop
   id="stop126"
   style="stop-color:#FFFFFF"
   offset="0" />
			<stop
   id="stop128"
   style="stop-color:#FFFFFF;stop-opacity:0"
   offset="1" />
		</linearGradient>
		
			<rect
   height="77.438"
   width="238.23"
   filter="url(#Adobe_OpacityMaskFilter_3_)"
   fill="url(#rect3347_1_)"
   y="642.943"
   x="-1.182"
   id="rect3347" />
	</mask><defs
     id="defs132">
		<filter
   height="106.017"
   width="470.288"
   y="613.535"
   x="809.713"
   filterUnits="userSpaceOnUse"
   id="Adobe_OpacityMaskFilter_4_">
			<feColorMatrix
   id="feColorMatrix135"
   values="1 0 0 0 0  0 1 0 0 0  0 0 1 0 0  0 0 0 1 0"
   type="matrix" />
		</filter>
	</defs><mask
     id="id8"
     height="106.017"
     width="470.288"
     y="613.535"
     x="809.713"
     maskUnits="userSpaceOnUse">
		
			<linearGradient
   gradientTransform="matrix(1 0 0 -1 -205.999 425)"
   y2="-327.1336"
   x2="1295.4507"
   y1="-155.9536"
   x1="1206.2607"
   gradientUnits="userSpaceOnUse"
   id="rect3355_1_">
			<stop
   id="stop139"
   style="stop-color:#FFFFFF"
   offset="0" />
			<stop
   id="stop141"
   style="stop-color:#FFFFFF;stop-opacity:0"
   offset="1" />
		</linearGradient>
		
			<rect
   height="108.378"
   width="472.65"
   filter="url(#Adobe_OpacityMaskFilter_4_)"
   fill="url(#rect3355_1_)"
   y="612.355"
   x="808.532"
   id="rect3355" />
	</mask><defs
     id="defs146">
		<filter
   height="22.411"
   width="148.335"
   y="593.806"
   x="1019.791"
   filterUnits="userSpaceOnUse"
   id="Adobe_OpacityMaskFilter_5_">
			<feColorMatrix
   id="feColorMatrix149"
   values="1 0 0 0 0  0 1 0 0 0  0 0 1 0 0  0 0 0 1 0"
   type="matrix" />
		</filter>
	</defs><mask
     id="id10"
     height="22.411"
     width="148.335"
     y="593.806"
     x="1019.791"
     maskUnits="userSpaceOnUse">
		
			<linearGradient
   gradientTransform="matrix(1 0 0 -1 -205.999 425)"
   y2="-158.7258"
   x2="1293.3134"
   y1="-201.2935"
   x1="1306.6035"
   gradientUnits="userSpaceOnUse"
   id="rect3363_1_">
			<stop
   id="stop153"
   style="stop-color:#FFFFFF"
   offset="0" />
			<stop
   id="stop155"
   style="stop-color:#FFFFFF;stop-opacity:0"
   offset="1" />
		</linearGradient>
		
			<rect
   height="24.774"
   width="150.696"
   filter="url(#Adobe_OpacityMaskFilter_5_)"
   fill="url(#rect3363_1_)"
   y="592.624"
   x="1018.611"
   id="rect3363" />
	</mask><radialGradient
     gradientUnits="userSpaceOnUse"
     gradientTransform="matrix(1,0,0,-1,-205.999,425)"
     r="56.367"
     cy="-157.6001"
     cx="1212.4404"
     id="path3481_1_">
		<stop
   id="stop159"
   style="stop-color:#25AEA6"
   offset="0" />
		<stop
   id="stop161"
   style="stop-color:#157B75"
   offset="0.0118" />
		<stop
   id="stop163"
   style="stop-color:#064844"
   offset="1" />
	</radialGradient><defs
     id="defs169">
		<filter
   height="75.077"
   width="206.149"
   y="644.924"
   x="29.718"
   filterUnits="userSpaceOnUse"
   id="Adobe_OpacityMaskFilter_6_">
			<feColorMatrix
   id="feColorMatrix172"
   values="1 0 0 0 0  0 1 0 0 0  0 0 1 0 0  0 0 0 1 0"
   type="matrix" />
		</filter>
	</defs><mask
     id="id12"
     height="75.077"
     width="206.149"
     y="644.924"
     x="29.718"
     maskUnits="userSpaceOnUse">
		
			<linearGradient
   gradientTransform="matrix(1 0 0 -1 -205.999 425)"
   y2="-238.9665"
   x2="321.1526"
   y1="-275.9585"
   x1="356.4316"
   gradientUnits="userSpaceOnUse"
   id="rect3371_1_">
			<stop
   id="stop176"
   style="stop-color:#FFFFFF"
   offset="0" />
			<stop
   id="stop178"
   style="stop-color:#FFFFFF;stop-opacity:0"
   offset="1" />
		</linearGradient>
		
			<rect
   height="77.438"
   width="208.511"
   filter="url(#Adobe_OpacityMaskFilter_6_)"
   fill="url(#rect3371_1_)"
   y="643.743"
   x="28.538"
   id="rect3371" />
	</mask><defs
     id="defs182">
		<filter
   height="81.377"
   width="470.288"
   y="638.175"
   x="809.713"
   filterUnits="userSpaceOnUse"
   id="Adobe_OpacityMaskFilter_7_">
			<feColorMatrix
   id="feColorMatrix185"
   values="1 0 0 0 0  0 1 0 0 0  0 0 1 0 0  0 0 0 1 0"
   type="matrix" />
		</filter>
	</defs><mask
     id="id14"
     height="81.377"
     width="470.288"
     y="638.175"
     x="809.713"
     maskUnits="userSpaceOnUse">
		
			<linearGradient
   gradientTransform="matrix(1 0 0 -1 -205.999 425)"
   y2="-333.4457"
   x2="1292.3203"
   y1="-174.2803"
   x1="1209.3906"
   gradientUnits="userSpaceOnUse"
   id="rect3379_1_">
			<stop
   id="stop189"
   style="stop-color:#FFFFFF"
   offset="0" />
			<stop
   id="stop191"
   style="stop-color:#FFFFFF;stop-opacity:0"
   offset="1" />
		</linearGradient>
		
			<rect
   height="83.739"
   width="472.65"
   filter="url(#Adobe_OpacityMaskFilter_7_)"
   fill="url(#rect3379_1_)"
   y="636.994"
   x="808.532"
   id="rect3379" />
	</mask><radialGradient
     inkscape:collect="always"
     xlink:href="#path3467_1_"
     id="radialGradient3313"
     gradientUnits="userSpaceOnUse"
     gradientTransform="matrix(1,0,0,-1,-205.999,425)"
     cx="1255.4502"
     cy="-114.459"
     r="100.438" /><linearGradient
     inkscape:collect="always"
     xlink:href="#path3465_1_"
     id="linearGradient3316"
     gradientUnits="userSpaceOnUse"
     gradientTransform="matrix(1,0,0,-1,-205.999,425)"
     x1="798.5986"
     y1="-176.0728"
     x2="683.4097"
     y2="-97.1117" /><linearGradient
     inkscape:collect="always"
     xlink:href="#path3463_1_"
     id="linearGradient3319"
     gradientUnits="userSpaceOnUse"
     gradientTransform="matrix(1,0,0,-1,-205.999,425)"
     x1="317.7534"
     y1="-114.7256"
     x2="508.7441"
     y2="-114.7256" /><linearGradient
     inkscape:collect="always"
     xlink:href="#path3459_1_"
     id="linearGradient3323"
     gradientUnits="userSpaceOnUse"
     gradientTransform="matrix(1,0,0,-1,-205.999,425)"
     x1="786.1963"
     y1="-323.7139"
     x2="774.3842"
     y2="-149.3703" /><linearGradient
     inkscape:collect="always"
     xlink:href="#path3457_1_"
     id="linearGradient3326"
     gradientUnits="userSpaceOnUse"
     gradientTransform="matrix(1,0,0,-1,-205.999,425)"
     x1="1256.873"
     y1="-297.3335"
     x2="1249.2831"
     y2="-180.8365" /><linearGradient
     inkscape:collect="always"
     xlink:href="#path3455_1_"
     id="linearGradient3329"
     gradientUnits="userSpaceOnUse"
     gradientTransform="matrix(1,0,0,-1,-205.999,425)"
     x1="327.1812"
     y1="-295.0815"
     x2="320.6841"
     y2="-218.9464" /><radialGradient
     inkscape:collect="always"
     xlink:href="#path3453_1_"
     id="radialGradient3332"
     gradientUnits="userSpaceOnUse"
     gradientTransform="matrix(1,0,0,-1,-205.999,425)"
     cx="845.8477"
     cy="128.1309"
     r="1140.1143" /><linearGradient
     inkscape:collect="always"
     xlink:href="#rect3451_1_"
     id="linearGradient3339"
     gradientUnits="userSpaceOnUse"
     gradientTransform="matrix(1,0,0,-1,-204.8179,424.2669)"
     x1="830.7646"
     y1="-330.3276"
     x2="861.2306"
     y2="460.5672" /><radialGradient
     inkscape:collect="always"
     xlink:href="#path3453_1_"
     id="radialGradient4226"
     gradientUnits="userSpaceOnUse"
     gradientTransform="matrix(0.53238095,0,0,-0.45363802,185.91185,215.27803)"
     cx="838.09857"
     cy="383.85172"
     r="1140.1143"
     fx="838.09857"
     fy="383.85172" /><linearGradient
     inkscape:collect="always"
     xlink:href="#path3455_1_"
     id="linearGradient4230"
     gradientUnits="userSpaceOnUse"
     gradientTransform="matrix(1.0418156,0,0,-1,-214.61298,425.448)"
     x1="327.1812"
     y1="-295.0815"
     x2="320.6841"
     y2="-218.9464" /><linearGradient
     inkscape:collect="always"
     xlink:href="#path3457_1_"
     id="linearGradient4232"
     gradientUnits="userSpaceOnUse"
     gradientTransform="matrix(1.0269089,0,0,-1,-243.04384,425.448)"
     x1="1256.873"
     y1="-297.3335"
     x2="1249.2831"
     y2="-180.8365" /><radialGradient
     inkscape:collect="always"
     xlink:href="#path3467_1_"
     id="radialGradient4234"
     gradientUnits="userSpaceOnUse"
     gradientTransform="matrix(1,0,0,-1,-205.999,430.47945)"
     cx="1255.4502"
     cy="-114.459"
     r="100.438" /><linearGradient
     inkscape:collect="always"
     xlink:href="#path3463_1_"
     id="linearGradient4236"
     gradientUnits="userSpaceOnUse"
     gradientTransform="matrix(1,0,0,-1,-205.999,429.38356)"
     x1="317.7534"
     y1="-114.7256"
     x2="508.7441"
     y2="-114.7256" /><linearGradient
     inkscape:collect="always"
     xlink:href="#path3465_1_"
     id="linearGradient4244"
     gradientUnits="userSpaceOnUse"
     gradientTransform="matrix(1,0,0,-1,-205.999,425)"
     x1="798.5986"
     y1="-176.0728"
     x2="683.4097"
     y2="-97.1117" /><radialGradient
     inkscape:collect="always"
     xlink:href="#path3459_1_"
     id="radialGradient4246"
     cx="568.92255"
     cy="1185.4525"
     fx="568.92255"
     fy="1185.4525"
     r="483.21851"
     gradientTransform="matrix(1.5699058,-0.0274041,0.0042801,0.24519489,-329.30612,449.35681)"
     gradientUnits="userSpaceOnUse" /></defs><sodipodi:namedview
   pagecolor="#ffffff"
   bordercolor="#666666"
   borderopacity="1"
   objecttolerance="10"
   gridtolerance="10"
   guidetolerance="10"
   inkscape:pageopacity="0"
   inkscape:pageshadow="2"
   inkscape:window-width="1366"
   inkscape:window-height="716"
   id="namedview204"
   showgrid="false"
   inkscape:zoom="0.64523494"
   inkscape:cx="645.34839"
   inkscape:cy="343.83124"
   inkscape:window-x="-8"
   inkscape:window-y="-8"
   inkscape:window-maximized="1"
   inkscape:current-layer="layer2" />

<g
   inkscape:groupmode="layer"
   id="layer1"
   inkscape:label="Background"
   style="display:inline"><rect
     style="fill:url(#linearGradient3339);stroke:none;stroke-width:2.36220002000000000"
     height="719.34399"
     width="1280"
     y="-0.52509415"
     x="1.1811"
     id="rect3451" /></g><g
   inkscape:groupmode="layer"
   id="layer3"
   inkscape:label="Sun and Rays"
   style="display:inline"><path
     inkscape:connector-curvature="0"
     style="fill:url(#radialGradient4226)"
     d="M 1279.701,130.559 V 239.065 C 1264.195,233.757 775.863,54.59 773.808,52.399 c -5.244,-5.588 21.919,-19.904 24.456,-21.013 1.812,-0.793 441.597,90.505 481.437,99.173 l 0,0 z M 1142,341 l -93.677,21.208 c -11.819,-11.555 -305.104,-241.81 -306.052,-244.687 -2.417,-7.339 28.119,-8.463 30.877,-8.362 1.968,0.07 336.414,206.648 368.852,231.841 l 0,0 z m -957.071,127.03 86.073,136.452 c 11.819,-11.557 284.188,-474.087 285.136,-476.964 2.418,-7.339 -28.118,-8.463 -30.876,-8.362 -1.968,0.072 -307.896,323.68 -340.333,348.874 l 0,0 z M -0.004,125.406 V 233.913 C 15.5,230.354 503.832,106.304 505.888,104.346 511.131,99.348 483.968,81.968 481.432,80.573 479.62,79.576 39.834,121.233 -0.004,125.406 l 0,0 z M 406.785,1.32 c 57.924,21.451 98.514,36.638 99.103,37.267 5.243,5.587 -21.92,19.904 -24.456,21.013 C 480.37,60.063 329.053,28.934 195.851,1.32 h 210.934 l 0,0 z"
     id="path3453" /><path
     style="fill:#fdd013"
     inkscape:connector-curvature="0"
     d="m 448.544,0 h 377.547 c 0.997,8.068 1.512,16.29 1.512,24.634 0,107.491 -85.192,194.631 -190.285,194.631 -105.091,0 -190.285,-87.139 -190.285,-194.631 C 447.032,16.29 447.548,8.068 448.544,0 l 0,0 z"
     id="path3461" /><path
     style="fill:#ffe10f"
     inkscape:connector-curvature="0"
     d="m 482.508,1.786 h 309.619 c 0.817,6.617 1.24,13.358 1.24,20.202 0,88.152 -69.866,159.613 -156.05,159.613 -86.185,0 -156.05,-71.462 -156.05,-159.613 10e-4,-6.844 0.422,-13.586 1.241,-20.202 l 0,0 z"
     id="path3497" /><path
     style="fill:#fee916"
     inkscape:connector-curvature="0"
     d="m 517.17,1.786 h 235.488 c 0.621,5.033 0.942,10.16 0.942,15.365 0,67.046 -53.138,121.397 -118.688,121.397 -65.55,0 -118.686,-54.351 -118.686,-121.397 0,-5.205 0.321,-10.333 0.944,-15.365 l 0,0 z"
     id="path3499" /><path
     style="fill:#ffed42"
     inkscape:connector-curvature="0"
     d="m 552.976,1.786 h 168.199 c 0.444,3.594 0.675,7.257 0.675,10.975 0,47.888 -37.955,86.708 -84.774,86.708 -46.818,0 -84.772,-38.821 -84.772,-86.708 -10e-4,-3.719 0.228,-7.381 0.672,-10.975 l 0,0 z"
     id="path3501" /></g><g
   inkscape:groupmode="layer"
   id="layer2"
   inkscape:label="Hills and Clouds"
   style="display:inline"><g
     id="g4240"
     transform="translate(0,4.7671233)"><path
       id="path3465"
       d="m 477.28,608.529 c 10.436,-29.861 20.947,-53.53 29.98,-71.338 11.452,-22.572 20.526,-35.729 26.36,-43.352 5.833,-7.624 8.427,-9.717 10.586,-10.39 2.16,-0.673 3.89,0.075 7.202,3.513 3.312,3.438 8.211,9.568 17.501,26.833 9.29,17.266 22.975,45.67 32.337,66.822 5.113,11.553 8.938,20.942 12.179,29.594 -16.849,-1.163 -33.55,-1.957 -49.979,-2.318 -29.417,-0.647 -58.221,-0.411 -86.166,0.636 l 0,0 z"
       style="fill:url(#linearGradient4244)"
       inkscape:connector-curvature="0" /><path
       id="path3479"
       d="m 477.28,608.529 c 2.447,-7.003 4.897,-13.663 7.333,-19.988 25.643,-0.825 51.982,-0.971 78.834,-0.38 13.783,0.304 27.759,0.91 41.851,1.787 3.183,7.483 5.806,14.063 8.128,20.264 -16.849,-1.163 -33.549,-1.957 -49.979,-2.318 -29.418,-0.648 -58.222,-0.412 -86.167,0.635 l 0,0 z"
       inkscape:connector-curvature="0"
       style="fill:#0e736c" /></g><path
     inkscape:connector-curvature="0"
     style="fill:url(#linearGradient4236)"
     d="m 111.755,657.75056 c 6.175,-24.472 13.574,-52.268 21.246,-76.672 13.226,-42.08 27.257,-74.071 38.876,-96.645 11.619,-22.572 20.828,-35.729 26.746,-43.352 5.918,-7.624 8.55,-9.717 10.742,-10.39 2.191,-0.674 3.946,0.075 7.306,3.513 3.361,3.438 8.332,9.567 17.759,26.833 9.426,17.266 23.312,45.67 32.81,66.822 9.5,21.152 14.616,35.056 19.731,50.452 5.115,15.397 10.23,32.29 14.102,47.239 0.583,2.251 1.139,4.459 1.671,6.653 -24.062,4.787 -46.462,10.36 -66.885,16.653 -43.901,2.452 -85.651,5.468 -124.104,8.894 l 0,0 z"
     id="path3463" /><path
     inkscape:connector-curvature="0"
     style="fill:url(#radialGradient4234)"
     d="m 1019.791,621.69645 c 12.368,-37.715 25.23,-66.78 36.014,-87.732 11.619,-22.572 20.828,-35.729 26.746,-43.351 5.919,-7.624 8.551,-9.718 10.741,-10.391 2.192,-0.673 3.947,0.075 7.308,3.513 3.361,3.438 8.332,9.568 17.758,26.833 9.428,17.266 23.312,45.67 32.812,66.822 7.8,17.366 12.644,29.846 16.958,42.275 -49.474,-1.389 -99.917,-0.467 -148.337,2.031 l 0,0 z"
     id="path3467" /><path
     inkscape:connector-curvature="0"
     style="fill:url(#linearGradient4230)"
     d="M 100.02889,720 H 0 V 662.326 C 68.899436,655.345 153.31567,649.249 245.73201,644.922 172.08294,663.964 120.02862,689.596 100.02889,720 l 0,0 z"
     id="path3455" /><path
     inkscape:connector-curvature="0"
     style="fill:url(#linearGradient4232)"
     d="M 1282.943,622.214 V 720 H 1058.5129 C 1008.8402,692.854 911.11977,661.292 800,638.623 c 97.10249,-16.021 251.3574,-29.269 393.5352,-23.089 31.8815,1.385 61.7041,3.688 89.4078,6.68 l 0,0 z"
     id="path3457" /><path
     inkscape:connector-curvature="0"
     style="fill:url(#radialGradient4246);fill-opacity:1"
     d="M 1061.44,720 H 95.003 C 135.197,648.552 326.838,603.446 553.675,608.342 746.703,612.509 975.872,672.902 1061.44,720 z"
     id="path3459" /><path
     style="fill:#1a1a1a"
     inkscape:connector-curvature="0"
     d="m 1015.791,227.424 c -1.17,-0.729 -3.398,-1.887 -5.554,-2.429 -2.155,-0.542 -4.239,-0.467 -6.503,0.598 -2.266,1.065 -4.715,3.122 -5.993,4.073 -1.279,0.955 -1.389,0.805 -2.248,0.001 -0.858,-0.803 -2.466,-2.262 -3.964,-3.215 -1.497,-0.952 -2.888,-1.402 -4.402,-1.476 -1.517,-0.075 -3.161,0.224 -5.444,1.084 -2.284,0.859 -5.207,2.281 -6.686,2.972 -1.481,0.691 -1.517,0.653 -0.258,-0.43 1.262,-1.084 3.819,-3.214 6.122,-4.504 2.301,-1.289 4.348,-1.738 6.503,-1.664 2.155,0.076 4.422,0.673 5.847,1.458 1.424,0.786 2.009,1.757 2.338,2.243 0.328,0.487 0.401,0.487 0.821,0.057 0.42,-0.43 1.188,-1.29 2.484,-2.242 1.299,-0.955 3.124,-2.001 5.646,-2.374 4.085,-0.606 13.097,1.379 12.588,6.689 -0.02,0.187 -0.129,-0.112 -1.298,-0.8"
     id="path3483" /><path
     style="fill:#1a1a1a"
     inkscape:connector-curvature="0"
     d="m 807.872,262.245 c -1.379,-0.86 -4.007,-2.225 -6.548,-2.864 -2.541,-0.639 -4.996,-0.55 -7.667,0.704 -2.671,1.255 -5.557,3.68 -7.064,4.803 -1.507,1.124 -1.637,0.946 -2.649,0 -1.012,-0.947 -2.907,-2.666 -4.672,-3.789 -1.767,-1.124 -3.404,-1.653 -5.191,-1.741 -1.787,-0.087 -3.727,0.265 -6.418,1.277 -2.691,1.015 -6.138,2.689 -7.881,3.503 -1.746,0.816 -1.789,0.771 -0.303,-0.505 1.485,-1.278 4.502,-3.789 7.215,-5.309 2.713,-1.52 5.126,-2.049 7.667,-1.962 2.54,0.089 5.212,0.794 6.892,1.719 1.68,0.926 2.369,2.072 2.757,2.645 0.388,0.573 0.474,0.573 0.969,0.066 0.494,-0.507 1.4,-1.52 2.929,-2.643 1.529,-1.125 3.683,-2.358 6.654,-2.798 4.818,-0.714 15.44,1.626 14.84,7.886 -0.023,0.22 -0.153,-0.133 -1.53,-0.992 z"
     id="path3487" /><path
     style="fill:#1a1a1a"
     inkscape:connector-curvature="0"
     d="m 312.535,331.537 c -1.087,-0.677 -3.156,-1.753 -5.158,-2.256 -2.002,-0.503 -3.936,-0.434 -6.039,0.555 -2.104,0.989 -4.377,2.898 -5.565,3.783 -1.187,0.885 -1.289,0.746 -2.085,0 -0.797,-0.745 -2.291,-2.1 -3.682,-2.984 -1.391,-0.885 -2.681,-1.302 -4.089,-1.372 -1.408,-0.068 -2.935,0.209 -5.055,1.006 -2.12,0.798 -4.834,2.118 -6.209,2.759 -1.374,0.643 -1.408,0.608 -0.237,-0.398 1.17,-1.006 3.546,-2.985 5.683,-4.183 2.137,-1.196 4.038,-1.614 6.039,-1.545 2.002,0.07 4.105,0.625 5.428,1.354 1.324,0.729 1.866,1.632 2.172,2.083 0.305,0.451 0.373,0.451 0.763,0.052 0.39,-0.399 1.104,-1.196 2.307,-2.081 1.205,-0.886 2.902,-1.858 5.242,-2.205 3.795,-0.562 12.163,1.282 11.69,6.213 -0.018,0.173 -0.121,-0.104 -1.205,-0.781 l 0,0 z"
     id="path3491" /><g
     id="g3425"><path
       id="path3503"
       d="m 141.112,185.02 c 13.836,-6.314 29.329,-3.818 40.472,5.127 0.437,-0.108 0.873,-0.21 1.31,-0.307 5.458,-7.689 12.902,-14.06 21.994,-18.21 21.011,-9.588 44.773,-4.551 60.382,10.833 22.875,-7.816 48.258,3.268 58.29,26.266 10.672,24.467 -0.068,53.153 -23.988,64.069 -8.217,3.75 -16.921,4.916 -25.238,3.838 -3.461,11.644 -11.65,21.748 -23.368,27.096 -14.547,6.638 -30.789,4.243 -42.727,-4.826 -25.464,6.785 -52.729,-6.036 -63.806,-31.427 -1.229,-2.819 -2.208,-5.687 -2.956,-8.577 -8.737,-3.876 -16.136,-10.979 -20.322,-20.576 -8.881,-20.358 0.055,-44.223 19.957,-53.306 l 0,0 z"
       inkscape:connector-curvature="0"
       style="fill:#ffffff" /><path
       id="path3507"
       d="m 310.197,248.294 c -4.142,8.654 -11.156,15.927 -20.43,20.159 -6.627,3.025 -13.616,4.135 -20.37,3.562 1.879,-2.986 3.34,-6.223 4.346,-9.609 7.305,0.946 14.948,-0.078 22.164,-3.37 5.647,-2.577 10.456,-6.285 14.29,-10.742 l 0,0 z m -44.542,28.711 c -3.676,7.994 -10.065,14.731 -18.572,18.613 -12.774,5.829 -27.038,3.726 -37.52,-4.238 -22.362,5.958 -46.307,-5.301 -56.033,-27.598 -1.08,-2.476 -1.941,-4.995 -2.596,-7.533 -7.672,-3.404 -14.171,-9.642 -17.847,-18.07 -5.838,-13.382 -2.907,-28.492 6.267,-38.589 -3.985,8.93 -4.347,19.501 -0.129,29.171 3.677,8.428 10.174,14.666 17.847,18.07 0.657,2.538 1.517,5.057 2.597,7.533 9.727,22.297 33.67,33.557 56.032,27.598 10.482,7.964 24.747,10.067 37.52,4.238 4.88,-2.226 9.061,-5.391 12.434,-9.195 l 0,0 z"
       inkscape:connector-curvature="0"
       style="fill:#e6e6e6" /></g><g
     id="_315744248">
		<path
   style="fill:#ffffff"
   inkscape:connector-curvature="0"
   d="m 986.214,369.036 c 16.477,5.545 34.925,3.353 48.195,-4.503 0.52,0.096 1.039,0.185 1.559,0.27 6.5,6.752 15.364,12.348 26.192,15.991 25.021,8.421 53.317,3.998 71.904,-9.513 27.242,6.865 57.468,-2.869 69.413,-23.066 12.71,-21.486 -0.079,-46.677 -28.564,-56.263 -9.786,-3.293 -20.149,-4.317 -30.056,-3.371 -4.12,-10.225 -13.872,-19.098 -27.827,-23.794 -17.321,-5.83 -36.665,-3.727 -50.879,4.238 -30.325,-5.958 -62.794,5.301 -75.983,27.598 -1.465,2.476 -2.631,4.995 -3.521,7.533 -10.403,3.404 -19.216,9.641 -24.201,18.069 -10.574,17.877 0.067,38.836 23.768,46.811 z"
   id="_315117400" />
		<path
   style="fill:#e6e6e6"
   inkscape:connector-curvature="0"
   d="m 1000.291,361.79 c 14.405,4.667 30.535,2.821 42.137,-3.79 0.455,0.08 0.908,0.156 1.363,0.228 5.683,5.683 13.433,10.392 22.899,13.459 21.876,7.087 46.616,3.364 62.866,-8.007 23.818,5.777 50.243,-2.415 60.688,-19.414 7.848,-12.771 4.573,-27.096 -6.797,-37.253 2.083,7.148 1.19,14.823 -3.224,22.005 -10.444,16.998 -36.87,25.191 -60.688,19.414 -16.249,11.371 -40.989,15.094 -62.865,8.007 -9.467,-3.067 -17.217,-7.776 -22.899,-13.459 -0.454,-0.072 -0.909,-0.147 -1.364,-0.228 -11.601,6.612 -27.73,8.457 -42.137,3.79 -5.432,-1.761 -10.077,-4.272 -13.812,-7.291 2.128,9.609 10.678,18.276 23.833,22.539 l 0,0 z"
   id="_315744176" />
	</g></g></svg>