<?xml version="1.0" encoding="utf-8"?>
<!-- Generator: Adobe Illustrator 15.0.0, SVG Export Plug-In . SVG Version: 6.00 Build 0)  -->
<!DOCTYPE svg PUBLIC "-//W3C//DTD SVG 1.1//EN" "http://www.w3.org/Graphics/SVG/1.1/DTD/svg11.dtd">
<svg version="1.1"
	 id="svg3309" xmlns:svg="http://www.w3.org/2000/svg" xmlns:rdf="http://www.w3.org/1999/02/22-rdf-syntax-ns#" xmlns:cc="http://creativecommons.org/ns#" xmlns:dc="http://purl.org/dc/elements/1.1/"
	 xmlns="http://www.w3.org/2000/svg" xmlns:xlink="http://www.w3.org/1999/xlink" x="0px" y="0px" width="1280px" height="720px"
	 viewBox="0 0 1280 720" enable-background="new 0 0 1280 720" xml:space="preserve">
<g id="Слой_x0020_1">
	
		<linearGradient id="rect3451_1_" gradientUnits="userSpaceOnUse" x1="830.7646" y1="-330.3276" x2="861.2306" y2="460.5672" gradientTransform="matrix(1 0 0 -1 -205.999 425)">
		<stop  offset="0" style="stop-color:#20A098"/>
		<stop  offset="0.4196" style="stop-color:#339966"/>
		<stop  offset="1" style="stop-color:#367EC7"/>
	</linearGradient>
	
		<rect id="rect3451" x="0" y="0.208" fill="url(#rect3451_1_)" stroke="#000000" stroke-width="2.3622" width="1280" height="719.344"/>
	
		<radialGradient id="path3453_1_" cx="845.8477" cy="128.1309" r="1140.1143" gradientTransform="matrix(1 0 0 -1 -205.999 425)" gradientUnits="userSpaceOnUse">
		<stop  offset="0" style="stop-color:#D1C130"/>
		<stop  offset="0.3098" style="stop-color:#52A25E"/>
		<stop  offset="0.6" style="stop-color:#3C9C66"/>
		<stop  offset="1" style="stop-color:#329A69"/>
	</radialGradient>
	<path id="path3453" fill="url(#path3453_1_)" d="M1279.701,130.559v108.506c-15.506-5.308-503.838-184.475-505.893-186.666
		c-5.244-5.588,21.919-19.904,24.456-21.013C800.076,30.593,1239.861,121.891,1279.701,130.559L1279.701,130.559z M1142,341
		l-93.677,21.208c-11.819-11.555-305.104-241.81-306.052-244.687c-2.417-7.339,28.119-8.463,30.877-8.362
		C775.116,109.229,1109.562,315.807,1142,341L1142,341z M184.929,468.03l86.073,136.452
		c11.819-11.557,284.188-474.087,285.136-476.964c2.418-7.339-28.118-8.463-30.876-8.362
		C523.294,119.228,217.366,442.836,184.929,468.03L184.929,468.03z M-0.004,125.406v108.507
		c15.504-3.559,503.836-127.609,505.892-129.567c5.243-4.998-21.92-22.378-24.456-23.773
		C479.62,79.576,39.834,121.233-0.004,125.406L-0.004,125.406z M406.785,1.32c57.924,21.451,98.514,36.638,99.103,37.267
		c5.243,5.587-21.92,19.904-24.456,21.013C480.37,60.063,329.053,28.934,195.851,1.32H406.785L406.785,1.32z"/>
	
		<linearGradient id="path3455_1_" gradientUnits="userSpaceOnUse" x1="327.1812" y1="-295.0815" x2="320.6841" y2="-218.9464" gradientTransform="matrix(1 0 0 -1 -205.999 425)">
		<stop  offset="0" style="stop-color:#435809"/>
		<stop  offset="0.702" style="stop-color:#85A11F"/>
		<stop  offset="1" style="stop-color:#A7C62A"/>
	</linearGradient>
	<path id="path3455" fill="url(#path3455_1_)" d="M96.014,719.552H0v-57.674c66.134-6.981,147.162-13.077,235.869-17.404
		C165.176,663.516,115.211,689.148,96.014,719.552L96.014,719.552z"/>
	
		<linearGradient id="path3457_1_" gradientUnits="userSpaceOnUse" x1="1256.873" y1="-297.3335" x2="1249.2831" y2="-180.8365" gradientTransform="matrix(1 0 0 -1 -205.999 425)">
		<stop  offset="0" style="stop-color:#435809"/>
		<stop  offset="0.4118" style="stop-color:#5B7211"/>
		<stop  offset="1" style="stop-color:#A7C62A"/>
	</linearGradient>
	<path id="path3457" fill="url(#path3457_1_)" d="M1280.001,621.766v97.786h-218.549c-48.371-27.146-143.531-58.708-251.739-81.377
		c94.558-16.021,244.771-29.269,383.223-23.089C1223.982,616.471,1253.023,618.774,1280.001,621.766L1280.001,621.766z"/>
	
		<linearGradient id="path3459_1_" gradientUnits="userSpaceOnUse" x1="786.1963" y1="-323.7139" x2="774.3842" y2="-149.3703" gradientTransform="matrix(1 0 0 -1 -205.999 425)">
		<stop  offset="0" style="stop-color:#435809"/>
		<stop  offset="0.4118" style="stop-color:#5B7211"/>
		<stop  offset="0.5294" style="stop-color:#85A11F"/>
		<stop  offset="0.5412" style="stop-color:#88A420"/>
		<stop  offset="1" style="stop-color:#A7C62A"/>
	</linearGradient>
	<path id="path3459" fill="url(#path3459_1_)" d="M1061.44,719.552H95.003c40.194-71.448,231.835-116.554,458.672-111.658
		C746.703,612.061,975.872,672.454,1061.44,719.552z"/>
	<path id="path3461" fill="#FDD013" d="M448.544,0h377.547c0.997,8.068,1.512,16.29,1.512,24.634
		c0,107.491-85.192,194.631-190.285,194.631c-105.091,0-190.285-87.139-190.285-194.631C447.032,16.29,447.548,8.068,448.544,0
		L448.544,0z"/>
	
		<linearGradient id="path3463_1_" gradientUnits="userSpaceOnUse" x1="317.7534" y1="-114.7256" x2="508.7441" y2="-114.7256" gradientTransform="matrix(1 0 0 -1 -205.999 425)">
		<stop  offset="0" style="stop-color:#064844"/>
		<stop  offset="1" style="stop-color:#119D94"/>
	</linearGradient>
	<path id="path3463" fill="url(#path3463_1_)" d="M111.755,653.367c6.175-24.472,13.574-52.268,21.246-76.672
		c13.226-42.08,27.257-74.071,38.876-96.645c11.619-22.572,20.828-35.729,26.746-43.352c5.918-7.624,8.55-9.717,10.742-10.39
		c2.191-0.674,3.946,0.075,7.306,3.513c3.361,3.438,8.332,9.567,17.759,26.833c9.426,17.266,23.312,45.67,32.81,66.822
		c9.5,21.152,14.616,35.056,19.731,50.452c5.115,15.397,10.23,32.29,14.102,47.239c0.583,2.251,1.139,4.459,1.671,6.653
		c-24.062,4.787-46.462,10.36-66.885,16.653C191.958,646.925,150.208,649.941,111.755,653.367L111.755,653.367z"/>
	
		<linearGradient id="path3465_1_" gradientUnits="userSpaceOnUse" x1="798.5986" y1="-176.0728" x2="683.4097" y2="-97.1117" gradientTransform="matrix(1 0 0 -1 -205.999 425)">
		<stop  offset="0" style="stop-color:#038D80"/>
		<stop  offset="1" style="stop-color:#23B0A7"/>
	</linearGradient>
	<path id="path3465" fill="url(#path3465_1_)" d="M477.28,608.529c10.436-29.861,20.947-53.53,29.98-71.338
		c11.452-22.572,20.526-35.729,26.36-43.352c5.833-7.624,8.427-9.717,10.586-10.39c2.16-0.673,3.89,0.075,7.202,3.513
		s8.211,9.568,17.501,26.833c9.29,17.266,22.975,45.67,32.337,66.822c5.113,11.553,8.938,20.942,12.179,29.594
		c-16.849-1.163-33.55-1.957-49.979-2.318C534.029,607.246,505.225,607.482,477.28,608.529L477.28,608.529z"/>
	
		<radialGradient id="path3467_1_" cx="1255.4502" cy="-114.459" r="100.438" gradientTransform="matrix(1 0 0 -1 -205.999 425)" gradientUnits="userSpaceOnUse">
		<stop  offset="0" style="stop-color:#25AEA6"/>
		<stop  offset="0.451" style="stop-color:#22A59D"/>
		<stop  offset="0.7686" style="stop-color:#18867F"/>
		<stop  offset="1" style="stop-color:#064844"/>
	</radialGradient>
	<path id="path3467" fill="url(#path3467_1_)" d="M1019.791,616.217c12.368-37.715,25.23-66.78,36.014-87.732
		c11.619-22.572,20.828-35.729,26.746-43.351c5.919-7.624,8.551-9.718,10.741-10.391c2.192-0.673,3.947,0.075,7.308,3.513
		c3.361,3.438,8.332,9.568,17.758,26.833c9.428,17.266,23.312,45.67,32.812,66.822c7.8,17.366,12.644,29.846,16.958,42.275
		C1118.654,612.797,1068.211,613.719,1019.791,616.217L1019.791,616.217z"/>
	<defs>
		<filter id="Adobe_OpacityMaskFilter" filterUnits="userSpaceOnUse" x="128.669" y="1.32" width="1017.292" height="397.025">
			<feColorMatrix  type="matrix" values="1 0 0 0 0  0 1 0 0 0  0 0 1 0 0  0 0 0 1 0"/>
		</filter>
	</defs>
	<mask maskUnits="userSpaceOnUse" x="128.669" y="1.32" width="1017.292" height="397.025" id="id0">
		
			<radialGradient id="rect3323_1_" cx="-571.6484" cy="610.4199" r="561.9179" gradientTransform="matrix(1 0 0 -1 -205.999 425)" gradientUnits="userSpaceOnUse">
			<stop  offset="0" style="stop-color:#FFFFFF"/>
			<stop  offset="0.702" style="stop-color:#FFFFFF;stop-opacity:0.502"/>
			<stop  offset="1" style="stop-color:#FFFFFF;stop-opacity:0"/>
		</radialGradient>
		
			<rect id="rect3323" x="128.642" y="1.291" fill="url(#rect3323_1_)" filter="url(#Adobe_OpacityMaskFilter)" width="1017.35" height="397.084"/>
	</mask>
	<path id="path3469" mask="url(#id0)" fill="#FDD013" d="M1145.961,1.32c-65.713,229.676-268.546,397.025-508.646,397.025
		c-240.1,0-442.932-167.348-508.646-397.025h1017.29H1145.961z"/>
	<defs>
		<filter id="Adobe_OpacityMaskFilter_1_" filterUnits="userSpaceOnUse" x="111.754" y="603.164" width="190.992" height="50.203">
			<feColorMatrix  type="matrix" values="1 0 0 0 0  0 1 0 0 0  0 0 1 0 0  0 0 0 1 0"/>
		</filter>
	</defs>
	<mask maskUnits="userSpaceOnUse" x="111.754" y="603.164" width="190.992" height="50.203" id="id2">
		
			<linearGradient id="rect3331_1_" gradientUnits="userSpaceOnUse" x1="1733.6494" y1="-282.2075" x2="1524.2992" y2="994.9335" gradientTransform="matrix(1 0 0 -1 -205.999 425)">
			<stop  offset="0" style="stop-color:#FFFFFF"/>
			<stop  offset="1" style="stop-color:#FFFFFF;stop-opacity:0"/>
		</linearGradient>
		
			<rect id="rect3331" x="111.725" y="-516.121" fill="url(#rect3331_1_)" filter="url(#Adobe_OpacityMaskFilter_1_)" width="2622.5" height="1169.521"/>
	</mask>
	
		<linearGradient id="path3471_1_" gradientUnits="userSpaceOnUse" x1="1524.0801" y1="-203.2656" x2="1733.8701" y2="-203.2656" gradientTransform="matrix(1 0 0 -1 -205.999 425)">
		<stop  offset="0" style="stop-color:#064844"/>
		<stop  offset="1" style="stop-color:#119D94"/>
	</linearGradient>
	<path id="path3471" mask="url(#id2)" fill="url(#path3471_1_)" d="M111.755,653.367c2.16-8.563,4.47-17.529,6.891-26.617
		c36.534-3.175,75.92-5.981,117.215-8.284c18.53-5.71,38.688-10.827,60.239-15.302c1.798,6.158,3.479,12.226,4.974,18.005
		c0.586,2.25,1.141,4.459,1.674,6.652c-24.064,4.788-46.463,10.361-66.886,16.654C191.957,646.925,150.208,649.941,111.755,653.367
		L111.755,653.367z"/>
	<defs>
		<filter id="Adobe_OpacityMaskFilter_2_" filterUnits="userSpaceOnUse" x="113.611" y="607.481" width="947.83" height="112.021">
			<feColorMatrix  type="matrix" values="1 0 0 0 0  0 1 0 0 0  0 0 1 0 0  0 0 0 1 0"/>
		</filter>
	</defs>
	<mask maskUnits="userSpaceOnUse" x="113.611" y="607.481" width="947.83" height="112.021" id="id4">
		
			<linearGradient id="rect3339_1_" gradientUnits="userSpaceOnUse" x1="794.5645" y1="-194.1821" x2="792.4764" y2="-282.8048" gradientTransform="matrix(1 0 0 -1 -205.999 425)">
			<stop  offset="0" style="stop-color:#FFFFFF"/>
			<stop  offset="1" style="stop-color:#FFFFFF;stop-opacity:0"/>
		</linearGradient>
		
			<rect id="rect3339" x="112.426" y="606.302" fill="url(#rect3339_1_)" filter="url(#Adobe_OpacityMaskFilter_2_)" width="950.192" height="114.382"/>
	</mask>
	<path id="path3473" mask="url(#id4)" fill="#FFFF00" d="M1061.44,719.502h-947.83c39.419-71.447,227.371-116.555,449.84-111.658
		C752.763,612.011,977.52,672.404,1061.44,719.502z"/>
	<defs>
		<filter id="Adobe_OpacityMaskFilter_3_" filterUnits="userSpaceOnUse" x="0" y="644.124" width="235.868" height="75.077">
			<feColorMatrix  type="matrix" values="1 0 0 0 0  0 1 0 0 0  0 0 1 0 0  0 0 0 1 0"/>
		</filter>
	</defs>
	<mask maskUnits="userSpaceOnUse" x="0" y="644.124" width="235.868" height="75.077" id="id6">
		
			<linearGradient id="rect3347_1_" gradientUnits="userSpaceOnUse" x1="323.9331" y1="-237.1421" x2="323.9331" y2="-276.1821" gradientTransform="matrix(1 0 0 -1 -205.999 425)">
			<stop  offset="0" style="stop-color:#FFFFFF"/>
			<stop  offset="1" style="stop-color:#FFFFFF;stop-opacity:0"/>
		</linearGradient>
		
			<rect id="rect3347" x="-1.182" y="642.943" fill="url(#rect3347_1_)" filter="url(#Adobe_OpacityMaskFilter_3_)" width="238.23" height="77.438"/>
	</mask>
	<path id="path3475" mask="url(#id6)" fill="#FFFF00" d="M96.015,719.201H0v-57.676c66.132-6.98,147.162-13.076,235.868-17.401
		C165.176,663.163,115.214,688.796,96.015,719.201L96.015,719.201z"/>
	<defs>
		<filter id="Adobe_OpacityMaskFilter_4_" filterUnits="userSpaceOnUse" x="809.713" y="613.535" width="470.288" height="106.017">
			<feColorMatrix  type="matrix" values="1 0 0 0 0  0 1 0 0 0  0 0 1 0 0  0 0 0 1 0"/>
		</filter>
	</defs>
	<mask maskUnits="userSpaceOnUse" x="809.713" y="613.535" width="470.288" height="106.017" id="id8">
		
			<linearGradient id="rect3355_1_" gradientUnits="userSpaceOnUse" x1="1206.2607" y1="-155.9536" x2="1295.4507" y2="-327.1336" gradientTransform="matrix(1 0 0 -1 -205.999 425)">
			<stop  offset="0" style="stop-color:#FFFFFF"/>
			<stop  offset="1" style="stop-color:#FFFFFF;stop-opacity:0"/>
		</linearGradient>
		
			<rect id="rect3355" x="808.532" y="612.355" fill="url(#rect3355_1_)" filter="url(#Adobe_OpacityMaskFilter_4_)" width="472.65" height="108.378"/>
	</mask>
	<path id="path3477" mask="url(#id8)" fill="#FFFF00" d="M1280.001,621.766v97.786h-218.55
		c-48.37-27.146-143.529-58.708-251.738-81.377c94.558-16.022,244.771-29.27,383.223-23.091
		C1223.981,616.471,1253.023,618.775,1280.001,621.766L1280.001,621.766z"/>
	<path id="path3479" fill="#0E736C" d="M477.28,608.529c2.447-7.003,4.897-13.663,7.333-19.988
		c25.643-0.825,51.982-0.971,78.834-0.38c13.783,0.304,27.759,0.91,41.851,1.787c3.183,7.483,5.806,14.063,8.128,20.264
		c-16.849-1.163-33.549-1.957-49.979-2.318C534.029,607.246,505.225,607.482,477.28,608.529L477.28,608.529z"/>
	<defs>
		<filter id="Adobe_OpacityMaskFilter_5_" filterUnits="userSpaceOnUse" x="1019.791" y="593.806" width="148.335" height="22.411">
			<feColorMatrix  type="matrix" values="1 0 0 0 0  0 1 0 0 0  0 0 1 0 0  0 0 0 1 0"/>
		</filter>
	</defs>
	<mask maskUnits="userSpaceOnUse" x="1019.791" y="593.806" width="148.335" height="22.411" id="id10">
		
			<linearGradient id="rect3363_1_" gradientUnits="userSpaceOnUse" x1="1306.6035" y1="-201.2935" x2="1293.3134" y2="-158.7258" gradientTransform="matrix(1 0 0 -1 -205.999 425)">
			<stop  offset="0" style="stop-color:#FFFFFF"/>
			<stop  offset="1" style="stop-color:#FFFFFF;stop-opacity:0"/>
		</linearGradient>
		
			<rect id="rect3363" x="1018.611" y="592.624" fill="url(#rect3363_1_)" filter="url(#Adobe_OpacityMaskFilter_5_)" width="150.696" height="24.774"/>
	</mask>
	
		<radialGradient id="path3481_1_" cx="1212.4404" cy="-157.6001" r="56.367" gradientTransform="matrix(1 0 0 -1 -205.999 425)" gradientUnits="userSpaceOnUse">
		<stop  offset="0" style="stop-color:#25AEA6"/>
		<stop  offset="0.0118" style="stop-color:#157B75"/>
		<stop  offset="1" style="stop-color:#064844"/>
	</radialGradient>
	<path id="path3481" mask="url(#id10)" fill="url(#path3481_1_)" d="M1019.791,616.217c2.29-6.988,4.601-13.681,6.908-20.077
		c43.868-2.119,89.269-2.925,134-1.876c2.838,7.095,5.203,13.516,7.427,19.924C1118.651,612.797,1068.21,613.72,1019.791,616.217
		L1019.791,616.217z"/>
	<path id="path3483" fill="#1A1A1A" d="M1015.791,227.424c-1.17-0.729-3.398-1.887-5.554-2.429
		c-2.155-0.542-4.239-0.467-6.503,0.598c-2.266,1.065-4.715,3.122-5.993,4.073c-1.279,0.955-1.389,0.805-2.248,0.001
		c-0.858-0.803-2.466-2.262-3.964-3.215c-1.497-0.952-2.888-1.402-4.402-1.476c-1.517-0.075-3.161,0.224-5.444,1.084
		c-2.284,0.859-5.207,2.281-6.686,2.972c-1.481,0.691-1.517,0.653-0.258-0.43c1.262-1.084,3.819-3.214,6.122-4.504
		c2.301-1.289,4.348-1.738,6.503-1.664c2.155,0.076,4.422,0.673,5.847,1.458c1.424,0.786,2.009,1.757,2.338,2.243
		c0.328,0.487,0.401,0.487,0.821,0.057c0.42-0.43,1.188-1.29,2.484-2.242c1.299-0.955,3.124-2.001,5.646-2.374
		c4.085-0.606,13.097,1.379,12.588,6.689c-0.02,0.187-0.129-0.112-1.298-0.8"/>
	<path id="path3487" fill="#1A1A1A" d="M807.872,262.245c-1.379-0.86-4.007-2.225-6.548-2.864s-4.996-0.55-7.667,0.704
		c-2.671,1.255-5.557,3.68-7.064,4.803c-1.507,1.124-1.637,0.946-2.649,0c-1.012-0.947-2.907-2.666-4.672-3.789
		c-1.767-1.124-3.404-1.653-5.191-1.741c-1.787-0.087-3.727,0.265-6.418,1.277c-2.691,1.015-6.138,2.689-7.881,3.503
		c-1.746,0.816-1.789,0.771-0.303-0.505c1.485-1.278,4.502-3.789,7.215-5.309s5.126-2.049,7.667-1.962
		c2.54,0.089,5.212,0.794,6.892,1.719c1.68,0.926,2.369,2.072,2.757,2.645s0.474,0.573,0.969,0.066
		c0.494-0.507,1.4-1.52,2.929-2.643c1.529-1.125,3.683-2.358,6.654-2.798c4.818-0.714,15.44,1.626,14.84,7.886
		C809.379,263.457,809.249,263.104,807.872,262.245z"/>
	<path id="path3491" fill="#1A1A1A" d="M312.535,331.537c-1.087-0.677-3.156-1.753-5.158-2.256
		c-2.002-0.503-3.936-0.434-6.039,0.555c-2.104,0.989-4.377,2.898-5.565,3.783c-1.187,0.885-1.289,0.746-2.085,0
		c-0.797-0.745-2.291-2.1-3.682-2.984c-1.391-0.885-2.681-1.302-4.089-1.372c-1.408-0.068-2.935,0.209-5.055,1.006
		c-2.12,0.798-4.834,2.118-6.209,2.759c-1.374,0.643-1.408,0.608-0.237-0.398c1.17-1.006,3.546-2.985,5.683-4.183
		c2.137-1.196,4.038-1.614,6.039-1.545c2.002,0.07,4.105,0.625,5.428,1.354c1.324,0.729,1.866,1.632,2.172,2.083
		c0.305,0.451,0.373,0.451,0.763,0.052c0.39-0.399,1.104-1.196,2.307-2.081c1.205-0.886,2.902-1.858,5.242-2.205
		c3.795-0.562,12.163,1.282,11.69,6.213C313.722,332.491,313.619,332.214,312.535,331.537L312.535,331.537z"/>
	<defs>
		<filter id="Adobe_OpacityMaskFilter_6_" filterUnits="userSpaceOnUse" x="29.718" y="644.924" width="206.149" height="75.077">
			<feColorMatrix  type="matrix" values="1 0 0 0 0  0 1 0 0 0  0 0 1 0 0  0 0 0 1 0"/>
		</filter>
	</defs>
	<mask maskUnits="userSpaceOnUse" x="29.718" y="644.924" width="206.149" height="75.077" id="id12">
		
			<linearGradient id="rect3371_1_" gradientUnits="userSpaceOnUse" x1="356.4316" y1="-275.9585" x2="321.1526" y2="-238.9665" gradientTransform="matrix(1 0 0 -1 -205.999 425)">
			<stop  offset="0" style="stop-color:#FFFFFF"/>
			<stop  offset="1" style="stop-color:#FFFFFF;stop-opacity:0"/>
		</linearGradient>
		
			<rect id="rect3371" x="28.538" y="643.743" fill="url(#rect3371_1_)" filter="url(#Adobe_OpacityMaskFilter_6_)" width="208.511" height="77.438"/>
	</mask>
	<path id="path3493" mask="url(#id12)" fill="#344200" d="M113.636,720.001H29.718v-0.394h59.425
		c27.828-50.427,93.736-71.729,146.724-74.684C174.083,663.964,130.416,689.596,113.636,720.001L113.636,720.001z"/>
	<defs>
		<filter id="Adobe_OpacityMaskFilter_7_" filterUnits="userSpaceOnUse" x="809.713" y="638.175" width="470.288" height="81.377">
			<feColorMatrix  type="matrix" values="1 0 0 0 0  0 1 0 0 0  0 0 1 0 0  0 0 0 1 0"/>
		</filter>
	</defs>
	<mask maskUnits="userSpaceOnUse" x="809.713" y="638.175" width="470.288" height="81.377" id="id14">
		
			<linearGradient id="rect3379_1_" gradientUnits="userSpaceOnUse" x1="1209.3906" y1="-174.2803" x2="1292.3203" y2="-333.4457" gradientTransform="matrix(1 0 0 -1 -205.999 425)">
			<stop  offset="0" style="stop-color:#FFFFFF"/>
			<stop  offset="1" style="stop-color:#FFFFFF;stop-opacity:0"/>
		</linearGradient>
		
			<rect id="rect3379" x="808.532" y="636.994" fill="url(#rect3379_1_)" filter="url(#Adobe_OpacityMaskFilter_7_)" width="472.65" height="83.739"/>
	</mask>
	<path id="path3495" mask="url(#id14)" fill="#4F4F00" d="M1280.001,719.552L1280.001,719.552h-218.55
		c-48.37-27.146-143.529-58.708-251.738-81.377c93.492,7.354,217.314,44.462,287.693,81.377H1280.001L1280.001,719.552z"/>
	<path id="path3497" fill="#FFE10F" d="M482.508,1.786h309.619c0.817,6.617,1.24,13.358,1.24,20.202
		c0,88.152-69.866,159.613-156.05,159.613c-86.185,0-156.05-71.462-156.05-159.613C481.268,15.144,481.689,8.402,482.508,1.786
		L482.508,1.786z"/>
	<path id="path3499" fill="#FEE916" d="M517.17,1.786h235.488c0.621,5.033,0.942,10.16,0.942,15.365
		c0,67.046-53.138,121.397-118.688,121.397S516.226,84.197,516.226,17.151C516.226,11.946,516.547,6.818,517.17,1.786L517.17,1.786z
		"/>
	<path id="path3501" fill="#FFED42" d="M552.976,1.786h168.199c0.444,3.594,0.675,7.257,0.675,10.975
		c0,47.888-37.955,86.708-84.774,86.708c-46.818,0-84.772-38.821-84.772-86.708C552.303,9.042,552.532,5.38,552.976,1.786
		L552.976,1.786z"/>
	<path id="path3503" fill="#FFFFFF" d="M141.112,185.02c13.836-6.314,29.329-3.818,40.472,5.127c0.437-0.108,0.873-0.21,1.31-0.307
		c5.458-7.689,12.902-14.06,21.994-18.21c21.011-9.588,44.773-4.551,60.382,10.833c22.875-7.816,48.258,3.268,58.29,26.266
		c10.672,24.467-0.068,53.153-23.988,64.069c-8.217,3.75-16.921,4.916-25.238,3.838c-3.461,11.644-11.65,21.748-23.368,27.096
		c-14.547,6.638-30.789,4.243-42.727-4.826c-25.464,6.785-52.729-6.036-63.806-31.427c-1.229-2.819-2.208-5.687-2.956-8.577
		c-8.737-3.876-16.136-10.979-20.322-20.576C112.274,217.968,121.21,194.103,141.112,185.02L141.112,185.02z"/>
	<path id="path3505" fill="#FFFFFF" d="M151.052,191.37c12.151-5.545,25.756-3.354,35.542,4.501
		c0.383-0.094,0.765-0.183,1.149-0.269c4.793-6.751,11.331-12.348,19.316-15.991c18.451-8.42,39.318-3.997,53.024,9.513
		c20.089-6.865,42.378,2.87,51.188,23.066c9.373,21.486-0.06,46.677-21.065,56.264c-7.215,3.293-14.858,4.315-22.164,3.37
		c-3.038,10.226-10.229,19.098-20.521,23.794c-12.773,5.83-27.038,3.727-37.52-4.238c-22.362,5.96-46.305-5.3-56.032-27.598
		c-1.081-2.476-1.94-4.995-2.596-7.532c-7.672-3.405-14.171-9.643-17.848-18.07C125.728,220.303,133.575,199.346,151.052,191.37
		L151.052,191.37z"/>
	<path id="path3507" fill="#E6E6E6" d="M310.197,248.294c-4.142,8.654-11.156,15.927-20.43,20.159
		c-6.627,3.025-13.616,4.135-20.37,3.562c1.879-2.986,3.34-6.223,4.346-9.609c7.305,0.946,14.948-0.078,22.164-3.37
		C301.554,256.459,306.363,252.751,310.197,248.294L310.197,248.294z M265.655,277.005c-3.676,7.994-10.065,14.731-18.572,18.613
		c-12.774,5.829-27.038,3.726-37.52-4.238c-22.362,5.958-46.307-5.301-56.033-27.598c-1.08-2.476-1.941-4.995-2.596-7.533
		c-7.672-3.404-14.171-9.642-17.847-18.07c-5.838-13.382-2.907-28.492,6.267-38.589c-3.985,8.93-4.347,19.501-0.129,29.171
		c3.677,8.428,10.174,14.666,17.847,18.07c0.657,2.538,1.517,5.057,2.597,7.533c9.727,22.297,33.67,33.557,56.032,27.598
		c10.482,7.964,24.747,10.067,37.52,4.238C258.101,283.974,262.282,280.809,265.655,277.005L265.655,277.005z"/>
	<g id="_315744248">
		<path id="_315117400" fill="#FFFFFF" d="M986.214,369.036c16.477,5.545,34.925,3.353,48.195-4.503
			c0.52,0.096,1.039,0.185,1.559,0.27c6.5,6.752,15.364,12.348,26.192,15.991c25.021,8.421,53.317,3.998,71.904-9.513
			c27.242,6.865,57.468-2.869,69.413-23.066c12.71-21.486-0.079-46.677-28.564-56.263c-9.786-3.293-20.149-4.317-30.056-3.371
			c-4.12-10.225-13.872-19.098-27.827-23.794c-17.321-5.83-36.665-3.727-50.879,4.238c-30.325-5.958-62.794,5.301-75.983,27.598
			c-1.465,2.476-2.631,4.995-3.521,7.533c-10.403,3.404-19.216,9.641-24.201,18.069
			C951.872,340.102,962.513,361.061,986.214,369.036z"/>
		<path id="_315744176" fill="#E6E6E6" d="M1000.291,361.79c14.405,4.667,30.535,2.821,42.137-3.79
			c0.455,0.08,0.908,0.156,1.363,0.228c5.683,5.683,13.433,10.392,22.899,13.459c21.876,7.087,46.616,3.364,62.866-8.007
			c23.818,5.777,50.243-2.415,60.688-19.414c7.848-12.771,4.573-27.096-6.797-37.253c2.083,7.148,1.19,14.823-3.224,22.005
			c-10.444,16.998-36.87,25.191-60.688,19.414c-16.249,11.371-40.989,15.094-62.865,8.007c-9.467-3.067-17.217-7.776-22.899-13.459
			c-0.454-0.072-0.909-0.147-1.364-0.228c-11.601,6.612-27.73,8.457-42.137,3.79c-5.432-1.761-10.077-4.272-13.812-7.291
			C978.586,348.86,987.136,357.527,1000.291,361.79L1000.291,361.79z"/>
	</g>
</g>
</svg>
