<?xml version="1.0" encoding="UTF-8" standalone="no"?>
<!-- Created with Inkscape (http://www.inkscape.org/) -->

<svg
   xmlns:dc="http://purl.org/dc/elements/1.1/"
   xmlns:cc="http://creativecommons.org/ns#"
   xmlns:rdf="http://www.w3.org/1999/02/22-rdf-syntax-ns#"
   xmlns:svg="http://www.w3.org/2000/svg"
   xmlns="http://www.w3.org/2000/svg"
   version="1.1"
   width="400"
   height="400"
   viewBox="0 0 400 400"
   id="svg4021"
   xml:space="preserve"
   style="fill-rule:evenodd"><metadata
   id="metadata4098"><rdf:RDF><cc:Work
       rdf:about=""><dc:format>image/svg+xml</dc:format><dc:type
         rdf:resource="http://purl.org/dc/dcmitype/StillImage" /><dc:title></dc:title></cc:Work></rdf:RDF></metadata>
 <defs
   id="defs4023">
  <style
   type="text/css"
   id="style4025" />
   <mask
   id="id0">
  <linearGradient
   x1="198.604"
   y1="184.062"
   x2="199.799"
   y2="239.81"
   id="id1"
   gradientUnits="userSpaceOnUse">
   <stop
   id="stop4029"
   style="stop-color:#ffffff;stop-opacity:1"
   offset="0" />
   <stop
   id="stop4031"
   style="stop-color:#ffffff;stop-opacity:0"
   offset="1" />
  </linearGradient>
    <rect
   width="303.25"
   height="54.001301"
   x="47.576099"
   y="184.936"
   id="rect4033"
   style="fill:url(#id1)" />
   </mask>
   <mask
   id="id2">
  <linearGradient
   x1="196.233"
   y1="221.436"
   x2="196.95399"
   y2="272.76901"
   id="id3"
   gradientUnits="userSpaceOnUse">
   <stop
   id="stop4037"
   style="stop-color:#ffffff;stop-opacity:1"
   offset="0" />
   <stop
   id="stop4039"
   style="stop-color:#ffffff;stop-opacity:0"
   offset="1" />
  </linearGradient>
    <rect
   width="125.059"
   height="164.681"
   x="134.064"
   y="164.76199"
   id="rect4041"
   style="fill:url(#id3)" />
   </mask>
   <mask
   id="id4">
  <linearGradient
   x1="187.457"
   y1="264.44501"
   x2="205.731"
   y2="229.75999"
   id="id5"
   gradientUnits="userSpaceOnUse">
   <stop
   id="stop4045"
   style="stop-color:#ffffff;stop-opacity:1"
   offset="0" />
   <stop
   id="stop4047"
   style="stop-color:#ffffff;stop-opacity:0"
   offset="1" />
  </linearGradient>
    <rect
   width="125.059"
   height="164.681"
   x="134.064"
   y="164.76199"
   id="rect4049"
   style="fill:url(#id5)" />
   </mask>
  <linearGradient
   x1="197.63699"
   y1="197.21001"
   x2="194.883"
   y2="156.821"
   id="id6"
   gradientUnits="userSpaceOnUse">
   <stop
   id="stop4052"
   style="stop-color:#333333;stop-opacity:1"
   offset="0" />
   <stop
   id="stop4054"
   style="stop-color:#b3b3b3;stop-opacity:1"
   offset="0.45882401" />
   <stop
   id="stop4056"
   style="stop-color:#8d8d8d;stop-opacity:1"
   offset="0.67843097" />
   <stop
   id="stop4058"
   style="stop-color:#333333;stop-opacity:1"
   offset="0.89019603" />
   <stop
   id="stop4060"
   style="stop-color:#000000;stop-opacity:1"
   offset="1" />
  </linearGradient>
 </defs>
 <g
   id="Слой_x0020_1">
  <metadata
   id="CorelCorpID_0Corel-Layer" />
  <ellipse
   cx="200.24699"
   cy="100.38"
   rx="171.314"
   ry="49.761501"
   id="ellipse4064"
   style="fill:#4949d5;stroke:#000000;stroke-width:2.36221004" />
  <path
   d="m 370.71,95.4002 c 0.5941,1.03701 0.8941,2.63741 0.85158,4.97954 0,27.4831 -76.6998,49.7623 -171.315,49.7623 -94.6136,0 -171.315004,-22.2792 -171.315004,-49.7623 0,-2.27245 0.287008,-3.84686 0.82323,-4.88623 -0.539765,1.60866 -0.82323,3.23741 -0.82323,4.88623 l 0,57.0178 c 0,75.7998 340.178004,77.8891 341.593004,0 l 1.03583,-57.0178 c 0,-1.68071 -0.29056,-3.34135 -0.85158,-4.97954 z"
   id="path4066"
   style="fill:#124ba5;stroke:#000000;stroke-width:2.36221004" />
  <path
   d="m 348.993,187.23 -4.90395,103.384 c -2.84174,71.2832 -262.724,94.9325 -291.83,0 L 48.1051,185.535 c 59.1379,38.3682 238.665,39.6674 300.888,1.69489 z"
   id="path4068"
   style="fill:#4e4ee5;stroke:#000000;stroke-width:2.36221004" />
  <path
   d="m 349.645,187.813 -1.08071,22.7882 c -62.8667,37.1339 -239.232,35.8347 -298.909,-1.77048 l -0.89764,-22.7138 c 59.1367,38.3694 238.663,39.6674 300.888,1.69607 z"
   mask="url(#id0)"
   id="path4070"
   style="fill:#002d94" />
  <rect
   width="63.595901"
   height="65.295403"
   x="164.597"
   y="214.845"
   id="rect4072"
   style="fill:#000000;stroke:#000000;stroke-width:2.36221004" />
  <rect
   width="63.595901"
   height="65.295403"
   x="164.597"
   y="149.063"
   id="rect4074"
   style="fill:#4d4d4d;stroke:#000000;stroke-width:2.36221004" />
  <path
   d="m 337.862,130.02 c -31.219,12.2091 -81.234,20.1213 -137.614,20.1213 -94.6159,0 -171.316,-22.278 -171.316,-49.7611 0,-15.6591 24.9107,-29.6268 63.8411,-38.7485 -21.1666,8.27836 -33.6934,18.5327 -33.6934,29.6375 0,27.4831 76.7009,49.7623 171.315,49.7623 40.6997,0 78.0769,-4.12442 107.468,-11.0114 z"
   id="path4076"
   style="fill:#001279" />
  <rect
   width="13.6854"
   height="48.5508"
   x="186.48599"
   y="152.741"
   id="rect4078"
   style="fill:#000000;stroke:#000000;stroke-width:2.36221004" />
  <path
   d="m 242.191,242.087 c 8.72128,8.93151 13.9772,20.4603 13.9772,33.0485 0,28.3619 -26.6729,51.3544 -59.5761,51.3544 -32.9032,0 -59.5761,-22.9926 -59.5761,-51.3544 0,-13.3559 5.91733,-25.5178 15.6118,-34.6524 l 0.0484,-30.9969 c 0.77834,-23.2016 19.8284,-41.7721 43.219,-41.7721 23.4969,0 42.6143,18.7406 43.2296,42.0887 l 0.007,29.6646 c 1.04882,0.84331 2.0693,1.71615 3.05906,2.61969 z m -82.3844,-7.10316 c 10.4433,-6.53978 22.9997,-10.3547 36.5091,-10.3547 13.1114,0 25.3252,3.59174 35.5796,9.78073 l 0.0555,-24.6071 c -0.61299,-19.3867 -16.5201,-34.9146 -36.0556,-34.9146 -19.8532,0 -35.9587,16.037 -36.0733,35.8631 l -0.0154,24.2327 z"
   id="path4080"
   style="fill:#d2d3d5;stroke:#000000;stroke-width:5.90551996" />
  <path
   d="m 242.191,242.086 c 8.72128,8.93269 13.9784,20.4615 13.9784,33.0497 0,28.3619 -26.6741,51.3544 -59.5773,51.3544 -32.9032,0 -59.5761,-22.9926 -59.5761,-51.3544 0,-13.3559 5.91733,-25.5189 15.6118,-34.6512 l 0.0484,-30.9981 c 0.77952,-23.2016 19.8284,-41.7721 43.219,-41.7721 23.4981,0 42.6143,18.7406 43.2296,42.0887 l 0.006,29.6646 c 1.04882,0.84331 2.07048,1.71615 3.06024,2.61851 z m -82.3832,-7.10198 c 10.4421,-6.54096 22.9997,-10.3547 36.5079,-10.3547 13.1114,0 25.3252,3.59174 35.5796,9.78191 l 0.0555,-24.6083 c -0.61299,-19.3878 -16.5201,-34.9146 -36.0556,-34.9146 -19.852,0 -35.9599,16.037 -36.0733,35.8642 l -0.0142,24.2315 z"
   mask="url(#id2)"
   id="path4082"
   style="fill:#666666;stroke:#000000;stroke-width:5.90551996" />
  <path
   d="m 242.191,242.086 c 8.72128,8.93269 13.9784,20.4615 13.9784,33.0497 0,28.3619 -26.6741,51.3544 -59.5773,51.3544 -32.9032,0 -59.5761,-22.9926 -59.5761,-51.3544 0,-13.3559 5.91733,-25.5189 15.6118,-34.6512 l 0.0484,-30.9981 c 0.77952,-23.2016 19.8284,-41.7721 43.219,-41.7721 23.4981,0 42.6143,18.7406 43.2296,42.0887 l 0.006,29.6646 c 1.04882,0.84331 2.07048,1.71615 3.06024,2.61851 z m -82.3832,-7.10198 c 10.4421,-6.54096 22.9997,-10.3547 36.5079,-10.3547 13.1114,0 25.3252,3.59174 35.5796,9.78191 l 0.0555,-24.6083 c -0.61299,-19.3878 -16.5201,-34.9146 -36.0556,-34.9146 -19.852,0 -35.9599,16.037 -36.0733,35.8642 l -0.0142,24.2315 z"
   mask="url(#id4)"
   id="path4084"
   style="fill:#4d4d4d;stroke:#000000;stroke-width:5.90551996" />
  <path
   d="m 239.302,243.304 c 8.14372,8.34096 13.0548,19.1091 13.0548,30.8658 0,7.07718 -1.78229,13.7965 -4.97481,19.8437 -43.3879,-5.34568 -80.0765,-18.7193 -102.801,-36.6284 2.53819,-5.85237 6.36379,-11.1626 11.1815,-15.6756 l -0.0933,-0.19252 c 10.8449,-9.02955 25.1304,-14.517 40.7906,-14.517 16.6642,0 31.78,6.21497 42.8422,16.304 z"
   id="path4086"
   style="fill:#ffffff;fill-opacity:0.50196096" />
  <path
   d="m 196.36,256.907 c 7.46576,0 13.5213,6.05552 13.5213,13.5225 0,5.5571 -3.35316,10.3288 -8.14726,12.4075 l 1.90394,3.68977 6.70986,12.9945 -13.4197,0 -13.4197,0 6.70986,-12.9945 1.71496,-3.3189 c -5.29607,-1.83307 -9.09569,-6.8634 -9.09569,-12.7784 0,-7.46694 6.05552,-13.5225 13.5225,-13.5225 z"
   id="path4088"
   style="fill:#000000" />
  <rect
   width="13.6854"
   height="48.5508"
   x="189.418"
   y="152.741"
   id="rect4090"
   style="fill:url(#id6);stroke:#000000;stroke-width:2.36221004" />
  <path
   d="m 200.248,50.6186 c 94.6136,0 171.313,22.2792 171.313,49.7611 0,13.2969 -17.9622,25.3737 -47.2158,34.2993 13.1977,-7.41734 20.6552,-15.8339 20.6552,-24.7595 0,-29.8312 -83.2573,-54.0155 -185.96,-54.0155 -11.8748,0 -23.4898,0.323623 -34.7469,0.94134 l -1.81418,-0.814962 c 23.3386,-3.45946 49.7682,-5.41182 77.7687,-5.41182 z"
   id="path4092"
   style="fill:#ffffff;fill-opacity:0.50196096" />
  <polygon
   points="228.518,149.062 212.876,76.4931 182.192,76.4931 164.598,149.062 "
   id="polygon4094"
   style="fill:#999999;stroke:#000000;stroke-width:2.36221004" />
 </g>
</svg>