<?xml version="1.0" encoding="UTF-8" standalone="no"?>
<!-- Created with Inkscape (http://www.inkscape.org/) -->

<svg
   xmlns:dc="http://purl.org/dc/elements/1.1/"
   xmlns:cc="http://creativecommons.org/ns#"
   xmlns:rdf="http://www.w3.org/1999/02/22-rdf-syntax-ns#"
   xmlns:svg="http://www.w3.org/2000/svg"
   xmlns="http://www.w3.org/2000/svg"
   xmlns:xlink="http://www.w3.org/1999/xlink"
   xmlns:sodipodi="http://sodipodi.sourceforge.net/DTD/sodipodi-0.dtd"
   xmlns:inkscape="http://www.inkscape.org/namespaces/inkscape"
   version="1.1"
   width="400"
   height="400"
   viewBox="0 0 400 400"
   id="svg3942"
   xml:space="preserve"
   style="fill-rule:evenodd"
   inkscape:version="0.48.2 r9819"
   sodipodi:docname="box.svg"><sodipodi:namedview
   pagecolor="#ffffff"
   bordercolor="#666666"
   borderopacity="1"
   objecttolerance="10"
   gridtolerance="10"
   guidetolerance="10"
   inkscape:pageopacity="0"
   inkscape:pageshadow="2"
   inkscape:window-width="1366"
   inkscape:window-height="716"
   id="namedview45"
   showgrid="false"
   inkscape:zoom="1.7278636"
   inkscape:cx="104.46554"
   inkscape:cy="198.06214"
   inkscape:window-x="-8"
   inkscape:window-y="-8"
   inkscape:window-maximized="1"
   inkscape:current-layer="layer5" /><metadata
   id="metadata4019"><rdf:RDF><cc:Work
       rdf:about=""><dc:format>image/svg+xml</dc:format><dc:type
         rdf:resource="http://purl.org/dc/dcmitype/StillImage" /><dc:title /></cc:Work></rdf:RDF></metadata>
 <defs
   id="defs3944"><style
     type="text/css"
     id="style3946" /><mask
     id="id0">
  <linearGradient
   x1="198.604"
   y1="184.062"
   x2="199.799"
   y2="239.81"
   id="id1"
   gradientUnits="userSpaceOnUse">
   <stop
   id="stop3950"
   style="stop-color:#ffffff;stop-opacity:1"
   offset="0" />
   <stop
   id="stop3952"
   style="stop-color:#ffffff;stop-opacity:0"
   offset="1" />
  </linearGradient>
    <rect
   width="303.25"
   height="54.001301"
   x="47.576099"
   y="184.936"
   id="rect3954"
   style="fill:url(#id1)" />
   </mask><mask
     id="id2">
  <linearGradient
   x1="196.233"
   y1="221.436"
   x2="196.95399"
   y2="272.76901"
   id="id3"
   gradientUnits="userSpaceOnUse">
   <stop
   id="stop3958"
   style="stop-color:#ffffff;stop-opacity:1"
   offset="0" />
   <stop
   id="stop3960"
   style="stop-color:#ffffff;stop-opacity:0"
   offset="1" />
  </linearGradient>
    <rect
   width="125.059"
   height="164.681"
   x="134.064"
   y="164.76199"
   id="rect3962"
   style="fill:url(#id3)" />
   </mask><mask
     id="id4">
  <linearGradient
   x1="187.457"
   y1="264.44501"
   x2="205.731"
   y2="229.75999"
   id="id5"
   gradientUnits="userSpaceOnUse">
   <stop
   id="stop3966"
   style="stop-color:#ffffff;stop-opacity:1"
   offset="0" />
   <stop
   id="stop3968"
   style="stop-color:#ffffff;stop-opacity:0"
   offset="1" />
  </linearGradient>
    <rect
   width="125.059"
   height="164.681"
   x="134.064"
   y="164.76199"
   id="rect3970"
   style="fill:url(#id5)" />
   </mask><linearGradient
     x1="197.63699"
     y1="197.21001"
     x2="194.883"
     y2="156.821"
     id="id6"
     gradientUnits="userSpaceOnUse">
   <stop
   id="stop3973"
   style="stop-color:#333333;stop-opacity:1"
   offset="0" />
   <stop
   id="stop3975"
   style="stop-color:#b3b3b3;stop-opacity:1"
   offset="0.45882401" />
   <stop
   id="stop3977"
   style="stop-color:#8d8d8d;stop-opacity:1"
   offset="0.67843097" />
   <stop
   id="stop3979"
   style="stop-color:#333333;stop-opacity:1"
   offset="0.89019603" />
   <stop
   id="stop3981"
   style="stop-color:#000000;stop-opacity:1"
   offset="1" />
  </linearGradient><linearGradient
     inkscape:collect="always"
     xlink:href="#id6"
     id="linearGradient3025"
     gradientUnits="userSpaceOnUse"
     x1="197.63699"
     y1="197.21001"
     x2="194.883"
     y2="156.821" /></defs>
 
<g
   inkscape:groupmode="layer"
   id="layer1"
   inkscape:label="Base"
   style="display:inline"><path
     inkscape:connector-curvature="0"
     style="fill:#e7a359;fill-rule:evenodd;stroke:#000000;stroke-width:2.36221004"
     id="path3989"
     d="m 348.993,187.23 -4.90395,103.384 c -2.84174,71.2832 -262.724,94.9325 -291.83,0 L 48.1051,185.535 c 59.1379,38.3682 238.665,39.6674 300.888,1.69489 z" /><path
     inkscape:connector-curvature="0"
     style="fill:#b8864f;fill-rule:evenodd"
     id="path3991"
     mask="url(#id0)"
     d="m 349.645,187.813 -1.08071,22.7882 c -62.8667,37.1339 -239.232,35.8347 -298.909,-1.77048 l -0.89764,-22.7138 c 59.1367,38.3694 238.663,39.6674 300.888,1.69607 z" /></g><g
   inkscape:groupmode="layer"
   id="layer2"
   inkscape:label="Lid"
   style="display:inline"><ellipse
     sodipodi:ry="49.761501"
     sodipodi:rx="171.314"
     sodipodi:cy="100.38"
     sodipodi:cx="200.24699"
     d="m 371.56099,100.38 c 0,27.48252 -76.69989,49.7615 -171.314,49.7615 -94.6141,0 -171.313991,-22.27898 -171.313991,-49.7615 0,-27.482521 76.699891,-49.761504 171.313991,-49.761504 94.61411,0 171.314,22.278983 171.314,49.761504 z"
     style="fill:#e7a359;fill-rule:evenodd;stroke:#000000;stroke-width:2.36221004"
     id="ellipse3985"
     ry="49.761501"
     rx="171.314"
     cy="100.38"
     cx="200.24699" /><path
     inkscape:connector-curvature="0"
     style="fill:#c77620;fill-rule:evenodd;stroke:#000000;stroke-width:2.36221004"
     id="path3987"
     d="m 370.71,95.4002 c 0.5941,1.03701 0.8941,2.63741 0.85158,4.97954 0,27.4831 -76.6998,49.7623 -171.315,49.7623 -94.6136,0 -171.315004,-22.2792 -171.315004,-49.7623 0,-2.27245 0.287008,-3.84686 0.82323,-4.88623 -0.539765,1.60866 -0.82323,3.23741 -0.82323,4.88623 l 0,57.0178 c 0,75.7998 340.178004,77.8891 341.593004,0 l 1.03583,-57.0178 c 0,-1.68071 -0.29056,-3.34135 -0.85158,-4.97954 z" /><path
     inkscape:connector-curvature="0"
     style="fill:#87492c;fill-rule:evenodd"
     id="path3997"
     d="m 337.862,130.02 c -31.219,12.2091 -81.234,20.1213 -137.614,20.1213 -94.6159,0 -171.316,-22.278 -171.316,-49.7611 0,-15.6591 24.9107,-29.6268 63.8411,-38.7485 -21.1666,8.27836 -33.6934,18.5327 -33.6934,29.6375 0,27.4831 76.7009,49.7623 171.315,49.7623 40.6997,0 78.0769,-4.12442 107.468,-11.0114 z" /><path
     inkscape:connector-curvature="0"
     style="fill:#ffffff;fill-opacity:0.50196078;fill-rule:evenodd"
     id="path4013"
     d="m 200.248,50.6186 c 94.6136,0 171.313,22.2792 171.313,49.7611 0,13.2969 -17.9622,25.3737 -47.2158,34.2993 13.1977,-7.41734 20.6552,-15.8339 20.6552,-24.7595 0,-29.8312 -83.2573,-54.0155 -185.96,-54.0155 -11.8748,0 -23.4898,0.323623 -34.7469,0.94134 l -1.81418,-0.814962 c 23.3386,-3.45946 49.7682,-5.41182 77.7687,-5.41182 z" /></g><g
   inkscape:groupmode="layer"
   id="layer3"
   inkscape:label="Latch"
   style="display:inline"><rect
     style="fill:#4d4d4d;fill-rule:evenodd;stroke:#000000;stroke-width:2.36221004"
     id="rect3995"
     y="149.063"
     x="164.597"
     height="65.295403"
     width="63.595901" /><rect
     style="fill:#000000;fill-rule:evenodd;stroke:#000000;stroke-width:2.36221004"
     id="rect3999"
     y="152.741"
     x="186.48599"
     height="48.5508"
     width="13.6854" /><polygon
     style="fill:#999999;fill-rule:evenodd;stroke:#000000;stroke-width:2.36221004"
     id="polygon4015"
     points="182.192,76.4931 164.598,149.062 228.518,149.062 212.876,76.4931 " /></g><g
   inkscape:groupmode="layer"
   id="layer4"
   inkscape:label="Lock"
   style="display:inline"><path
     inkscape:connector-curvature="0"
     style="fill:#d2d3d5;fill-rule:evenodd;stroke:#000000;stroke-width:5.90551996"
     id="path4001"
     d="m 242.191,242.087 c 8.72128,8.93151 13.9772,20.4603 13.9772,33.0485 0,28.3619 -26.6729,51.3544 -59.5761,51.3544 -32.9032,0 -59.5761,-22.9926 -59.5761,-51.3544 0,-13.3559 5.91733,-25.5178 15.6118,-34.6524 l 0.0484,-30.9969 c 0.77834,-23.2016 19.8284,-41.7721 43.219,-41.7721 23.4969,0 42.6143,18.7406 43.2296,42.0887 l 0.007,29.6646 c 1.04882,0.84331 2.0693,1.71615 3.05906,2.61969 z m -82.3844,-7.10316 c 10.4433,-6.53978 22.9997,-10.3547 36.5091,-10.3547 13.1114,0 25.3252,3.59174 35.5796,9.78073 l 0.0555,-24.6071 c -0.61299,-19.3867 -16.5201,-34.9146 -36.0556,-34.9146 -19.8532,0 -35.9587,16.037 -36.0733,35.8631 l -0.0154,24.2327 z" /><path
     inkscape:connector-curvature="0"
     style="fill:#000000;fill-rule:evenodd;display:inline"
     id="path4009"
     d="m 196.36,256.907 c 7.46576,0 13.5213,6.05552 13.5213,13.5225 0,5.5571 -3.35316,10.3288 -8.14726,12.4075 l 1.90394,3.68977 6.70986,12.9945 -13.4197,0 -13.4197,0 6.70986,-12.9945 1.71496,-3.3189 c -5.29607,-1.83307 -9.09569,-6.8634 -9.09569,-12.7784 0,-7.46694 6.05552,-13.5225 13.5225,-13.5225 z" /></g><g
   inkscape:groupmode="layer"
   id="layer5"
   inkscape:label="Latch Above Lock"><rect
     style="fill-rule:evenodd;display:inline;fill:url(#linearGradient3025);stroke:#000000;stroke-width:2.36221003999999990"
     id="rect4011"
     y="152.741"
     x="189.418"
     height="48.5508"
     width="13.6854" /></g></svg>