<?xml version="1.0" encoding="UTF-8" standalone="no"?>
<!-- Created with Inkscape (http://www.inkscape.org/) -->

<svg
   xmlns:dc="http://purl.org/dc/elements/1.1/"
   xmlns:cc="http://creativecommons.org/ns#"
   xmlns:rdf="http://www.w3.org/1999/02/22-rdf-syntax-ns#"
   xmlns:svg="http://www.w3.org/2000/svg"
   xmlns="http://www.w3.org/2000/svg"
   version="1.1"
   width="200"
   height="250"
   viewBox="0 0 200 250.001"
   id="svg2"
   xml:space="preserve"
   style="fill-rule:evenodd"><metadata
   id="metadata42"><rdf:RDF><cc:Work
       rdf:about=""><dc:format>image/svg+xml</dc:format><dc:type
         rdf:resource="http://purl.org/dc/dcmitype/StillImage" /><dc:title></dc:title></cc:Work></rdf:RDF></metadata>
 <defs
   id="defs4">
  <style
   type="text/css"
   id="style6" />
    <mask
   id="id0">
  <linearGradient
   x1="100.879"
   y1="99.363403"
   x2="101.597"
   y2="150.37801"
   id="id1"
   gradientUnits="userSpaceOnUse">
   <stop
   id="stop10"
   style="stop-color:#ffffff;stop-opacity:1"
   offset="0" />
   <stop
   id="stop12"
   style="stop-color:#ffffff;stop-opacity:0"
   offset="1" />
  </linearGradient>
     <rect
   width="124.314"
   height="163.689"
   x="39.080601"
   y="43.025501"
   id="rect14"
   style="fill:url(#id1)" />
    </mask>
    <mask
   id="id2">
  <linearGradient
   x1="92.157402"
   y1="142.104"
   x2="110.318"
   y2="107.637"
   id="id3"
   gradientUnits="userSpaceOnUse">
   <stop
   id="stop18"
   style="stop-color:#ffffff;stop-opacity:1"
   offset="0" />
   <stop
   id="stop20"
   style="stop-color:#ffffff;stop-opacity:0"
   offset="1" />
  </linearGradient>
     <rect
   width="124.314"
   height="163.689"
   x="39.080601"
   y="43.025501"
   id="rect22"
   style="fill:url(#id3)" />
    </mask>
    <mask
   id="id4">
  <linearGradient
   x1="50.7854"
   y1="178.716"
   x2="155.418"
   y2="97.6661"
   id="id5"
   gradientUnits="userSpaceOnUse">
   <stop
   id="stop26"
   style="stop-color:#ffffff;stop-opacity:1"
   offset="0" />
   <stop
   id="stop28"
   style="stop-color:#ffffff;stop-opacity:0"
   offset="1" />
  </linearGradient>
     <rect
   width="115.356"
   height="72.621803"
   x="45.4244"
   y="101.88"
   id="rect30"
   style="fill:url(#id5)" />
    </mask>
 </defs>
 <g
   id="Слой_x0020_1">
  <metadata
   id="CorelCorpID_0Corel-Layer" />
  <g
   id="_343298240">
   <path
   d="m 146.552,119.886 c 8.66582,8.87487 13.8899,20.3328 13.8899,32.842 0,28.1849 -26.5065,51.0335 -59.2044,51.0335 -32.6979,0 -59.2044,-22.8486 -59.2044,-51.0335 0,-13.2722 5.87957,-25.3585 15.5139,-34.4353 l 0.04843,-30.8046 c 0.773628,-23.0553 19.7045,-41.5102 42.949904,-41.5102 23.3494,0 42.3476,18.6226 42.9594,41.8255 l 0.006,29.4794 c 1.04292,0.83859 2.0575,1.70553 3.04136,2.60317 z m -81.8699,-7.05832 c 10.3772,-6.49966 22.8557,-10.291 36.2814,-10.291 13.0277,0 25.1659,3.56932 35.3566,9.72055 l 0.0555,-24.4537 c -0.60945,-19.2663 -16.4175,-34.6975 -35.8302,-34.6975 -19.729298,0 -35.734498,15.9379 -35.847898,35.64 l -0.01535,24.0817 z"
   id="_274578864"
   style="fill:#d2d3d5;stroke:#000000;stroke-width:5.90556002" />
   <path
   d="m 146.552,119.886 c 8.66582,8.87487 13.8899,20.3328 13.8899,32.842 0,28.1849 -26.5065,51.0335 -59.2044,51.0335 -32.6979,0 -59.2044,-22.8486 -59.2044,-51.0335 0,-13.2722 5.87957,-25.3585 15.5139,-34.4353 l 0.04843,-30.8046 c 0.773628,-23.0553 19.7045,-41.5102 42.949904,-41.5102 23.3494,0 42.3476,18.6226 42.9594,41.8255 l 0.006,29.4794 c 1.04292,0.83859 2.0575,1.70553 3.04136,2.60317 z m -81.8699,-7.05832 c 10.3772,-6.49966 22.8557,-10.291 36.2814,-10.291 13.0277,0 25.1659,3.56932 35.3566,9.72055 l 0.0555,-24.4537 c -0.60945,-19.2663 -16.4175,-34.6975 -35.8302,-34.6975 -19.729298,0 -35.734498,15.9379 -35.847898,35.64 l -0.01535,24.0817 z"
   mask="url(#id0)"
   id="_343297616"
   style="fill:#666666;stroke:#000000;stroke-width:5.90556002" />
   <path
   d="m 146.552,119.886 c 8.66582,8.87487 13.8899,20.3328 13.8899,32.842 0,28.1849 -26.5065,51.0335 -59.2044,51.0335 -32.6979,0 -59.2044,-22.8486 -59.2044,-51.0335 0,-13.2722 5.87957,-25.3585 15.5139,-34.4353 l 0.04843,-30.8046 c 0.773628,-23.0553 19.7045,-41.5102 42.949904,-41.5102 23.3494,0 42.3476,18.6226 42.9594,41.8255 l 0.006,29.4794 c 1.04292,0.83859 2.0575,1.70553 3.04136,2.60317 z m -81.8699,-7.05832 c 10.3772,-6.49966 22.8557,-10.291 36.2814,-10.291 13.0277,0 25.1659,3.56932 35.3566,9.72055 l 0.0555,-24.4537 c -0.60945,-19.2663 -16.4175,-34.6975 -35.8302,-34.6975 -19.729298,0 -35.734498,15.9379 -35.847898,35.64 l -0.01535,24.0817 z"
   mask="url(#id2)"
   id="_343297664"
   style="fill:#4d4d4d;stroke:#000000;stroke-width:5.90556002" />
   <path
   d="m 145.913,120.154 c 8.53944,8.74613 13.6855,20.0352 13.6855,32.3613 0,7.41974 -1.86616,14.4639 -5.21343,20.8041 -45.4905,-5.60437 -83.957,-19.6254 -107.781,-38.4015 2.66104,-6.13588 6.6721,-11.7048 11.7225,-16.4363 l -0.09803,-0.20197 c 11.3706,-9.46661 26.3494,-15.2186 42.765702,-15.2186 17.4734,0 33.3203,6.51619 44.9189,17.093 z"
   mask="url(#id4)"
   id="_343298048"
   style="fill:#ffffff" />
   <path
   d="m 101.006,134.614 c 7.41974,0 13.4375,6.01776 13.4375,13.4375 0,5.52288 -3.3331,10.2639 -8.0977,12.3296 l 1.89332,3.66735 6.66738,12.9131 -13.3359,0 -13.3359,0 6.66856,-12.9131 1.70316,-3.29766 c -5.26303,-1.82246 -9.03905,-6.82092 -9.03905,-12.6993 0,-7.41974 6.01776,-13.4375 13.4387,-13.4375 z"
   id="_343298168"
   style="fill:#000000" />
  </g>
 </g>
</svg>