<?xml version="1.0" encoding="utf-8"?>
<!-- Generator: Adobe Illustrator 15.0.0, SVG Export Plug-In . SVG Version: 6.00 Build 0)  -->
<!DOCTYPE svg PUBLIC "-//W3C//DTD SVG 1.1//EN" "http://www.w3.org/Graphics/SVG/1.1/DTD/svg11.dtd">
<svg version="1.1"
	 id="svg2" sodipodi:docname="robot.svg" inkscape:version="0.48.2 r9819" xmlns:inkscape="http://www.inkscape.org/namespaces/inkscape" xmlns:sodipodi="http://sodipodi.sourceforge.net/DTD/sodipodi-0.dtd" xmlns:rdf="http://www.w3.org/1999/02/22-rdf-syntax-ns#" xmlns:svg="http://www.w3.org/2000/svg" xmlns:cc="http://creativecommons.org/ns#" xmlns:dc="http://purl.org/dc/elements/1.1/"
	 xmlns="http://www.w3.org/2000/svg" xmlns:xlink="http://www.w3.org/1999/xlink" x="0px" y="0px" width="64px" height="64px"
	 viewBox="0 0 64 64" enable-background="new 0 0 64 64" xml:space="preserve">
<sodipodi:namedview  gridtolerance="10" guidetolerance="10" id="namedview53" borderopacity="1" inkscape:pageshadow="2" objecttolerance="10" inkscape:pageopacity="0" inkscape:window-x="-8" inkscape:window-y="-8" inkscape:window-maximized="1" inkscape:current-layer="layer1" inkscape:window-width="1366" inkscape:window-height="716" showgrid="false" inkscape:zoom="7.3945083" inkscape:cx="33.240585" inkscape:cy="31.760032" bordercolor="#666666" pagecolor="#ffffff">
	</sodipodi:namedview>
<g id="layer1" inkscape:groupmode="layer" inkscape:label="Head and Neck">
	<path id="path34" inkscape:connector-curvature="0" fill="#808080" d="M11.547,12.097l-0.617,1.593
		c0.764,0.319,1.727,0.747,2.777,1.171l0.617-1.591C13.254,12.831,12.288,12.399,11.547,12.097L11.547,12.097z"/>
	<path id="path36" inkscape:connector-curvature="0" fill="#1A1A1A" d="M11.547,12.097l-0.299,0.799
		c0.764,0.319,1.727,0.747,2.777,1.17l0.298-0.797C13.254,12.831,12.288,12.399,11.547,12.097L11.547,12.097z"/>
	<path id="path40" inkscape:connector-curvature="0" d="M11.355,12.022l-0.618,1.593l-0.073,0.187l0.186,0.078
		c0.284,0.119,0.577,0.244,0.888,0.378c0.572,0.245,1.209,0.518,1.892,0.793l0.193,0.078l0.075-0.195l0.617-1.591l0.073-0.188
		l-0.188-0.077c-0.55-0.226-1.113-0.467-1.624-0.686c-0.41-0.175-0.785-0.336-1.152-0.486l-0.194-0.079L11.355,12.022L11.355,12.022
		z M11.194,13.577l0.469-1.209c0.276,0.115,0.603,0.255,0.952,0.405c0.436,0.187,0.912,0.391,1.444,0.61l-0.469,1.208
		c-0.599-0.244-1.17-0.49-1.689-0.712C11.649,13.771,11.41,13.668,11.194,13.577L11.194,13.577z"/>
	<path id="path42" inkscape:connector-curvature="0" fill="#D2D3D5" stroke="#000000" stroke-width="0.0095" d="M24.233,12.382
		c-0.994,5.354-9.453,1.017-12.807-0.335C-9.389,3.664,27.211-3.655,24.233,12.382z"/>
	<path id="path44" inkscape:connector-curvature="0" fill="#D2D3D5" d="M24.018,12.307c-0.973,5.239-9.25,0.995-12.532-0.328
		C-8.882,3.776,26.933-3.385,24.018,12.307z"/>
	<path id="path46" inkscape:connector-curvature="0" fill="#787878" d="M16.841,14.208c-2.083-0.682-4.126-1.642-5.416-2.162
		C-5.181,5.359,14.757-0.651,21.986,5.336C15.556,2.203,7.889,3.75,7.15,6.639C6.578,8.874,11.277,11.914,16.841,14.208z"/>
	<path id="path48" inkscape:connector-curvature="0" fill="#5DB4E5" stroke="#000000" stroke-width="0.0095" d="M24.271,11.73
		l-0.003,0.017c-0.33-0.039-0.668-0.086-1.014-0.145c-3.361-0.571-6.087-1.891-6.087-2.949c0-1.059,2.726-1.454,6.087-0.883
		c0.204,0.035,0.405,0.072,0.604,0.112C24.373,8.908,24.559,10.179,24.271,11.73L24.271,11.73z"/>
	<path id="path86" inkscape:connector-curvature="0" fill="#467DC0" stroke="#000000" stroke-width="0.0095" d="M24.277,11.73
		l-0.004,0.017c-0.33-0.039-0.668-0.086-1.014-0.145c-3.362-0.571-6.087-1.891-6.087-2.949c0-1.059,2.725-1.454,6.087-0.883
		c0.204,0.035,0.405,0.072,0.604,0.112C24.379,8.908,24.565,10.179,24.277,11.73L24.277,11.73z"/>
	<path id="path88" inkscape:connector-curvature="0" fill="#FFFFFF" d="M17.529,8.65c0.313-0.948,3.236-0.904,4.495-0.657
		c0.138,0.247,0.232,0.53,0.271,0.853C22.04,10.289,19.117,8.715,17.529,8.65L17.529,8.65z"/>
	<path id="path90" inkscape:connector-curvature="0" fill="#FFFFFF" d="M19.35,4.635c-1.873-0.597-4.65-1.035-7.226-0.593
		C8.932,4.589,6.236,6.301,8.171,8.52C5.723,4.05,16.453,5.708,19.554,6.506C23.701,7.574,21.225,5.233,19.35,4.635L19.35,4.635z"/>
</g>
<g id="layer2" inkscape:groupmode="layer" inkscape:label="Body">
	
		<circle id="circle10" sodipodi:ry="0.16874801" sodipodi:rx="0.16874801" sodipodi:cy="1.30922" sodipodi:cx="1.29941" fill="#3669F0" stroke="#000000" stroke-width="0.0197" cx="5.609" cy="26.019" r="3.319">
	</circle>
	<path id="path12" inkscape:connector-curvature="0" fill="#275C9C" d="M5.609,23.091c-1.617,0-2.928,1.311-2.928,2.928
		c0,1.618,1.311,2.928,2.928,2.928c0.163,0,0.322-0.013,0.477-0.039c-1.53-0.095-2.742-1.367-2.742-2.922
		c0-1.455,1.061-2.662,2.451-2.889C5.734,23.093,5.671,23.091,5.609,23.091L5.609,23.091z"/>
	<path id="path14" inkscape:connector-curvature="0" fill="#CCCCCC" d="M14.084,19.024c0.786,0.695,1.588,1.368,2.532,1.847
		c1.056,0.536,2.291,0.828,3.346,0.538c0.921-0.253,1.705-0.949,2.47-1.703l0.91,0.874c-0.784,0.767-1.458,1.38-2.28,1.826
		c-0.958,0.519-1.91,0.605-2.858,0.472s-1.894-0.488-2.958-1.148c-0.817-0.507-1.705-1.195-2.608-1.924L14.084,19.024L14.084,19.024
		z"/>
	<path id="path16" inkscape:connector-curvature="0" d="M23.729,19.82c0.559,0.216,1.209,0.178,1.759-0.162
		c0.93-0.576,1.219-1.796,0.643-2.727c-0.044-0.072-0.093-0.141-0.145-0.205l-0.169,0.238c0.007,0.011,0.014,0.022,0.021,0.033
		c0.409,0.661,0.205,1.528-0.456,1.937c-0.349,0.216-0.756,0.26-1.122,0.157L23.729,19.82L23.729,19.82z"/>
	<path id="path18" inkscape:connector-curvature="0" d="M24.112,16.373c-1.031,0.363-1.574,1.494-1.212,2.525
		c0.027,0.077,0.058,0.15,0.092,0.221l0.687-0.607c-0.252-0.73,0.134-1.528,0.864-1.785c0.366-0.129,0.75-0.097,1.075,0.059
		l0.228-0.207C25.35,16.258,24.714,16.161,24.112,16.373L24.112,16.373z"/>
	<path id="path20" inkscape:connector-curvature="0" d="M13.843,19.049c0.413,0.366,0.83,0.73,1.274,1.071
		c0.445,0.341,0.912,0.653,1.418,0.91c0.573,0.291,1.198,0.511,1.822,0.612c0.564,0.09,1.127,0.082,1.651-0.062
		c0.499-0.137,0.955-0.395,1.388-0.719c0.427-0.319,0.829-0.701,1.228-1.094l-0.25-0.254c-0.39,0.384-0.782,0.756-1.19,1.062
		c-0.401,0.3-0.82,0.538-1.269,0.662c-0.472,0.129-0.984,0.136-1.5,0.052c-0.585-0.094-1.175-0.303-1.718-0.578
		c-0.487-0.247-0.935-0.546-1.362-0.874c-0.428-0.329-0.842-0.69-1.255-1.056L13.843,19.049L13.843,19.049z"/>
	<path id="path22" inkscape:connector-curvature="0" d="M12.227,19.706c0.475,0.384,0.961,0.776,1.453,1.149l0,0
		c0.491,0.373,0.985,0.725,1.471,1.026c0.495,0.306,1.014,0.568,1.531,0.769c0.508,0.197,1.015,0.336,1.497,0.404
		c0.491,0.069,0.983,0.081,1.478,0.009c0.495-0.073,0.992-0.23,1.491-0.5c0.439-0.238,0.835-0.521,1.227-0.847
		c0.386-0.322,0.769-0.689,1.185-1.097l-0.25-0.254c-0.408,0.4-0.784,0.761-1.164,1.078c-0.375,0.313-0.752,0.583-1.167,0.808
		c-0.459,0.248-0.917,0.393-1.375,0.46c-0.458,0.067-0.916,0.056-1.374-0.009c-0.455-0.064-0.935-0.196-1.417-0.384
		c-0.495-0.192-0.995-0.443-1.472-0.74c-0.475-0.295-0.96-0.64-1.444-1.007v0c-0.485-0.368-0.97-0.759-1.444-1.142L12.227,19.706
		L12.227,19.706z"/>
	
		<rect id="rect24" x="22.588" y="18.66" transform="matrix(0.6867 -0.727 0.727 0.6867 -7.0195 23.0761)" fill="#808080" width="1.346" height="2.044"/>
	<polygon id="polygon26" fill="#1A1A1A" points="24.466,19.894 24.004,20.383 22.519,18.98 22.98,18.49 	"/>
	<path id="path28" inkscape:connector-curvature="0" d="M22.308,19.461l0.679-0.719l1.227,1.158l-0.68,0.72L22.308,19.461z
		 M22.851,18.368l-0.925,0.978l-0.122,0.13l0.13,0.122l1.485,1.404l0.129,0.123l0.123-0.13l0.924-0.978l0.123-0.129l-0.129-0.123
		l-1.485-1.404l-0.13-0.122L22.851,18.368L22.851,18.368z"/>
	
		<circle id="circle30" sodipodi:ry="0.051192898" sodipodi:rx="0.051192898" sodipodi:cy="0" sodipodi:cx="0" fill="#147AB4" stroke="#000000" stroke-width="0.0079" cx="23.653" cy="19.227" r="0.93">
	</circle>
	<path id="path32" inkscape:connector-curvature="0" fill="#FFFFFF" d="M23.27,18.564c-0.34,0.203-0.465,0.628-0.299,0.979
		c0.292-0.052,0.595-0.164,0.885-0.336c0.176-0.105,0.334-0.226,0.474-0.356l-0.013-0.022C24.101,18.467,23.632,18.349,23.27,18.564
		L23.27,18.564z"/>
	<path id="path38" inkscape:connector-curvature="0" fill="#333333" d="M8.354,12.52L4.367,19.95l-1.942,3.62
		c0.434,0.608,0.979,1.188,1.608,1.717c3.012,2.524,7.97,3.85,12.055,1.24l0.554-10.637c-2.292-0.681-4.62-1.785-6.037-2.355
		C9.759,13.193,9.017,12.854,8.354,12.52L8.354,12.52z"/>
	<path id="path50" inkscape:connector-curvature="0" fill="#CCCCCC" d="M8.301,12.52L4.314,19.95l-1.942,3.62
		c0.434,0.608,0.979,1.188,1.608,1.717c3.013,2.524,7.97,3.85,12.055,1.24l0.554-10.637c-2.292-0.681-4.621-1.785-6.038-2.355
		C9.706,13.193,8.964,12.854,8.301,12.52L8.301,12.52z"/>
	<path id="path52" inkscape:connector-curvature="0" d="M8.106,12.52L4.119,19.95l-1.942,3.62c0.434,0.608,0.979,1.188,1.608,1.717
		c3.012,2.525,7.97,3.85,12.055,1.24l0.554-10.637c-2.292-0.681-4.622-1.785-6.039-2.355C9.51,13.193,8.769,12.854,8.106,12.52
		L8.106,12.52z"/>
	<path id="path54" inkscape:connector-curvature="0" fill="#333333" d="M11.493,20.466c0.795,0.795,1.912,1.295,2.515,1.173
		c0.929-0.189,1.425-1.612,1.107-3.179c-0.157-0.771-0.481-1.434-0.882-1.885C12.322,14.419,8.702,17.675,11.493,20.466
		L11.493,20.466z"/>
	<path id="path56" inkscape:connector-curvature="0" fill="#1A1A1A" d="M7.437,14.189c5.339,1.31-2.432,7.408,8.791,8.646
		l0.393-6.945c-2.292-0.681-4.621-1.785-6.038-2.355c-0.846-0.341-1.587-0.68-2.25-1.015L7.437,14.189L7.437,14.189z"/>
	<path id="path58" inkscape:connector-curvature="0" fill="#FFFFFF" d="M8.301,12.52L4.314,19.95l-1.942,3.62
		c0.434,0.608,0.979,1.188,1.608,1.717c3.013,2.524,7.97,3.85,12.055,1.24l0.554-10.637c-2.292-0.681-4.621-1.785-6.038-2.355
		C9.706,13.193,8.964,12.854,8.301,12.52L8.301,12.52z"/>
	<path id="path60" inkscape:connector-curvature="0" fill="#D2D3D5" d="M8.114,12.52L4.127,19.95l-1.942,3.62
		c0.434,0.608,0.979,1.188,1.608,1.717c3.012,2.524,7.97,3.85,12.055,1.24l0.554-10.637c-2.292-0.681-4.621-1.785-6.038-2.355
		C9.518,13.193,8.776,12.854,8.114,12.52L8.114,12.52z"/>
	<path id="path62" inkscape:connector-curvature="0" fill="none" d="M7.402,14.631c4.546,1.302-2.869,7.372,8.854,8.66"/>
	<path id="path64" inkscape:connector-curvature="0" fill="#FFFFFF" d="M7.834,15.183L2.816,24.32l2.927,2.065l2.964-9.737
		c-0.162-0.101-0.097-0.659-0.366-0.857C8.167,15.663,8.053,15.349,7.834,15.183L7.834,15.183z"/>
	<path id="path66" inkscape:connector-curvature="0" fill="#666666" d="M6.992,15.003c1.686,0.482,1.667,1.656,1.647,2.988
		c-0.034,2.224-0.074,4.873,7.222,5.674l0.017-0.164c-7.146-0.786-7.107-3.352-7.074-5.508c0.021-1.4,0.04-2.632-1.767-3.15
		L6.992,15.003L6.992,15.003z"/>
	<path id="path70" inkscape:connector-curvature="0" fill="#CCCCCC" d="M14.995,21.161c0.531,1.089,1.087,2.164,1.882,3.093
		c0.89,1.04,2.078,1.898,3.331,2.057c1.095,0.139,2.24-0.257,3.391-0.72l0.583,1.335c-1.177,0.47-2.167,0.826-3.242,0.936
		c-1.251,0.129-2.306-0.201-3.258-0.764c-0.953-0.563-1.804-1.36-2.646-2.537c-0.647-0.902-1.289-2.03-1.929-3.208L14.995,21.161
		L14.995,21.161z"/>
	<path id="path72" inkscape:connector-curvature="0" fill="#CCCCCC" d="M11.988,20.28c0.708,0.708,1.703,1.155,2.24,1.045
		c0.828-0.168,1.27-1.437,0.986-2.833c-0.139-0.688-0.429-1.277-0.785-1.68C12.727,14.894,9.501,17.794,11.988,20.28L11.988,20.28z"
		/>
	<path id="path74" inkscape:connector-curvature="0" d="M11.842,20.426c0.367,0.367,0.808,0.667,1.228,0.863
		c0.436,0.204,0.859,0.296,1.172,0.243h0.002l0.024-0.005c0.491-0.1,0.862-0.509,1.064-1.09c0.189-0.543,0.232-1.246,0.085-1.978
		l0,0l0,0l-0.002-0.007c-0.072-0.354-0.182-0.684-0.319-0.977c-0.144-0.309-0.32-0.579-0.514-0.798
		c-0.625-0.706-1.438-0.827-2.146-0.571c-0.312,0.112-0.603,0.298-0.846,0.539c-0.243,0.24-0.44,0.536-0.565,0.869
		C10.707,18.355,10.842,19.427,11.842,20.426L11.842,20.426z M13.245,20.916c-0.379-0.177-0.778-0.448-1.111-0.782h0
		c-0.864-0.864-0.989-1.771-0.723-2.475c0.104-0.276,0.268-0.521,0.47-0.722c0.201-0.198,0.44-0.352,0.695-0.443
		c0.559-0.202,1.202-0.104,1.699,0.456c0.169,0.191,0.322,0.428,0.449,0.7c0.124,0.264,0.223,0.56,0.288,0.877h0v0l0.001,0.006
		c0.134,0.661,0.098,1.289-0.069,1.768c-0.154,0.443-0.418,0.752-0.754,0.821l-0.001,0C13.959,21.17,13.616,21.089,13.245,20.916
		L13.245,20.916z"/>
	<path id="path76" inkscape:connector-curvature="0" fill="#FFFFFF" d="M13.176,16.514c-1.11-0.058-2.331,1.572-1.397,2.884
		c-0.006-1.826,3.838,0.695,2.794-1.72C14.374,17.218,13.953,16.554,13.176,16.514L13.176,16.514z"/>
	<path id="path78" inkscape:connector-curvature="0" d="M25.031,26.323c0.316,0.617,0.907,1.083,1.643,1.211
		c1.246,0.217,2.431-0.616,2.648-1.861c0.016-0.096,0.027-0.192,0.032-0.287l-0.33,0.075c-0.002,0.015-0.004,0.03-0.007,0.045
		c-0.155,0.884-0.997,1.475-1.88,1.321c-0.467-0.082-0.853-0.355-1.09-0.725L25.031,26.323L25.031,26.323z"/>
	<path id="path80" inkscape:connector-curvature="0" d="M26.162,22.186c-1.231,0.288-1.995,1.519-1.706,2.75
		c0.021,0.091,0.047,0.18,0.079,0.266l0.863-0.612c-0.197-0.871,0.344-1.739,1.214-1.943c0.438-0.103,0.874-0.019,1.228,0.201
		l0.288-0.209C27.596,22.208,26.879,22.018,26.162,22.186L26.162,22.186z"/>
	<path id="path82" inkscape:connector-curvature="0" d="M14.727,21.081c0.279,0.574,0.562,1.147,0.885,1.708
		c0.323,0.562,0.683,1.102,1.109,1.6c0.482,0.564,1.051,1.077,1.672,1.46c0.562,0.347,1.166,0.588,1.788,0.667
		c0.593,0.076,1.194,0.003,1.799-0.15c0.597-0.152,1.195-0.38,1.794-0.623l-0.155-0.382c-0.585,0.237-1.168,0.46-1.74,0.605
		c-0.562,0.143-1.113,0.21-1.647,0.143c-0.56-0.071-1.11-0.291-1.624-0.609c-0.583-0.36-1.119-0.844-1.575-1.378
		c-0.41-0.479-0.756-0.998-1.066-1.537c-0.311-0.54-0.592-1.109-0.87-1.682L14.727,21.081L14.727,21.081z"/>
	
		<rect id="rect92" x="23.715" y="24.751" transform="matrix(0.9132 -0.4075 0.4075 0.9132 -8.4409 12.2308)" fill="#808080" width="1.555" height="2.361"/>
	<polygon id="polygon94" fill="#1A1A1A" points="25.684,26.692 24.974,27.008 24.012,24.854 24.722,24.537 	"/>
	<path id="path96" inkscape:connector-curvature="0" d="M23.574,25.274l1.044-0.465l0.794,1.779l-1.044,0.466L23.574,25.274
		L23.574,25.274z M24.638,24.349l-1.42,0.634l-0.188,0.084l0.084,0.188l0.962,2.156l0.083,0.188l0.188-0.084l1.421-0.634
		l0.188-0.084l-0.084-0.188l-0.962-2.155l-0.084-0.188L24.638,24.349L24.638,24.349z"/>
	<path id="path98" inkscape:connector-curvature="0" fill="#666666" d="M15.065,21.81c-0.393,0.236-0.618,0.369-1.088,0.458
		c-0.054,0.011-0.093,0.016-0.128,0.008l-0.039-0.066h0c-0.251-0.43-0.199-0.354-0.44-0.797c0.326,0.116,0.632,0.161,0.873,0.121
		h0.002l0.024-0.005c0.203-0.041,0.384-0.135,0.543-0.271l0.007,0.014l0.001,0.002l0.007,0.016l0.005,0.009l0.002,0.006l0.007,0.014
		l0.004,0.006l0.003,0.007c0.077,0.157,0.154,0.314,0.233,0.47L15.065,21.81L15.065,21.81z"/>
	
		<circle id="circle100" sodipodi:ry="0.054621302" sodipodi:rx="0.054621302" sodipodi:cy="1.28891" sodipodi:cx="0.30783501" fill="#147AB4" stroke="#000000" stroke-width="0.0079" cx="25.112" cy="25.62" r="1.074">
	</circle>
	<path id="path102" inkscape:connector-curvature="0" fill="#FFFFFF" d="M24.998,24.744c-0.452,0.065-0.775,0.464-0.754,0.911
		c0.334,0.074,0.708,0.09,1.093,0.034c0.235-0.034,0.458-0.092,0.663-0.169l-0.003-0.029C25.926,25.008,25.479,24.674,24.998,24.744
		z"/>
</g>
<g id="layer1_1_" inkscape:groupmode="layer" inkscape:label="Head and Neck">
	<path id="path34_1_" inkscape:connector-curvature="0" fill="#808080" d="M43.142,12.288l-0.57,1.472
		c0.706,0.296,1.596,0.69,2.566,1.083l0.57-1.472C44.72,12.965,43.827,12.567,43.142,12.288L43.142,12.288z"/>
	<path id="path36_1_" inkscape:connector-curvature="0" fill="#1A1A1A" d="M43.142,12.288l-0.276,0.738
		c0.706,0.295,1.597,0.69,2.567,1.082l0.275-0.737C44.72,12.965,43.826,12.567,43.142,12.288L43.142,12.288z"/>
	<path id="path40_1_" inkscape:connector-curvature="0" d="M42.964,12.218l-0.57,1.473l-0.067,0.173l0.171,0.072
		c0.264,0.109,0.533,0.225,0.822,0.35c0.528,0.226,1.117,0.479,1.748,0.732l0.178,0.072l0.07-0.18l0.57-1.471l0.067-0.174
		l-0.173-0.071c-0.51-0.208-1.029-0.432-1.502-0.634c-0.379-0.162-0.725-0.311-1.064-0.45l-0.18-0.073L42.964,12.218L42.964,12.218z
		 M42.815,13.655l0.434-1.117c0.256,0.105,0.557,0.235,0.88,0.373c0.403,0.174,0.843,0.361,1.335,0.564l-0.434,1.117
		c-0.553-0.225-1.082-0.452-1.562-0.658C43.236,13.834,43.015,13.741,42.815,13.655L42.815,13.655z"/>
	<path id="path42_1_" inkscape:connector-curvature="0" fill="#D2D3D5" stroke="#000000" stroke-width="0.0095" d="M54.869,12.551
		c-0.92,4.949-8.739,0.939-11.84-0.311C23.788,4.492,57.622-2.274,54.869,12.551z"/>
	<path id="path44_1_" inkscape:connector-curvature="0" fill="#D2D3D5" d="M54.67,12.481c-0.899,4.844-8.55,0.92-11.585-0.303
		C24.257,4.596,57.364-2.024,54.67,12.481z"/>
	<path id="path46_1_" inkscape:connector-curvature="0" fill="#787878" d="M48.035,14.239c-1.925-0.63-3.813-1.518-5.006-1.998
		c-15.352-6.182,3.08-11.738,9.763-6.204c-5.944-2.896-13.031-1.466-13.715,1.205C38.548,9.308,42.892,12.118,48.035,14.239z"/>
	<path id="path48_1_" inkscape:connector-curvature="0" fill="#5DB4E5" stroke="#000000" stroke-width="0.0095" d="M54.903,11.949
		L54.9,11.964c-0.305-0.036-0.618-0.08-0.938-0.134c-3.107-0.528-5.627-1.749-5.627-2.727c0-0.979,2.52-1.344,5.627-0.816
		c0.188,0.032,0.375,0.066,0.559,0.104C54.998,9.339,55.17,10.515,54.903,11.949L54.903,11.949z"/>
	<path id="path86_1_" inkscape:connector-curvature="0" fill="#467DC0" stroke="#000000" stroke-width="0.0095" d="M54.909,11.949
		l-0.003,0.016c-0.305-0.036-0.618-0.08-0.938-0.134c-3.107-0.528-5.627-1.749-5.627-2.727c0-0.979,2.52-1.344,5.627-0.816
		c0.188,0.032,0.375,0.066,0.559,0.104C55.004,9.339,55.176,10.515,54.909,11.949L54.909,11.949z"/>
	<path id="path88_1_" inkscape:connector-curvature="0" fill="#FFFFFF" d="M48.672,9.101c0.289-0.876,2.991-0.835,4.154-0.607
		c0.127,0.228,0.215,0.49,0.25,0.789C52.841,10.616,50.14,9.161,48.672,9.101L48.672,9.101z"/>
	<path id="path90_1_" inkscape:connector-curvature="0" fill="#FFFFFF" d="M50.354,5.389c-1.731-0.552-4.299-0.957-6.68-0.548
		c-2.951,0.506-5.442,2.089-3.654,4.14c-2.264-4.132,7.656-2.599,10.522-1.861C54.377,8.106,52.088,5.942,50.354,5.389L50.354,5.389
		z"/>
</g>
<circle id="circle10_1_" sodipodi:ry="0.16874801" sodipodi:rx="0.16874801" sodipodi:cy="1.30922" sodipodi:cx="1.29941" fill="#3669F0" stroke="#000000" stroke-width="0.0197" cx="37.652" cy="25.157" r="3.068">
</circle>
<path id="path12_1_" inkscape:connector-curvature="0" fill="#275C9C" d="M37.652,22.451c-1.495,0-2.706,1.212-2.706,2.706
	c0,1.496,1.211,2.707,2.706,2.707c0.15,0,0.298-0.012,0.44-0.035c-1.414-0.089-2.534-1.265-2.534-2.701
	c0-1.346,0.98-2.461,2.267-2.672C37.768,22.452,37.71,22.451,37.652,22.451L37.652,22.451z"/>
<path id="path14_1_" inkscape:connector-curvature="0" fill="#CCCCCC" d="M45.57,20.383c0.901,0.354,1.81,0.687,2.783,0.805
	c1.085,0.131,2.251-0.004,3.075-0.589c0.721-0.51,1.182-1.362,1.609-2.259l1.066,0.472c-0.439,0.914-0.831,1.659-1.404,2.306
	c-0.668,0.753-1.468,1.129-2.335,1.312c-0.866,0.184-1.8,0.174-2.934-0.062c-0.868-0.184-1.857-0.501-2.872-0.85L45.57,20.383
	L45.57,20.383z"/>
<path id="path16_1_" inkscape:connector-curvature="0" d="M54.199,18.029c0.555,0.012,1.108-0.227,1.479-0.695
	c0.626-0.795,0.491-1.946-0.302-2.573c-0.062-0.048-0.126-0.091-0.192-0.131l-0.071,0.26c0.01,0.007,0.02,0.016,0.029,0.022
	c0.563,0.445,0.66,1.262,0.215,1.828c-0.235,0.297-0.574,0.464-0.925,0.49L54.199,18.029L54.199,18.029z"/>
<path id="path18_1_" inkscape:connector-curvature="0" d="M53.445,14.913c-0.782,0.641-0.896,1.795-0.256,2.578
	c0.049,0.058,0.098,0.112,0.15,0.163l0.404-0.745c-0.448-0.555-0.366-1.369,0.188-1.823c0.277-0.228,0.621-0.321,0.951-0.289
	l0.134-0.251C54.483,14.423,53.901,14.54,53.445,14.913L53.445,14.913z"/>
<path id="path20_1_" inkscape:connector-curvature="0" d="M45.369,20.481c0.473,0.188,0.951,0.372,1.444,0.529
	c0.495,0.155,0.999,0.279,1.52,0.342c0.59,0.071,1.202,0.065,1.776-0.043c0.519-0.1,1.006-0.285,1.415-0.575
	c0.391-0.277,0.705-0.645,0.979-1.063c0.27-0.412,0.5-0.871,0.721-1.338l-0.297-0.143c-0.219,0.458-0.44,0.904-0.699,1.299
	c-0.254,0.388-0.542,0.728-0.894,0.975c-0.369,0.261-0.812,0.429-1.286,0.52c-0.539,0.103-1.116,0.108-1.675,0.04
	c-0.501-0.06-0.984-0.179-1.46-0.329c-0.477-0.15-0.949-0.334-1.424-0.522L45.369,20.481L45.369,20.481z"/>
<path id="path22_1_" inkscape:connector-curvature="0" d="M44.171,21.562c0.533,0.185,1.08,0.371,1.625,0.54h0.001
	c0.544,0.168,1.085,0.318,1.603,0.426c0.525,0.11,1.059,0.174,1.572,0.185c0.503,0.012,0.987-0.027,1.427-0.12
	c0.449-0.095,0.881-0.241,1.287-0.459c0.408-0.219,0.79-0.514,1.138-0.906c0.307-0.344,0.562-0.715,0.799-1.124
	c0.233-0.401,0.45-0.841,0.682-1.327l-0.297-0.142c-0.229,0.477-0.441,0.908-0.672,1.303c-0.226,0.391-0.47,0.745-0.758,1.071
	c-0.32,0.36-0.673,0.631-1.05,0.834c-0.376,0.203-0.776,0.336-1.196,0.426c-0.415,0.086-0.874,0.124-1.352,0.113
	c-0.491-0.011-1.005-0.071-1.513-0.178c-0.507-0.107-1.036-0.253-1.573-0.42v0.001c-0.536-0.166-1.083-0.353-1.615-0.536
	L44.171,21.562L44.171,21.562z"/>
<rect id="rect24_1_" x="53.128" y="17.112" transform="matrix(0.3964 -0.9181 0.9181 0.3964 15.8647 60.2439)" fill="#808080" width="1.244" height="1.888"/>
<polygon id="polygon26_1_" fill="#1A1A1A" points="54.864,17.861 54.617,18.432 52.884,17.682 53.13,17.11 "/>
<path id="path28_1_" inkscape:connector-curvature="0" d="M52.854,18.167l0.361-0.839l1.433,0.618l-0.364,0.841L52.854,18.167z
	 M52.98,17.044l-0.496,1.143l-0.065,0.151l0.152,0.064l1.732,0.751l0.152,0.065l0.065-0.151l0.493-1.142l0.065-0.151l-0.15-0.065
	l-1.734-0.752l-0.151-0.064L52.98,17.044L52.98,17.044z"/>
<circle id="circle30_1_" sodipodi:ry="0.051192898" sodipodi:rx="0.051192898" sodipodi:cy="0" sodipodi:cx="0" fill="#147AB4" stroke="#000000" stroke-width="0.0079" cx="53.947" cy="17.538" r="0.86">
</circle>
<path id="path32_1_" inkscape:connector-curvature="0" fill="#FFFFFF" d="M53.405,17.083c-0.231,0.284-0.206,0.692,0.048,0.945
	c0.237-0.137,0.467-0.33,0.663-0.572c0.12-0.147,0.22-0.302,0.299-0.459l-0.018-0.015C54.097,16.737,53.651,16.782,53.405,17.083
	L53.405,17.083z"/>
<path id="path38_1_" inkscape:connector-curvature="0" fill="#333333" d="M40.19,12.678l-3.686,6.869l-1.796,3.346
	c0.401,0.562,0.904,1.099,1.487,1.587c2.783,2.333,7.367,3.56,11.143,1.146l0.513-9.833c-2.118-0.629-4.271-1.65-5.581-2.178
	C41.488,13.301,40.802,12.988,40.19,12.678L40.19,12.678z"/>
<path id="path50_1_" inkscape:connector-curvature="0" fill="#CCCCCC" d="M40.142,12.678l-3.686,6.869l-1.796,3.346
	c0.401,0.562,0.905,1.099,1.487,1.587c2.784,2.333,7.367,3.56,11.144,1.146l0.512-9.833c-2.118-0.629-4.271-1.65-5.581-2.178
	C41.439,13.301,40.754,12.988,40.142,12.678L40.142,12.678z"/>
<path id="path52_1_" inkscape:connector-curvature="0" d="M39.96,12.678l-3.686,6.869l-1.795,3.346
	c0.4,0.562,0.904,1.099,1.486,1.587c2.785,2.334,7.368,3.56,11.145,1.146l0.512-9.833c-2.119-0.629-4.271-1.65-5.582-2.178
	C41.259,13.301,40.573,12.988,39.96,12.678L39.96,12.678z"/>
<path id="path54_1_" inkscape:connector-curvature="0" fill="#333333" d="M43.091,20.024c0.736,0.734,1.768,1.197,2.325,1.084
	c0.858-0.175,1.317-1.49,1.023-2.939c-0.146-0.712-0.444-1.324-0.815-1.742C43.858,14.434,40.511,17.444,43.091,20.024
	L43.091,20.024z"/>
<path id="path56_1_" inkscape:connector-curvature="0" fill="#1A1A1A" d="M39.342,14.221c4.935,1.211-2.249,6.848,8.126,7.992
	l0.364-6.42c-2.119-0.629-4.272-1.65-5.582-2.178c-0.782-0.314-1.468-0.628-2.08-0.938L39.342,14.221L39.342,14.221z"/>
<path id="path58_1_" inkscape:connector-curvature="0" fill="#FFFFFF" d="M40.142,12.678l-3.686,6.869l-1.796,3.346
	c0.401,0.562,0.905,1.099,1.487,1.587c2.784,2.333,7.367,3.56,11.144,1.146l0.512-9.833c-2.118-0.629-4.271-1.65-5.581-2.178
	C41.439,13.301,40.754,12.988,40.142,12.678L40.142,12.678z"/>
<path id="path60_1_" inkscape:connector-curvature="0" fill="#D2D3D5" d="M39.968,12.678l-3.686,6.869l-1.795,3.346
	c0.4,0.562,0.904,1.099,1.486,1.587c2.784,2.333,7.367,3.56,11.144,1.146l0.513-9.833c-2.119-0.629-4.271-1.65-5.582-2.178
	C41.266,13.301,40.58,12.988,39.968,12.678L39.968,12.678z"/>
<path id="path62_1_" inkscape:connector-curvature="0" fill="none" d="M39.31,14.629c4.203,1.204-2.652,6.814,8.186,8.006"/>
<path id="path64_1_" inkscape:connector-curvature="0" fill="#FFFFFF" d="M39.709,15.139l-4.639,8.447l2.706,1.909l2.74-9.001
	c-0.15-0.094-0.09-0.609-0.338-0.793C40.018,15.583,39.911,15.293,39.709,15.139L39.709,15.139z"/>
<path id="path66_1_" inkscape:connector-curvature="0" fill="#666666" d="M38.931,14.974c1.559,0.446,1.541,1.53,1.523,2.763
	c-0.031,2.056-0.069,4.504,6.676,5.244l0.016-0.15c-6.606-0.727-6.57-3.1-6.54-5.092c0.021-1.294,0.037-2.434-1.633-2.912
	L38.931,14.974L38.931,14.974z"/>
<path id="path70_1_" inkscape:connector-curvature="0" fill="#CCCCCC" d="M46.942,20.407c0.77,0.813,1.559,1.606,2.518,2.205
	c1.073,0.669,2.358,1.096,3.508,0.889c1.004-0.183,1.903-0.849,2.789-1.578l0.886,1.015c-0.907,0.742-1.68,1.33-2.598,1.726
	c-1.068,0.461-2.089,0.463-3.086,0.232c-0.996-0.233-1.969-0.698-3.038-1.502c-0.821-0.616-1.7-1.432-2.592-2.293L46.942,20.407
	L46.942,20.407z"/>
<path id="path72_1_" inkscape:connector-curvature="0" fill="#CCCCCC" d="M43.549,19.852c0.655,0.654,1.574,1.067,2.071,0.967
	c0.766-0.156,1.174-1.328,0.912-2.619c-0.129-0.635-0.396-1.181-0.727-1.553C44.231,14.873,41.25,17.554,43.549,19.852
	L43.549,19.852z"/>
<path id="path74_1_" inkscape:connector-curvature="0" d="M43.415,19.987c0.339,0.339,0.746,0.616,1.135,0.798
	c0.402,0.188,0.794,0.274,1.083,0.225h0.002l0.022-0.005c0.454-0.092,0.797-0.471,0.984-1.007c0.174-0.503,0.215-1.151,0.078-1.829
	l0,0l0,0l-0.002-0.006c-0.066-0.327-0.168-0.632-0.295-0.903c-0.133-0.285-0.295-0.535-0.475-0.737
	c-0.578-0.653-1.33-0.765-1.984-0.529c-0.289,0.104-0.558,0.276-0.782,0.499c-0.225,0.222-0.407,0.495-0.522,0.804
	C42.365,18.073,42.49,19.063,43.415,19.987L43.415,19.987z M44.711,20.44c-0.351-0.164-0.72-0.414-1.027-0.723h0.001
	c-0.799-0.799-0.914-1.639-0.669-2.289c0.097-0.254,0.247-0.481,0.435-0.666c0.186-0.184,0.406-0.326,0.643-0.41
	c0.516-0.188,1.11-0.098,1.57,0.422c0.156,0.176,0.298,0.395,0.416,0.646c0.113,0.244,0.205,0.518,0.266,0.811h-0.001v0.001
	l0.001,0.006c0.125,0.61,0.091,1.191-0.063,1.635c-0.143,0.409-0.387,0.695-0.697,0.759h-0.001
	C45.372,20.674,45.054,20.6,44.711,20.44L44.711,20.44z"/>
<path id="path76_1_" inkscape:connector-curvature="0" fill="#FFFFFF" d="M44.647,16.371c-1.025-0.054-2.154,1.454-1.291,2.667
	c-0.006-1.689,3.548,0.642,2.582-1.591C45.755,17.021,45.366,16.408,44.647,16.371L44.647,16.371z"/>
<path id="path78_1_" inkscape:connector-curvature="0" d="M57.225,22.169c0.45,0.457,1.101,0.702,1.784,0.611
	c1.159-0.154,1.973-1.218,1.818-2.376c-0.013-0.089-0.028-0.176-0.052-0.261l-0.27,0.157c0.002,0.014,0.005,0.028,0.006,0.043
	c0.109,0.821-0.469,1.577-1.291,1.687c-0.435,0.057-0.85-0.076-1.162-0.336L57.225,22.169L57.225,22.169z"/>
<path id="path80_1_" inkscape:connector-curvature="0" d="M56.072,18.208c-1.006,0.595-1.337,1.894-0.74,2.898
	c0.044,0.075,0.092,0.146,0.143,0.212l0.592-0.779c-0.415-0.713-0.18-1.628,0.531-2.05c0.357-0.212,0.764-0.259,1.138-0.164
	l0.195-0.264C57.343,17.828,56.657,17.86,56.072,18.208L56.072,18.208z"/>
<path id="path82_1_" inkscape:connector-curvature="0" d="M46.238,20.264c0.405,0.429,0.813,0.855,1.255,1.259
	c0.44,0.406,0.907,0.782,1.421,1.102c0.581,0.364,1.228,0.658,1.881,0.823c0.592,0.151,1.191,0.195,1.762,0.091
	c0.544-0.098,1.054-0.329,1.545-0.632c0.483-0.3,0.947-0.667,1.409-1.048l-0.242-0.294c-0.451,0.372-0.902,0.731-1.367,1.017
	c-0.455,0.282-0.924,0.496-1.412,0.584c-0.514,0.092-1.061,0.052-1.601-0.085c-0.614-0.155-1.222-0.433-1.771-0.777
	c-0.495-0.309-0.945-0.671-1.368-1.06c-0.424-0.389-0.83-0.813-1.234-1.241L46.238,20.264L46.238,20.264z"/>
<rect id="rect92_1_" x="55.922" y="20.883" transform="matrix(0.7483 -0.6634 0.6634 0.7483 -0.3206 43.1033)" fill="#808080" width="1.437" height="2.182"/>
<polygon id="polygon94_1_" fill="#1A1A1A" points="57.903,22.314 57.364,22.79 55.917,21.157 56.455,20.681 "/>
<path id="path96_1_" inkscape:connector-curvature="0" d="M55.648,21.649l0.791-0.701l1.194,1.348l-0.79,0.702L55.648,21.649
	L55.648,21.649z M56.329,20.538l-1.075,0.953l-0.143,0.126l0.126,0.143l1.447,1.634l0.126,0.143l0.143-0.127l1.076-0.953
	l0.142-0.126l-0.126-0.143l-1.447-1.633l-0.126-0.143L56.329,20.538L56.329,20.538z"/>
<path id="path98_1_" inkscape:connector-curvature="0" fill="#666666" d="M46.841,20.846c-0.363,0.218-0.57,0.34-1.006,0.423
	c-0.049,0.01-0.085,0.015-0.118,0.007l-0.036-0.061l0,0c-0.232-0.397-0.184-0.328-0.407-0.736c0.302,0.106,0.585,0.148,0.807,0.111
	h0.002l0.022-0.006c0.188-0.037,0.355-0.125,0.502-0.25l0.006,0.012l0.002,0.002l0.006,0.016l0.005,0.008l0.003,0.006l0.006,0.013
	l0.004,0.006l0.002,0.007c0.071,0.145,0.143,0.289,0.216,0.434L46.841,20.846L46.841,20.846z"/>
<circle id="circle100_1_" sodipodi:ry="0.054621302" sodipodi:rx="0.054621302" sodipodi:cy="1.28891" sodipodi:cx="0.30783501" fill="#147AB4" stroke="#000000" stroke-width="0.0079" cx="57.101" cy="21.527" r="0.993">
</circle>
<path id="path102_1_" inkscape:connector-curvature="0" fill="#FFFFFF" d="M56.757,20.786c-0.381,0.184-0.555,0.625-0.412,1.014
	c0.315-0.028,0.649-0.119,0.973-0.274c0.199-0.096,0.379-0.209,0.538-0.334l-0.011-0.024C57.648,20.761,57.161,20.591,56.757,20.786
	z"/>
<path id="path34_2_" inkscape:connector-curvature="0" fill="#808080" d="M12.132,41l-0.223,1.562
	c0.755,0.129,1.711,0.312,2.746,0.474l0.222-1.562C13.823,41.303,12.863,41.117,12.132,41L12.132,41z"/>
<path id="path36_2_" inkscape:connector-curvature="0" fill="#1A1A1A" d="M12.132,41l-0.102,0.782
	c0.755,0.127,1.711,0.311,2.746,0.472l0.101-0.78C13.823,41.303,12.862,41.117,12.132,41L12.132,41z"/>
<path id="path40_2_" inkscape:connector-curvature="0" d="M11.944,40.973l-0.223,1.563l-0.026,0.184l0.183,0.032
	c0.281,0.047,0.57,0.098,0.879,0.154c0.566,0.1,1.197,0.213,1.869,0.317l0.19,0.03l0.027-0.191l0.222-1.562l0.026-0.185l-0.185-0.03
	c-0.543-0.087-1.1-0.188-1.606-0.277c-0.406-0.071-0.777-0.138-1.14-0.197l-0.191-0.03L11.944,40.973L11.944,40.973z M12.125,42.406
	l0.169-1.187c0.272,0.045,0.595,0.103,0.941,0.164c0.432,0.077,0.903,0.16,1.428,0.247l-0.169,1.187
	c-0.59-0.094-1.156-0.195-1.67-0.287C12.575,42.485,12.338,42.444,12.125,42.406L12.125,42.406z"/>
<path id="path42_2_" inkscape:connector-curvature="0" fill="#D2D3D5" stroke="#000000" stroke-width="0.0095" d="M23.615,38.601
	c0.225,5.028-8.299,2.895-11.602,2.38C-8.484,37.791,22.938,23.537,23.615,38.601z"/>
<path id="path44_2_" inkscape:connector-curvature="0" fill="#D2D3D5" d="M23.405,38.577c0.221,4.922-8.12,2.833-11.352,2.329
	C-8.004,37.787,22.743,23.838,23.405,38.577z"/>
<path id="path46_2_" inkscape:connector-curvature="0" fill="#787878" d="M17.341,41.792c-2.018-0.177-4.059-0.614-5.328-0.812
	c-16.353-2.544,0.341-12.131,8.104-8.254C13.67,31.251,7.091,34.25,7.03,37.007C6.983,39.139,11.851,40.892,17.341,41.792z"/>
<path id="path48_2_" inkscape:connector-curvature="0" fill="#5DB4E5" stroke="#000000" stroke-width="0.0095" d="M23.512,38.006
	l0,0.016c-0.305,0.034-0.62,0.062-0.943,0.082c-3.146,0.19-5.876-0.428-6.098-1.381s2.149-1.88,5.295-2.07
	c0.191-0.011,0.38-0.02,0.568-0.025C23.013,35.442,23.446,36.548,23.512,38.006L23.512,38.006z"/>
<path id="path86_2_" inkscape:connector-curvature="0" fill="#467DC0" stroke="#000000" stroke-width="0.0095" d="M23.518,38.004
	l0,0.017c-0.305,0.033-0.62,0.062-0.943,0.082c-3.146,0.19-5.877-0.428-6.099-1.381s2.15-1.88,5.296-2.07
	c0.191-0.011,0.38-0.021,0.567-0.025C23.019,35.441,23.452,36.547,23.518,38.004L23.518,38.004z"/>
<path id="path88_2_" inkscape:connector-curvature="0" fill="#FFFFFF" d="M16.797,36.643c0.083-0.918,2.724-1.49,3.909-1.532
	c0.175,0.193,0.32,0.429,0.422,0.712C21.201,37.175,18.24,36.369,16.797,36.643L16.797,36.643z"/>
<path id="path90_2_" inkscape:connector-curvature="0" fill="#FFFFFF" d="M17.595,32.647c-1.812-0.146-4.404,0.041-6.63,0.979
	c-2.759,1.162-4.828,3.269-2.622,4.86c-3.141-3.513,6.868-4.266,9.828-4.196C22.128,34.382,19.409,32.793,17.595,32.647
	L17.595,32.647z"/>
<circle id="circle10_2_" sodipodi:ry="0.16874801" sodipodi:rx="0.16874801" sodipodi:cy="1.30922" sodipodi:cx="1.29941" fill="#3669F0" stroke="#000000" stroke-width="0.0197" cx="5.919" cy="53.283" r="3.068">
</circle>
<path id="path12_2_" inkscape:connector-curvature="0" fill="#275C9C" d="M5.919,50.577c-1.495,0-2.707,1.212-2.707,2.706
	c0,1.496,1.211,2.707,2.707,2.707c0.15,0,0.297-0.012,0.441-0.035c-1.415-0.089-2.535-1.265-2.535-2.701
	c0-1.346,0.98-2.461,2.266-2.672C6.035,50.578,5.977,50.577,5.919,50.577L5.919,50.577z"/>
<path id="path14_2_" inkscape:connector-curvature="0" fill="#CCCCCC" d="M13.754,46.817c0.727,0.642,1.468,1.265,2.341,1.708
	c0.976,0.494,2.117,0.765,3.092,0.496c0.852-0.233,1.576-0.877,2.284-1.573l0.841,0.808c-0.725,0.709-1.348,1.275-2.107,1.688
	c-0.885,0.479-1.766,0.56-2.643,0.436c-0.877-0.123-1.75-0.451-2.735-1.061c-0.755-0.469-1.576-1.105-2.411-1.779L13.754,46.817
	L13.754,46.817z"/>
<path id="path16_2_" inkscape:connector-curvature="0" d="M22.669,47.553c0.517,0.201,1.118,0.165,1.626-0.148
	c0.86-0.533,1.126-1.661,0.595-2.521c-0.041-0.066-0.086-0.129-0.135-0.188l-0.156,0.22c0.007,0.011,0.014,0.021,0.02,0.031
	c0.378,0.611,0.189,1.412-0.422,1.791c-0.322,0.199-0.699,0.24-1.037,0.145L22.669,47.553L22.669,47.553z"/>
<path id="path18_2_" inkscape:connector-curvature="0" d="M23.025,44.366c-0.954,0.335-1.456,1.381-1.121,2.335
	c0.025,0.07,0.054,0.139,0.086,0.204l0.635-0.562c-0.232-0.675,0.123-1.412,0.799-1.649c0.338-0.119,0.693-0.09,0.993,0.054
	l0.211-0.19C24.167,44.26,23.581,44.171,23.025,44.366L23.025,44.366z"/>
<path id="path20_2_" inkscape:connector-curvature="0" d="M13.531,46.841c0.382,0.339,0.768,0.675,1.178,0.99
	c0.412,0.315,0.843,0.604,1.311,0.841c0.53,0.269,1.108,0.473,1.685,0.566c0.521,0.083,1.043,0.076,1.526-0.057
	c0.461-0.127,0.883-0.365,1.282-0.665c0.395-0.295,0.768-0.647,1.135-1.012l-0.23-0.235c-0.361,0.355-0.723,0.699-1.101,0.982
	c-0.371,0.277-0.759,0.498-1.173,0.611c-0.437,0.119-0.91,0.126-1.387,0.049c-0.541-0.087-1.086-0.279-1.588-0.534
	c-0.45-0.228-0.865-0.505-1.26-0.808c-0.396-0.304-0.778-0.639-1.16-0.977L13.531,46.841L13.531,46.841z"/>
<path id="path22_2_" inkscape:connector-curvature="0" d="M12.037,47.447c0.439,0.355,0.889,0.718,1.343,1.062h0
	c0.454,0.345,0.911,0.67,1.36,0.948c0.457,0.283,0.937,0.525,1.416,0.711c0.469,0.183,0.938,0.312,1.383,0.374
	c0.454,0.064,0.909,0.074,1.366,0.008c0.458-0.066,0.917-0.213,1.378-0.463c0.406-0.219,0.772-0.48,1.135-0.783
	c0.356-0.297,0.711-0.637,1.094-1.014l-0.23-0.235c-0.377,0.37-0.725,0.703-1.076,0.996c-0.346,0.29-0.695,0.539-1.078,0.747
	c-0.425,0.229-0.848,0.363-1.271,0.426c-0.423,0.062-0.846,0.051-1.27-0.008c-0.42-0.061-0.864-0.182-1.31-0.355
	c-0.458-0.178-0.919-0.41-1.361-0.684c-0.439-0.273-0.887-0.592-1.335-0.932v0.001c-0.448-0.34-0.897-0.702-1.335-1.056
	L12.037,47.447L12.037,47.447z"/>
<rect id="rect24_2_" x="21.615" y="46.48" transform="matrix(0.6868 -0.7268 0.7268 0.6868 -27.5056 31.016)" fill="#808080" width="1.244" height="1.889"/>
<polygon id="polygon26_2_" fill="#1A1A1A" points="23.351,47.621 22.923,48.073 21.551,46.776 21.978,46.324 "/>
<path id="path28_2_" inkscape:connector-curvature="0" d="M21.357,47.222l0.627-0.665l1.135,1.07l-0.629,0.666L21.357,47.222z
	 M21.859,46.211l-0.855,0.904l-0.113,0.12l0.121,0.112l1.372,1.298l0.12,0.113l0.113-0.12l0.854-0.904l0.113-0.119l-0.119-0.113
	l-1.373-1.299l-0.12-0.112L21.859,46.211L21.859,46.211z"/>
<circle id="circle30_2_" sodipodi:ry="0.051192898" sodipodi:rx="0.051192898" sodipodi:cy="0" sodipodi:cx="0" fill="#147AB4" stroke="#000000" stroke-width="0.0079" cx="22.599" cy="47.005" r="0.86">
</circle>
<path id="path32_2_" inkscape:connector-curvature="0" fill="#FFFFFF" d="M22.246,46.393c-0.314,0.188-0.43,0.58-0.277,0.904
	c0.27-0.048,0.551-0.15,0.818-0.311c0.163-0.098,0.309-0.209,0.438-0.329l-0.012-0.021C23.013,46.303,22.58,46.193,22.246,46.393
	L22.246,46.393z"/>
<path id="path38_2_" inkscape:connector-curvature="0" fill="#333333" d="M8.457,40.805l-3.686,6.869L2.976,51.02
	c0.401,0.562,0.904,1.099,1.487,1.587c2.784,2.333,7.368,3.56,11.144,1.146l0.512-9.833c-2.119-0.629-4.271-1.65-5.582-2.178
	C9.755,41.428,9.069,41.114,8.457,40.805L8.457,40.805z"/>
<path id="path50_2_" inkscape:connector-curvature="0" fill="#CCCCCC" d="M8.408,40.805l-3.686,6.869L2.927,51.02
	c0.401,0.562,0.905,1.099,1.487,1.587c2.785,2.333,7.368,3.56,11.144,1.146l0.512-9.833c-2.119-0.629-4.271-1.65-5.582-2.178
	C9.707,41.428,9.021,41.114,8.408,40.805L8.408,40.805z"/>
<path id="path52_2_" inkscape:connector-curvature="0" d="M8.228,40.805l-3.686,6.869L2.747,51.02
	c0.401,0.562,0.905,1.099,1.487,1.587c2.785,2.334,7.368,3.56,11.144,1.146l0.512-9.833c-2.119-0.629-4.272-1.65-5.582-2.178
	C9.526,41.428,8.84,41.114,8.228,40.805L8.228,40.805z"/>
<path id="path54_2_" inkscape:connector-curvature="0" fill="#333333" d="M11.358,48.15c0.735,0.734,1.767,1.197,2.325,1.084
	c0.859-0.175,1.317-1.49,1.023-2.939c-0.145-0.712-0.445-1.324-0.815-1.742C12.125,42.561,8.778,45.57,11.358,48.15L11.358,48.15z"
	/>
<path id="path56_2_" inkscape:connector-curvature="0" fill="#1A1A1A" d="M7.609,42.348c4.935,1.211-2.249,6.848,8.126,7.992
	l0.364-6.42c-2.119-0.629-4.272-1.65-5.582-2.178c-0.782-0.314-1.467-0.628-2.08-0.938L7.609,42.348L7.609,42.348z"/>
<path id="path58_2_" inkscape:connector-curvature="0" fill="#FFFFFF" d="M8.408,40.805l-3.686,6.869L2.927,51.02
	c0.401,0.562,0.905,1.099,1.487,1.587c2.785,2.333,7.368,3.56,11.144,1.146l0.512-9.833c-2.119-0.629-4.271-1.65-5.582-2.178
	C9.707,41.428,9.021,41.114,8.408,40.805L8.408,40.805z"/>
<path id="path60_2_" inkscape:connector-curvature="0" fill="#D2D3D5" d="M8.235,40.805l-3.686,6.869L2.754,51.02
	c0.401,0.562,0.905,1.099,1.487,1.587c2.784,2.333,7.368,3.56,11.144,1.146l0.512-9.833c-2.119-0.629-4.271-1.65-5.582-2.178
	C9.533,41.428,8.847,41.114,8.235,40.805L8.235,40.805z"/>
<path id="path62_2_" inkscape:connector-curvature="0" fill="none" d="M7.577,42.756c4.203,1.204-2.652,6.814,8.186,8.006"/>
<path id="path64_2_" inkscape:connector-curvature="0" fill="#FFFFFF" d="M7.976,43.266l-4.639,8.447l2.706,1.909l2.74-9.001
	c-0.15-0.094-0.089-0.609-0.338-0.793C8.285,43.71,8.178,43.42,7.976,43.266L7.976,43.266z"/>
<path id="path66_2_" inkscape:connector-curvature="0" fill="#666666" d="M7.198,43.101c1.558,0.446,1.542,1.53,1.523,2.763
	c-0.031,2.056-0.069,4.504,6.676,5.244l0.016-0.15c-6.606-0.727-6.57-3.1-6.54-5.092c0.02-1.294,0.037-2.434-1.633-2.912
	L7.198,43.101L7.198,43.101z"/>
<path id="path70_2_" inkscape:connector-curvature="0" fill="#CCCCCC" d="M14.56,49.02c0.148,1.11,0.323,2.215,0.749,3.263
	c0.477,1.171,1.269,2.27,2.321,2.775c0.92,0.44,2.04,0.428,3.185,0.356l0.122,1.342c-1.169,0.069-2.141,0.093-3.116-0.124
	c-1.136-0.252-1.964-0.849-2.636-1.62c-0.67-0.772-1.186-1.72-1.582-2.998c-0.304-0.98-0.539-2.157-0.756-3.377L14.56,49.02
	L14.56,49.02z"/>
<path id="path72_2_" inkscape:connector-curvature="0" fill="#CCCCCC" d="M11.816,47.979c0.655,0.654,1.574,1.067,2.071,0.967
	c0.765-0.156,1.174-1.328,0.912-2.619c-0.129-0.635-0.396-1.181-0.726-1.553C12.499,42.999,9.517,45.681,11.816,47.979
	L11.816,47.979z"/>
<path id="path74_2_" inkscape:connector-curvature="0" d="M11.682,48.113c0.339,0.339,0.747,0.616,1.135,0.798
	c0.403,0.188,0.794,0.274,1.083,0.225h0.002l0.022-0.005c0.454-0.092,0.797-0.471,0.984-1.007c0.174-0.503,0.215-1.151,0.079-1.829
	l0,0l0,0l-0.001-0.006c-0.067-0.327-0.168-0.632-0.295-0.903c-0.133-0.285-0.295-0.535-0.475-0.737
	c-0.579-0.653-1.33-0.765-1.984-0.529c-0.289,0.104-0.558,0.276-0.782,0.499c-0.225,0.222-0.407,0.495-0.522,0.804
	C10.632,46.199,10.757,47.189,11.682,48.113L11.682,48.113z M12.978,48.566c-0.351-0.164-0.719-0.414-1.027-0.723h0
	c-0.799-0.799-0.914-1.639-0.668-2.289c0.096-0.254,0.248-0.481,0.435-0.666c0.186-0.184,0.407-0.326,0.642-0.41
	c0.517-0.188,1.111-0.098,1.571,0.422c0.156,0.176,0.298,0.395,0.416,0.646c0.114,0.244,0.206,0.518,0.266,0.811h0v0.001
	l0.001,0.006c0.124,0.61,0.09,1.191-0.064,1.635c-0.143,0.409-0.387,0.695-0.697,0.759H13.85
	C13.639,48.801,13.321,48.727,12.978,48.566L12.978,48.566z"/>
<path id="path76_2_" inkscape:connector-curvature="0" fill="#FFFFFF" d="M12.915,44.497c-1.026-0.054-2.155,1.454-1.292,2.667
	c-0.006-1.689,3.548,0.642,2.583-1.591C14.022,45.147,13.633,44.534,12.915,44.497L12.915,44.497z"/>
<path id="path78_2_" inkscape:connector-curvature="0" d="M21.858,56.475c0.097,0.634,0.481,1.214,1.088,1.541
	c1.029,0.554,2.312,0.17,2.866-0.859c0.042-0.08,0.08-0.16,0.111-0.242l-0.311-0.031c-0.006,0.013-0.013,0.025-0.02,0.039
	c-0.393,0.729-1.305,1.003-2.035,0.609c-0.385-0.208-0.644-0.56-0.745-0.953L21.858,56.475L21.858,56.475z"/>
<path id="path80_2_" inkscape:connector-curvature="0" d="M24.057,53.176c-1.164-0.107-2.193,0.751-2.298,1.914
	c-0.008,0.087-0.011,0.173-0.008,0.256l0.936-0.285c0.082-0.82,0.81-1.425,1.632-1.35c0.414,0.038,0.771,0.237,1.019,0.534
	l0.313-0.1C25.309,53.612,24.735,53.236,24.057,53.176L24.057,53.176z"/>
<path id="path82_2_" inkscape:connector-curvature="0" d="M14.348,48.871c0.077,0.586,0.159,1.171,0.279,1.756
	c0.12,0.587,0.278,1.166,0.506,1.727c0.258,0.635,0.608,1.252,1.042,1.77c0.391,0.469,0.851,0.855,1.374,1.105
	c0.498,0.24,1.046,0.352,1.623,0.394c0.567,0.041,1.158,0.015,1.755-0.023l-0.024-0.381c-0.583,0.037-1.159,0.063-1.703,0.022
	c-0.534-0.037-1.039-0.139-1.487-0.354c-0.47-0.227-0.889-0.58-1.247-1.008c-0.406-0.486-0.735-1.066-0.98-1.668
	c-0.22-0.54-0.372-1.097-0.487-1.66c-0.116-0.563-0.196-1.146-0.272-1.729L14.348,48.871L14.348,48.871z"/>
<rect id="rect92_2_" x="20.781" y="54.883" transform="matrix(0.9951 -0.0985 0.0985 0.9951 -5.4104 2.3907)" fill="#808080" width="1.437" height="2.182"/>
<polygon id="polygon94_2_" fill="#1A1A1A" points="22.323,56.989 21.608,57.06 21.393,54.889 22.108,54.817 "/>
<path id="path96_2_" inkscape:connector-curvature="0" d="M20.887,55.13l1.051-0.104l0.178,1.792l-1.052,0.105L20.887,55.13
	L20.887,55.13z M22.09,54.628l-1.431,0.142l-0.189,0.019l0.018,0.189l0.216,2.172l0.018,0.189l0.189-0.02l1.431-0.141l0.188-0.02
	l-0.018-0.189l-0.216-2.171l-0.019-0.189L22.09,54.628L22.09,54.628z"/>
<path id="path98_2_" inkscape:connector-curvature="0" fill="#666666" d="M14.661,49.393c-0.363,0.218-0.571,0.34-1.006,0.423
	c-0.05,0.01-0.085,0.015-0.119,0.007L13.5,49.762h0c-0.232-0.397-0.184-0.328-0.407-0.736c0.302,0.106,0.584,0.148,0.807,0.111
	h0.002l0.022-0.006c0.188-0.037,0.355-0.125,0.502-0.25l0.006,0.012l0.001,0.002l0.007,0.016l0.004,0.008l0.002,0.006l0.006,0.013
	l0.003,0.006l0.003,0.007c0.071,0.145,0.143,0.289,0.215,0.434L14.661,49.393L14.661,49.393z"/>
<circle id="circle100_2_" sodipodi:ry="0.054621302" sodipodi:rx="0.054621302" sodipodi:cy="1.28891" sodipodi:cx="0.30783501" fill="#147AB4" stroke="#000000" stroke-width="0.0079" cx="22.135" cy="55.881" r="0.993">
</circle>
<path id="path102_2_" inkscape:connector-curvature="0" fill="#FFFFFF" d="M22.291,55.08c-0.416-0.075-0.815,0.181-0.928,0.579
	c0.271,0.162,0.595,0.284,0.948,0.349c0.218,0.039,0.43,0.052,0.632,0.044l0.005-0.025C23.027,55.582,22.732,55.159,22.291,55.08z"
	/>
<g id="layer1_2_" inkscape:groupmode="layer" inkscape:label="Head and Neck">
	<path id="path34_3_" inkscape:connector-curvature="0" fill="#808080" d="M43.374,40.375l-0.571,1.472
		c0.707,0.296,1.597,0.69,2.567,1.083l0.57-1.472C44.951,41.053,44.059,40.654,43.374,40.375L43.374,40.375z"/>
	<path id="path36_3_" inkscape:connector-curvature="0" fill="#1A1A1A" d="M43.374,40.375l-0.276,0.738
		c0.707,0.295,1.596,0.69,2.567,1.082l0.275-0.737C44.951,41.053,44.059,40.654,43.374,40.375L43.374,40.375z"/>
	<path id="path40_3_" inkscape:connector-curvature="0" d="M43.197,40.306l-0.571,1.473l-0.067,0.173l0.172,0.072
		c0.262,0.109,0.533,0.225,0.82,0.35c0.529,0.226,1.119,0.479,1.749,0.732l0.179,0.072l0.069-0.18l0.57-1.471l0.067-0.174
		l-0.174-0.071c-0.508-0.208-1.028-0.432-1.501-0.634c-0.379-0.162-0.726-0.311-1.065-0.45l-0.179-0.073L43.197,40.306
		L43.197,40.306z M43.048,41.742l0.434-1.117c0.255,0.105,0.557,0.235,0.88,0.373c0.403,0.174,0.844,0.361,1.335,0.564l-0.434,1.117
		c-0.554-0.225-1.082-0.452-1.562-0.658C43.469,41.922,43.248,41.828,43.048,41.742L43.048,41.742z"/>
	<path id="path42_3_" inkscape:connector-curvature="0" fill="#D2D3D5" stroke="#000000" stroke-width="0.0095" d="M55.102,40.639
		c-0.92,4.949-8.739,0.939-11.84-0.311C24.02,32.579,57.854,25.813,55.102,40.639z"/>
	<path id="path44_3_" inkscape:connector-curvature="0" fill="#D2D3D5" d="M54.902,40.568c-0.899,4.844-8.551,0.92-11.584-0.303
		C24.489,32.684,57.597,26.063,54.902,40.568z"/>
	<path id="path46_3_" inkscape:connector-curvature="0" fill="#787878" d="M48.268,42.326c-1.926-0.63-3.814-1.518-5.006-1.998
		c-15.352-6.182,3.08-11.738,9.763-6.203c-5.944-2.897-13.032-1.467-13.716,1.204C38.78,37.396,43.124,40.205,48.268,42.326z"/>
	<path id="path48_3_" inkscape:connector-curvature="0" fill="#5DB4E5" stroke="#000000" stroke-width="0.0095" d="M55.136,40.036
		l-0.003,0.016c-0.305-0.036-0.618-0.08-0.938-0.134c-3.107-0.527-5.627-1.748-5.627-2.727s2.52-1.344,5.627-0.816
		c0.188,0.032,0.375,0.066,0.559,0.104C55.23,37.427,55.402,38.602,55.136,40.036L55.136,40.036z"/>
	<path id="path86_3_" inkscape:connector-curvature="0" fill="#467DC0" stroke="#000000" stroke-width="0.0095" d="M55.142,40.036
		l-0.003,0.016c-0.305-0.036-0.618-0.08-0.938-0.134c-3.107-0.527-5.627-1.748-5.627-2.727s2.52-1.344,5.627-0.816
		c0.188,0.032,0.375,0.066,0.559,0.104C55.236,37.427,55.408,38.602,55.142,40.036L55.142,40.036z"/>
	<path id="path88_3_" inkscape:connector-curvature="0" fill="#FFFFFF" d="M48.904,37.188c0.289-0.875,2.991-0.835,4.154-0.607
		c0.127,0.229,0.215,0.49,0.25,0.789C53.073,38.703,50.372,37.248,48.904,37.188L48.904,37.188z"/>
	<path id="path90_3_" inkscape:connector-curvature="0" fill="#FFFFFF" d="M50.587,33.477c-1.731-0.552-4.299-0.957-6.68-0.549
		c-2.95,0.507-5.442,2.09-3.654,4.141c-2.263-4.133,7.655-2.6,10.522-1.861C54.609,36.193,52.32,34.029,50.587,33.477L50.587,33.477
		z"/>
</g>
<g id="layer2_1_" inkscape:groupmode="layer" inkscape:label="Body">
	
		<circle id="circle10_3_" sodipodi:ry="0.16874801" sodipodi:rx="0.16874801" sodipodi:cy="1.30922" sodipodi:cx="1.29941" fill="#3669F0" stroke="#000000" stroke-width="0.0197" cx="37.885" cy="53.244" r="3.068">
	</circle>
	<path id="path12_3_" inkscape:connector-curvature="0" fill="#275C9C" d="M37.885,50.538c-1.495,0-2.707,1.212-2.707,2.706
		c0,1.496,1.212,2.707,2.707,2.707c0.15,0,0.297-0.012,0.441-0.035c-1.415-0.089-2.535-1.265-2.535-2.701
		c0-1.346,0.98-2.461,2.266-2.672C38,50.539,37.942,50.538,37.885,50.538L37.885,50.538z"/>
	<path id="path14_3_" inkscape:connector-curvature="0" fill="#CCCCCC" d="M45.719,46.778c0.727,0.642,1.469,1.265,2.342,1.708
		c0.976,0.494,2.117,0.765,3.092,0.496c0.852-0.233,1.576-0.877,2.284-1.573l0.841,0.808c-0.725,0.709-1.348,1.275-2.107,1.688
		c-0.885,0.479-1.766,0.56-2.643,0.436c-0.877-0.123-1.75-0.451-2.734-1.061c-0.756-0.469-1.576-1.105-2.412-1.779L45.719,46.778
		L45.719,46.778z"/>
	<path id="path16_3_" inkscape:connector-curvature="0" d="M54.635,47.514c0.517,0.201,1.118,0.165,1.626-0.148
		c0.86-0.533,1.126-1.661,0.595-2.521c-0.041-0.066-0.086-0.129-0.135-0.188l-0.156,0.22c0.007,0.011,0.014,0.021,0.02,0.031
		c0.378,0.611,0.189,1.412-0.422,1.791c-0.322,0.199-0.699,0.24-1.037,0.145L54.635,47.514L54.635,47.514z"/>
	<path id="path18_3_" inkscape:connector-curvature="0" d="M54.99,44.327c-0.954,0.335-1.456,1.381-1.121,2.335
		c0.025,0.07,0.054,0.139,0.086,0.204l0.635-0.562c-0.232-0.675,0.123-1.412,0.799-1.649c0.338-0.119,0.693-0.09,0.993,0.054
		l0.211-0.19C56.133,44.221,55.546,44.132,54.99,44.327L54.99,44.327z"/>
	<path id="path20_3_" inkscape:connector-curvature="0" d="M45.496,46.802c0.383,0.339,0.768,0.675,1.179,0.99
		s0.843,0.604,1.311,0.841c0.53,0.269,1.108,0.473,1.685,0.566c0.521,0.083,1.043,0.076,1.526-0.057
		c0.461-0.127,0.883-0.365,1.282-0.665c0.395-0.295,0.768-0.647,1.135-1.012l-0.23-0.235c-0.361,0.355-0.723,0.699-1.101,0.982
		c-0.371,0.277-0.759,0.498-1.173,0.611c-0.437,0.119-0.91,0.126-1.387,0.049c-0.541-0.087-1.086-0.279-1.588-0.534
		c-0.45-0.228-0.865-0.505-1.26-0.808c-0.396-0.304-0.778-0.639-1.16-0.977L45.496,46.802L45.496,46.802z"/>
	<path id="path22_3_" inkscape:connector-curvature="0" d="M44.002,47.408c0.439,0.355,0.889,0.718,1.344,1.062l0,0
		c0.454,0.345,0.91,0.67,1.359,0.948c0.457,0.283,0.938,0.525,1.416,0.711c0.469,0.183,0.938,0.312,1.383,0.374
		c0.454,0.064,0.909,0.074,1.366,0.008c0.458-0.066,0.917-0.213,1.378-0.463c0.406-0.219,0.772-0.48,1.135-0.783
		c0.356-0.297,0.711-0.637,1.094-1.014l-0.23-0.235c-0.377,0.37-0.725,0.703-1.076,0.996c-0.346,0.29-0.695,0.539-1.078,0.747
		c-0.425,0.229-0.848,0.363-1.271,0.426c-0.423,0.062-0.846,0.051-1.27-0.008c-0.42-0.061-0.864-0.182-1.31-0.355
		c-0.458-0.178-0.919-0.41-1.361-0.684c-0.438-0.273-0.888-0.592-1.335-0.932v0.001c-0.448-0.34-0.896-0.702-1.335-1.056
		L44.002,47.408L44.002,47.408z"/>
	
		<rect id="rect24_3_" x="53.581" y="46.441" transform="matrix(0.6868 -0.7268 0.7268 0.6868 -17.466 54.2374)" fill="#808080" width="1.244" height="1.889"/>
	<polygon id="polygon26_3_" fill="#1A1A1A" points="55.316,47.582 54.889,48.034 53.517,46.737 53.943,46.285 	"/>
	<path id="path28_3_" inkscape:connector-curvature="0" d="M53.322,47.183l0.627-0.665l1.135,1.07l-0.629,0.666L53.322,47.183z
		 M53.824,46.172l-0.855,0.904l-0.113,0.12l0.121,0.112l1.372,1.298l0.12,0.113l0.113-0.12l0.854-0.904l0.113-0.119l-0.119-0.113
		l-1.373-1.299l-0.12-0.112L53.824,46.172L53.824,46.172z"/>
	
		<circle id="circle30_3_" sodipodi:ry="0.051192898" sodipodi:rx="0.051192898" sodipodi:cy="0" sodipodi:cx="0" fill="#147AB4" stroke="#000000" stroke-width="0.0079" cx="54.564" cy="46.966" r="0.86">
	</circle>
	<path id="path32_3_" inkscape:connector-curvature="0" fill="#FFFFFF" d="M54.211,46.354c-0.314,0.188-0.43,0.58-0.277,0.904
		c0.27-0.048,0.551-0.15,0.818-0.311c0.163-0.098,0.309-0.209,0.438-0.329l-0.012-0.021C54.979,46.264,54.545,46.154,54.211,46.354
		L54.211,46.354z"/>
	<path id="path38_3_" inkscape:connector-curvature="0" fill="#333333" d="M40.422,40.766l-3.686,6.869l-1.795,3.346
		c0.4,0.562,0.904,1.099,1.486,1.587c2.785,2.333,7.368,3.56,11.145,1.146l0.512-9.833c-2.119-0.629-4.271-1.65-5.582-2.178
		C41.721,41.389,41.035,41.075,40.422,40.766L40.422,40.766z"/>
	<path id="path50_3_" inkscape:connector-curvature="0" fill="#CCCCCC" d="M40.373,40.766l-3.686,6.869l-1.795,3.346
		c0.4,0.562,0.904,1.099,1.486,1.587c2.785,2.333,7.368,3.56,11.145,1.146l0.512-9.833c-2.119-0.629-4.271-1.65-5.582-2.178
		C41.672,41.389,40.986,41.075,40.373,40.766L40.373,40.766z"/>
	<path id="path52_3_" inkscape:connector-curvature="0" d="M40.193,40.766l-3.686,6.869l-1.796,3.346
		c0.401,0.562,0.905,1.099,1.487,1.587c2.784,2.334,7.367,3.56,11.144,1.146l0.513-9.833c-2.119-0.629-4.272-1.65-5.582-2.178
		C41.491,41.389,40.806,41.075,40.193,40.766L40.193,40.766z"/>
	<path id="path54_3_" inkscape:connector-curvature="0" fill="#333333" d="M43.324,48.111c0.734,0.734,1.767,1.197,2.324,1.084
		c0.859-0.175,1.317-1.49,1.023-2.939c-0.145-0.712-0.445-1.324-0.814-1.742C44.091,42.521,40.744,45.531,43.324,48.111
		L43.324,48.111z"/>
	<path id="path56_3_" inkscape:connector-curvature="0" fill="#1A1A1A" d="M39.574,42.309c4.936,1.211-2.248,6.848,8.127,7.992
		l0.363-6.42c-2.119-0.629-4.271-1.65-5.582-2.178c-0.782-0.314-1.467-0.628-2.08-0.938L39.574,42.309L39.574,42.309z"/>
	<path id="path58_3_" inkscape:connector-curvature="0" fill="#FFFFFF" d="M40.373,40.766l-3.686,6.869l-1.795,3.346
		c0.4,0.562,0.904,1.099,1.486,1.587c2.785,2.333,7.368,3.56,11.145,1.146l0.512-9.833c-2.119-0.629-4.271-1.65-5.582-2.178
		C41.672,41.389,40.986,41.075,40.373,40.766L40.373,40.766z"/>
	<path id="path60_3_" inkscape:connector-curvature="0" fill="#D2D3D5" d="M40.2,40.766l-3.686,6.869l-1.796,3.346
		c0.401,0.562,0.905,1.099,1.487,1.587c2.784,2.333,7.368,3.56,11.144,1.146l0.512-9.833c-2.118-0.629-4.271-1.65-5.581-2.178
		C41.498,41.389,40.812,41.075,40.2,40.766L40.2,40.766z"/>
	<path id="path62_3_" inkscape:connector-curvature="0" fill="none" d="M39.542,42.717c4.202,1.204-2.651,6.814,8.186,8.006"/>
	<path id="path64_3_" inkscape:connector-curvature="0" fill="#FFFFFF" d="M39.941,43.227l-4.639,8.447l2.705,1.909l2.74-9.001
		c-0.149-0.094-0.089-0.609-0.338-0.793C40.25,43.671,40.144,43.381,39.941,43.227L39.941,43.227z"/>
	<path id="path66_3_" inkscape:connector-curvature="0" fill="#666666" d="M39.163,43.062c1.558,0.446,1.542,1.53,1.522,2.763
		c-0.031,2.056-0.068,4.504,6.676,5.244l0.016-0.15c-6.605-0.727-6.569-3.1-6.539-5.092c0.02-1.294,0.037-2.434-1.633-2.912
		L39.163,43.062L39.163,43.062z"/>
	<path id="path70_3_" inkscape:connector-curvature="0" fill="#CCCCCC" d="M46.561,48.754c0.491,1.007,1.006,2,1.74,2.859
		c0.822,0.961,1.92,1.754,3.078,1.901c1.013,0.128,2.07-0.237,3.135-0.666l0.539,1.234c-1.088,0.435-2.002,0.764-2.996,0.865
		c-1.157,0.119-2.132-0.186-3.013-0.706c-0.88-0.521-1.667-1.258-2.446-2.346c-0.598-0.834-1.191-1.877-1.783-2.966L46.561,48.754
		L46.561,48.754z"/>
	<path id="path72_3_" inkscape:connector-curvature="0" fill="#CCCCCC" d="M43.781,47.939c0.655,0.654,1.574,1.067,2.071,0.967
		c0.765-0.156,1.174-1.328,0.911-2.619c-0.129-0.635-0.396-1.181-0.726-1.553C44.465,42.96,41.482,45.642,43.781,47.939
		L43.781,47.939z"/>
	<path id="path74_3_" inkscape:connector-curvature="0" d="M43.646,48.074c0.34,0.339,0.747,0.616,1.136,0.798
		c0.403,0.188,0.794,0.274,1.083,0.225h0.002l0.022-0.005c0.454-0.092,0.797-0.471,0.983-1.007c0.175-0.503,0.215-1.151,0.079-1.829
		l0,0l0,0l-0.001-0.006c-0.067-0.327-0.168-0.632-0.295-0.903c-0.134-0.285-0.296-0.535-0.476-0.737
		c-0.579-0.653-1.33-0.765-1.984-0.529c-0.288,0.104-0.558,0.276-0.782,0.499c-0.225,0.222-0.406,0.495-0.522,0.804
		C42.598,46.16,42.723,47.15,43.646,48.074L43.646,48.074z M44.943,48.527c-0.351-0.164-0.719-0.414-1.027-0.723l0,0
		c-0.799-0.799-0.914-1.639-0.668-2.289c0.096-0.254,0.248-0.481,0.435-0.666c0.187-0.184,0.407-0.326,0.642-0.41
		c0.518-0.188,1.111-0.098,1.571,0.422c0.156,0.176,0.298,0.395,0.415,0.646c0.115,0.244,0.206,0.518,0.266,0.811l0,0v0.001
		l0.002,0.006c0.123,0.61,0.09,1.191-0.064,1.635c-0.143,0.409-0.387,0.695-0.697,0.759h-0.002
		C45.604,48.762,45.287,48.688,44.943,48.527L44.943,48.527z"/>
	<path id="path76_3_" inkscape:connector-curvature="0" fill="#FFFFFF" d="M44.88,44.458c-1.026-0.054-2.155,1.454-1.292,2.667
		c-0.006-1.689,3.549,0.642,2.584-1.591C45.987,45.108,45.598,44.495,44.88,44.458L44.88,44.458z"/>
	<path id="path78_3_" inkscape:connector-curvature="0" d="M55.839,53.525c0.292,0.57,0.839,1,1.519,1.119
		c1.151,0.201,2.247-0.568,2.448-1.72c0.015-0.089,0.025-0.177,0.029-0.265l-0.305,0.068c-0.002,0.014-0.004,0.028-0.007,0.043
		c-0.143,0.816-0.922,1.363-1.738,1.221c-0.432-0.076-0.788-0.328-1.008-0.67L55.839,53.525L55.839,53.525z"/>
	<path id="path80_3_" inkscape:connector-curvature="0" d="M56.884,49.701c-1.138,0.266-1.844,1.404-1.577,2.542
		c0.02,0.085,0.044,0.167,0.073,0.245l0.798-0.565c-0.182-0.805,0.318-1.607,1.123-1.796c0.404-0.095,0.807-0.018,1.135,0.186
		l0.266-0.193C58.21,49.721,57.547,49.545,56.884,49.701L56.884,49.701z"/>
	<path id="path82_3_" inkscape:connector-curvature="0" d="M46.312,48.68c0.258,0.531,0.52,1.061,0.818,1.578
		c0.299,0.52,0.632,1.019,1.025,1.479c0.445,0.521,0.973,0.996,1.547,1.351c0.519,0.321,1.077,0.544,1.652,0.616
		c0.548,0.07,1.104,0.003,1.664-0.139c0.551-0.141,1.104-0.352,1.658-0.576l-0.143-0.354c-0.542,0.219-1.08,0.426-1.609,0.559
		c-0.519,0.133-1.029,0.195-1.522,0.133c-0.518-0.066-1.026-0.27-1.501-0.562c-0.539-0.333-1.034-0.78-1.456-1.273
		c-0.379-0.443-0.698-0.924-0.985-1.422c-0.288-0.498-0.548-1.025-0.805-1.555L46.312,48.68L46.312,48.68z"/>
	
		<rect id="rect92_3_" x="54.622" y="52.072" transform="matrix(0.9131 -0.4077 0.4077 0.9131 -16.8652 27.1776)" fill="#808080" width="1.437" height="2.182"/>
	<polygon id="polygon94_3_" fill="#1A1A1A" points="56.442,53.867 55.786,54.159 54.896,52.167 55.553,51.874 	"/>
	<path id="path96_3_" inkscape:connector-curvature="0" d="M54.492,52.556l0.965-0.431l0.734,1.645l-0.965,0.432L54.492,52.556
		L54.492,52.556z M55.476,51.7l-1.312,0.586l-0.174,0.077l0.077,0.174l0.89,1.993l0.077,0.174l0.174-0.078l1.313-0.585l0.173-0.078
		l-0.077-0.174l-0.89-1.992l-0.077-0.174L55.476,51.7L55.476,51.7z"/>
	<path id="path98_3_" inkscape:connector-curvature="0" fill="#666666" d="M46.627,49.354c-0.363,0.218-0.572,0.34-1.006,0.423
		c-0.051,0.01-0.086,0.015-0.119,0.007l-0.036-0.061h-0.001c-0.231-0.397-0.184-0.328-0.406-0.736
		c0.302,0.106,0.584,0.148,0.807,0.111h0.002l0.022-0.006c0.188-0.037,0.355-0.125,0.502-0.25l0.007,0.012v0.002l0.008,0.016
		l0.004,0.008l0.002,0.006l0.007,0.013l0.003,0.006l0.004,0.007c0.07,0.145,0.143,0.289,0.215,0.434L46.627,49.354L46.627,49.354z"
		/>
	
		<circle id="circle100_3_" sodipodi:ry="0.054621302" sodipodi:rx="0.054621302" sodipodi:cy="1.28891" sodipodi:cx="0.30783501" fill="#147AB4" stroke="#000000" stroke-width="0.0079" cx="55.914" cy="52.875" r="0.993">
	</circle>
	<path id="path102_3_" inkscape:connector-curvature="0" fill="#FFFFFF" d="M55.809,52.065c-0.418,0.061-0.717,0.429-0.697,0.843
		c0.309,0.068,0.654,0.082,1.01,0.031c0.219-0.031,0.424-0.086,0.613-0.157l-0.003-0.026C56.666,52.31,56.253,52.001,55.809,52.065z
		"/>
</g>
</svg>
