<?xml version="1.0" encoding="utf-8"?>
<!-- Generator: Adobe Illustrator 15.0.0, SVG Export Plug-In . SVG Version: 6.00 Build 0)  -->
<!DOCTYPE svg PUBLIC "-//W3C//DTD SVG 1.1//EN" "http://www.w3.org/Graphics/SVG/1.1/DTD/svg11.dtd">
<svg version="1.1"
	 id="svg2" sodipodi:docname="robot.svg" inkscape:version="0.48.2 r9819" xmlns:inkscape="http://www.inkscape.org/namespaces/inkscape" xmlns:sodipodi="http://sodipodi.sourceforge.net/DTD/sodipodi-0.dtd" xmlns:rdf="http://www.w3.org/1999/02/22-rdf-syntax-ns#" xmlns:svg="http://www.w3.org/2000/svg" xmlns:cc="http://creativecommons.org/ns#" xmlns:dc="http://purl.org/dc/elements/1.1/"
	 xmlns="http://www.w3.org/2000/svg" xmlns:xlink="http://www.w3.org/1999/xlink" x="0px" y="0px" width="64px" height="64px"
	 viewBox="0 0 64 64" enable-background="new 0 0 64 64" xml:space="preserve">
<sodipodi:namedview  gridtolerance="10" guidetolerance="10" id="namedview53" borderopacity="1" inkscape:pageshadow="2" objecttolerance="10" inkscape:pageopacity="0" inkscape:window-x="-8" inkscape:window-y="-8" inkscape:window-maximized="1" inkscape:current-layer="layer1" inkscape:window-width="1366" inkscape:window-height="716" showgrid="false" inkscape:zoom="7.3945083" inkscape:cx="33.240585" inkscape:cy="31.760032" bordercolor="#666666" pagecolor="#ffffff">
	</sodipodi:namedview>
<g id="layer1" inkscape:groupmode="layer" inkscape:label="Head and Neck">
	<path id="path34" inkscape:connector-curvature="0" fill="#808080" d="M12.469,13.108l-0.571,1.472
		c0.707,0.295,1.596,0.69,2.567,1.083l0.57-1.471C14.047,13.787,13.154,13.388,12.469,13.108L12.469,13.108z"/>
	<path id="path36" inkscape:connector-curvature="0" fill="#1A1A1A" d="M12.469,13.108l-0.276,0.739
		c0.707,0.295,1.596,0.69,2.567,1.082l0.275-0.737C14.047,13.787,13.154,13.388,12.469,13.108L12.469,13.108z"/>
	<path id="path40" inkscape:connector-curvature="0" d="M12.292,13.04l-0.571,1.473l-0.067,0.173l0.171,0.072
		c0.263,0.11,0.533,0.226,0.821,0.35c0.529,0.226,1.118,0.479,1.749,0.733l0.178,0.072l0.07-0.18l0.57-1.471l0.067-0.174
		l-0.173-0.071c-0.509-0.208-1.029-0.432-1.501-0.634c-0.379-0.162-0.725-0.311-1.065-0.45l-0.179-0.073L12.292,13.04L12.292,13.04z
		 M12.143,14.477l0.434-1.118c0.255,0.106,0.557,0.236,0.88,0.374c0.403,0.173,0.843,0.361,1.335,0.564l-0.434,1.117
		c-0.553-0.226-1.082-0.453-1.562-0.659C12.564,14.656,12.343,14.562,12.143,14.477L12.143,14.477z"/>
	<path id="path42" inkscape:connector-curvature="0" fill="#D2D3D5" stroke="#000000" stroke-width="0.0095" d="M24.196,13.372
		c-0.919,4.95-8.739,0.939-11.839-0.31C-6.885,5.313,26.95-1.453,24.196,13.372z"/>
	<path id="path44" inkscape:connector-curvature="0" fill="#D2D3D5" d="M23.998,13.303c-0.899,4.843-8.55,0.919-11.584-0.303
		C-6.416,5.417,26.692-1.203,23.998,13.303z"/>
	<path id="path46" inkscape:connector-curvature="0" fill="#787878" d="M17.363,15.061c-1.926-0.63-3.814-1.518-5.006-1.998
		C-2.995,6.88,15.437,1.324,22.12,6.858C16.175,3.962,9.088,5.393,8.404,8.063C7.875,10.129,12.219,12.939,17.363,15.061z"/>
	<path id="path48" inkscape:connector-curvature="0" fill="#5DB4E5" stroke="#000000" stroke-width="0.0095" d="M24.231,12.77
		l-0.003,0.016c-0.305-0.036-0.618-0.08-0.938-0.134c-3.107-0.527-5.627-1.748-5.627-2.726c0-0.979,2.52-1.344,5.627-0.816
		c0.188,0.032,0.375,0.066,0.559,0.104C24.326,10.161,24.498,11.336,24.231,12.77L24.231,12.77z"/>
	<path id="path86" inkscape:connector-curvature="0" fill="#467DC0" stroke="#000000" stroke-width="0.0095" d="M24.237,12.77
		l-0.003,0.016c-0.305-0.036-0.618-0.08-0.937-0.134c-3.108-0.527-5.627-1.748-5.627-2.726c0-0.979,2.519-1.344,5.627-0.816
		c0.188,0.032,0.375,0.066,0.558,0.104C24.331,10.161,24.503,11.336,24.237,12.77L24.237,12.77z"/>
	<path id="path88" inkscape:connector-curvature="0" fill="#FFFFFF" d="M17.999,9.922c0.29-0.876,2.992-0.835,4.155-0.607
		c0.127,0.228,0.214,0.49,0.25,0.789C22.168,11.437,19.467,9.982,17.999,9.922L17.999,9.922z"/>
	<path id="path90" inkscape:connector-curvature="0" fill="#FFFFFF" d="M19.682,6.21c-1.731-0.552-4.299-0.957-6.68-0.548
		c-2.951,0.506-5.442,2.089-3.654,4.14C7.085,5.67,17.004,7.203,19.871,7.94C23.705,8.928,21.416,6.763,19.682,6.21L19.682,6.21z"/>
</g>
<g id="layer2" inkscape:groupmode="layer" inkscape:label="Body">
	
		<circle id="circle10" sodipodi:ry="0.16874801" sodipodi:rx="0.16874801" sodipodi:cy="1.30922" sodipodi:cx="1.29941" fill="#3669F0" stroke="#000000" stroke-width="0.0197" cx="6.98" cy="25.979" r="3.068">
	</circle>
	<path id="path12" inkscape:connector-curvature="0" fill="#275C9C" d="M6.98,23.272c-1.495,0-2.707,1.211-2.707,2.707
		s1.211,2.707,2.707,2.707c0.15,0,0.297-0.012,0.441-0.036c-1.415-0.088-2.535-1.264-2.535-2.701c0-1.345,0.98-2.46,2.266-2.671
		C7.095,23.273,7.038,23.272,6.98,23.272L6.98,23.272z"/>
	<path id="path14" inkscape:connector-curvature="0" fill="#CCCCCC" d="M14.814,19.512c0.727,0.642,1.468,1.265,2.341,1.708
		c0.976,0.495,2.118,0.765,3.093,0.497c0.852-0.234,1.576-0.877,2.284-1.574l0.841,0.808c-0.725,0.709-1.348,1.275-2.108,1.688
		c-0.885,0.479-1.766,0.56-2.643,0.436s-1.75-0.451-2.735-1.062c-0.755-0.469-1.576-1.104-2.411-1.779L14.814,19.512L14.814,19.512z
		"/>
	<path id="path16" inkscape:connector-curvature="0" d="M23.73,20.248c0.517,0.2,1.118,0.165,1.626-0.149
		c0.86-0.532,1.126-1.661,0.594-2.521c-0.041-0.066-0.085-0.13-0.134-0.189l-0.156,0.22c0.006,0.01,0.013,0.021,0.019,0.031
		c0.378,0.611,0.189,1.413-0.422,1.791c-0.322,0.2-0.699,0.241-1.037,0.146L23.73,20.248L23.73,20.248z"/>
	<path id="path18" inkscape:connector-curvature="0" d="M24.085,17.061c-0.954,0.335-1.456,1.381-1.121,2.334
		c0.025,0.071,0.054,0.139,0.085,0.205l0.635-0.561c-0.233-0.675,0.124-1.413,0.799-1.65c0.338-0.119,0.693-0.09,0.993,0.054
		l0.211-0.191C25.229,16.955,24.641,16.866,24.085,17.061L24.085,17.061z"/>
	<path id="path20" inkscape:connector-curvature="0" d="M14.592,19.536c0.382,0.338,0.768,0.675,1.178,0.99
		c0.412,0.315,0.843,0.604,1.311,0.841c0.53,0.269,1.108,0.473,1.685,0.566c0.521,0.083,1.042,0.076,1.526-0.057
		c0.461-0.127,0.883-0.365,1.283-0.665c0.395-0.295,0.767-0.648,1.135-1.012l-0.231-0.235c-0.36,0.355-0.723,0.699-1.1,0.982
		c-0.371,0.277-0.758,0.498-1.173,0.612c-0.436,0.119-0.91,0.125-1.386,0.048c-0.541-0.087-1.086-0.28-1.588-0.534
		c-0.45-0.228-0.864-0.505-1.259-0.808c-0.396-0.304-0.778-0.638-1.16-0.976L14.592,19.536L14.592,19.536z"/>
	<path id="path22" inkscape:connector-curvature="0" d="M13.097,20.142c0.439,0.355,0.889,0.718,1.343,1.062l0,0
		c0.454,0.345,0.911,0.67,1.36,0.948c0.457,0.283,0.937,0.525,1.416,0.711c0.469,0.182,0.938,0.311,1.383,0.374
		c0.454,0.064,0.909,0.075,1.366,0.008c0.458-0.067,0.917-0.213,1.378-0.462c0.406-0.22,0.772-0.481,1.134-0.783
		c0.357-0.298,0.711-0.637,1.095-1.014l-0.23-0.235c-0.377,0.37-0.725,0.703-1.076,0.996c-0.346,0.29-0.695,0.539-1.079,0.747
		c-0.424,0.229-0.848,0.363-1.271,0.426c-0.423,0.062-0.847,0.051-1.27-0.008c-0.42-0.06-0.864-0.181-1.31-0.354
		c-0.458-0.178-0.919-0.41-1.361-0.685c-0.439-0.272-0.887-0.592-1.335-0.931v0c-0.448-0.34-0.897-0.702-1.335-1.056L13.097,20.142
		L13.097,20.142z"/>
	
		<rect id="rect24" x="22.676" y="19.175" transform="matrix(0.6866 -0.727 0.727 0.6866 -7.3262 23.2433)" fill="#808080" width="1.245" height="1.889"/>
	<polygon id="polygon26" fill="#1A1A1A" points="24.412,20.316 23.984,20.768 22.612,19.471 23.039,19.019 	"/>
	<path id="path28" inkscape:connector-curvature="0" d="M22.417,19.917l0.628-0.665l1.134,1.071l-0.628,0.666L22.417,19.917z
		 M22.919,18.906l-0.855,0.904l-0.113,0.12l0.12,0.113l1.373,1.297l0.12,0.113l0.113-0.12l0.854-0.904l0.113-0.12l-0.12-0.113
		l-1.373-1.298l-0.12-0.113L22.919,18.906L22.919,18.906z"/>
	
		<circle id="circle30" sodipodi:ry="0.051192898" sodipodi:rx="0.051192898" sodipodi:cy="0" sodipodi:cx="0" fill="#147AB4" stroke="#000000" stroke-width="0.0079" cx="23.66" cy="19.699" r="0.86">
	</circle>
	<path id="path32" inkscape:connector-curvature="0" fill="#FFFFFF" d="M23.306,19.087c-0.314,0.187-0.43,0.581-0.277,0.904
		c0.27-0.048,0.55-0.151,0.818-0.311c0.163-0.097,0.309-0.208,0.438-0.329l-0.012-0.021C24.074,18.997,23.641,18.888,23.306,19.087
		L23.306,19.087z"/>
	<path id="path38" inkscape:connector-curvature="0" fill="#333333" d="M9.518,13.499l-3.686,6.869l-1.795,3.346
		c0.401,0.562,0.904,1.099,1.487,1.587c2.784,2.333,7.368,3.559,11.144,1.146l0.512-9.833c-2.118-0.629-4.271-1.65-5.581-2.178
		C10.816,14.122,10.13,13.809,9.518,13.499L9.518,13.499z"/>
	<path id="path50" inkscape:connector-curvature="0" fill="#CCCCCC" d="M9.469,13.499l-3.686,6.869l-1.795,3.346
		c0.401,0.562,0.905,1.099,1.487,1.587c2.785,2.333,7.368,3.559,11.144,1.146l0.512-9.833c-2.119-0.629-4.271-1.65-5.582-2.178
		C10.767,14.122,10.082,13.809,9.469,13.499L9.469,13.499z"/>
	<path id="path52" inkscape:connector-curvature="0" d="M9.288,13.499l-3.686,6.869l-1.795,3.346
		c0.401,0.562,0.905,1.099,1.487,1.587c2.785,2.334,7.368,3.559,11.144,1.146l0.512-9.833c-2.119-0.629-4.272-1.65-5.582-2.178
		C10.586,14.122,9.901,13.809,9.288,13.499L9.288,13.499z"/>
	<path id="path54" inkscape:connector-curvature="0" fill="#333333" d="M12.419,20.845c0.735,0.735,1.767,1.198,2.325,1.084
		c0.859-0.175,1.317-1.49,1.023-2.939c-0.145-0.712-0.445-1.325-0.815-1.742C13.186,15.255,9.839,18.265,12.419,20.845
		L12.419,20.845z"/>
	<path id="path56" inkscape:connector-curvature="0" fill="#1A1A1A" d="M8.669,15.042c4.935,1.21-2.249,6.848,8.126,7.993
		l0.363-6.42c-2.119-0.629-4.271-1.65-5.582-2.178c-0.782-0.315-1.467-0.628-2.08-0.938L8.669,15.042L8.669,15.042z"/>
	<path id="path58" inkscape:connector-curvature="0" fill="#FFFFFF" d="M9.469,13.499l-3.686,6.869l-1.795,3.346
		c0.401,0.562,0.905,1.099,1.487,1.587c2.785,2.333,7.368,3.559,11.144,1.146l0.512-9.833c-2.119-0.629-4.271-1.65-5.582-2.178
		C10.767,14.122,10.082,13.809,9.469,13.499L9.469,13.499z"/>
	<path id="path60" inkscape:connector-curvature="0" fill="#D2D3D5" d="M9.295,13.499L5.61,20.368l-1.795,3.346
		c0.401,0.562,0.905,1.099,1.487,1.587c2.784,2.333,7.368,3.559,11.144,1.146l0.512-9.833c-2.119-0.629-4.271-1.65-5.582-2.178
		C10.593,14.122,9.908,13.809,9.295,13.499L9.295,13.499z"/>
	<path id="path62" inkscape:connector-curvature="0" fill="none" d="M8.637,15.451c4.203,1.204-2.652,6.814,8.186,8.005"/>
	<path id="path64" inkscape:connector-curvature="0" fill="#FFFFFF" d="M9.037,15.961l-4.639,8.447l2.706,1.909l2.74-9.001
		c-0.15-0.093-0.089-0.609-0.338-0.792C9.345,16.405,9.239,16.115,9.037,15.961L9.037,15.961z"/>
	<path id="path66" inkscape:connector-curvature="0" fill="#666666" d="M8.258,15.795c1.558,0.446,1.542,1.531,1.523,2.762
		c-0.031,2.056-0.069,4.504,6.676,5.245l0.016-0.151c-6.606-0.726-6.57-3.099-6.54-5.091c0.02-1.294,0.037-2.434-1.633-2.912
		L8.258,15.795L8.258,15.795z"/>
	<path id="path70" inkscape:connector-curvature="0" fill="#CCCCCC" d="M15.656,21.488c0.491,1.007,1.005,2,1.74,2.859
		c0.822,0.961,1.92,1.755,3.079,1.902c1.012,0.128,2.07-0.238,3.134-0.666l0.54,1.234c-1.088,0.435-2.003,0.764-2.997,0.865
		c-1.157,0.119-2.131-0.186-3.012-0.707c-0.88-0.521-1.667-1.257-2.446-2.345c-0.598-0.834-1.191-1.876-1.783-2.966L15.656,21.488
		L15.656,21.488z"/>
	<path id="path72" inkscape:connector-curvature="0" fill="#CCCCCC" d="M12.876,20.673c0.655,0.655,1.574,1.067,2.071,0.966
		c0.765-0.155,1.174-1.328,0.912-2.618c-0.129-0.636-0.396-1.181-0.726-1.553C13.56,15.694,10.578,18.375,12.876,20.673
		L12.876,20.673z"/>
	<path id="path74" inkscape:connector-curvature="0" d="M12.742,20.808c0.339,0.339,0.747,0.616,1.135,0.798
		c0.403,0.188,0.794,0.274,1.083,0.225h0.002l0.022-0.004c0.454-0.092,0.797-0.471,0.984-1.007c0.174-0.502,0.215-1.152,0.079-1.829
		l0,0l0,0l-0.001-0.006c-0.067-0.327-0.168-0.632-0.295-0.903c-0.133-0.285-0.295-0.535-0.475-0.738
		c-0.579-0.653-1.33-0.764-1.984-0.528c-0.289,0.104-0.558,0.276-0.782,0.499c-0.225,0.222-0.407,0.496-0.522,0.803
		C11.693,18.894,11.818,19.885,12.742,20.808L12.742,20.808z M14.039,21.261c-0.351-0.164-0.719-0.415-1.027-0.723h0
		c-0.799-0.799-0.914-1.638-0.668-2.288c0.096-0.255,0.248-0.482,0.435-0.667c0.186-0.184,0.407-0.326,0.642-0.41
		c0.517-0.187,1.111-0.097,1.571,0.422c0.156,0.176,0.298,0.395,0.416,0.647c0.114,0.244,0.206,0.518,0.266,0.811h0v0l0.001,0.006
		c0.124,0.611,0.09,1.191-0.064,1.635c-0.143,0.41-0.387,0.695-0.697,0.759l-0.001,0C14.699,21.496,14.382,21.421,14.039,21.261
		L14.039,21.261z"/>
	<path id="path76" inkscape:connector-curvature="0" fill="#FFFFFF" d="M13.975,17.192c-1.026-0.053-2.155,1.454-1.292,2.667
		c-0.006-1.688,3.548,0.642,2.583-1.59C15.083,17.842,14.693,17.229,13.975,17.192L13.975,17.192z"/>
	<path id="path78" inkscape:connector-curvature="0" d="M24.934,26.259c0.292,0.57,0.839,1,1.519,1.12
		c1.151,0.201,2.247-0.569,2.448-1.72c0.015-0.089,0.025-0.177,0.029-0.265l-0.305,0.069c-0.002,0.014-0.004,0.028-0.007,0.042
		c-0.143,0.817-0.921,1.364-1.738,1.221c-0.432-0.076-0.788-0.328-1.007-0.67L24.934,26.259L24.934,26.259z"/>
	<path id="path80" inkscape:connector-curvature="0" d="M25.979,22.435c-1.138,0.266-1.844,1.404-1.577,2.542
		c0.02,0.084,0.044,0.167,0.073,0.246l0.798-0.566c-0.183-0.805,0.317-1.607,1.122-1.796c0.404-0.095,0.808-0.017,1.135,0.186
		l0.266-0.193C27.305,22.455,26.642,22.279,25.979,22.435L25.979,22.435z"/>
	<path id="path82" inkscape:connector-curvature="0" d="M15.408,21.414c0.258,0.531,0.52,1.061,0.818,1.579
		c0.299,0.519,0.631,1.018,1.025,1.479c0.445,0.521,0.972,0.996,1.546,1.35c0.519,0.321,1.078,0.544,1.653,0.616
		c0.548,0.07,1.104,0.003,1.664-0.139c0.551-0.14,1.104-0.352,1.659-0.576l-0.143-0.354c-0.542,0.219-1.08,0.426-1.608,0.559
		c-0.519,0.132-1.029,0.194-1.523,0.132c-0.518-0.066-1.026-0.269-1.501-0.563c-0.539-0.333-1.034-0.78-1.456-1.273
		c-0.379-0.443-0.699-0.923-0.986-1.421c-0.288-0.499-0.547-1.025-0.804-1.555L15.408,21.414L15.408,21.414z"/>
	
		<rect id="rect92" x="23.718" y="24.806" transform="matrix(0.9132 -0.4075 0.4075 0.9132 -8.4325 12.2065)" fill="#808080" width="1.438" height="2.182"/>
	<polygon id="polygon94" fill="#1A1A1A" points="25.538,26.601 24.881,26.893 23.992,24.901 24.648,24.608 	"/>
	<path id="path96" inkscape:connector-curvature="0" d="M23.587,25.29l0.965-0.43l0.734,1.645l-0.965,0.431L23.587,25.29
		L23.587,25.29z M24.571,24.434l-1.312,0.586l-0.174,0.078l0.078,0.174l0.889,1.993l0.077,0.174l0.174-0.078l1.313-0.585
		l0.173-0.078l-0.078-0.173l-0.889-1.993l-0.078-0.174L24.571,24.434L24.571,24.434z"/>
	<path id="path98" inkscape:connector-curvature="0" fill="#666666" d="M15.722,22.087c-0.363,0.218-0.571,0.341-1.006,0.423
		c-0.05,0.01-0.085,0.015-0.119,0.007l-0.036-0.061h0c-0.232-0.397-0.184-0.328-0.407-0.737c0.302,0.107,0.584,0.149,0.807,0.111
		h0.002l0.022-0.005c0.188-0.038,0.355-0.125,0.502-0.251l0.006,0.013l0.001,0.002l0.007,0.015l0.004,0.008l0.002,0.005l0.006,0.013
		l0.003,0.006l0.003,0.006c0.071,0.145,0.143,0.29,0.215,0.435L15.722,22.087L15.722,22.087z"/>
	
		<circle id="circle100" sodipodi:ry="0.054621302" sodipodi:rx="0.054621302" sodipodi:cy="1.28891" sodipodi:cx="0.30783501" fill="#147AB4" stroke="#000000" stroke-width="0.0079" cx="25.009" cy="25.609" r="0.993">
	</circle>
	<path id="path102" inkscape:connector-curvature="0" fill="#FFFFFF" d="M24.903,24.799c-0.418,0.061-0.716,0.429-0.697,0.842
		c0.309,0.068,0.654,0.083,1.011,0.031c0.218-0.031,0.423-0.085,0.613-0.157l-0.003-0.027
		C25.762,25.043,25.348,24.735,24.903,24.799z"/>
</g>
<g id="layer1_1_" inkscape:groupmode="layer" inkscape:label="Head and Neck">
	<path id="path34_1_" inkscape:connector-curvature="0" fill="#808080" d="M43.736,13.682l-0.57,1.472
		c0.706,0.296,1.596,0.69,2.566,1.083l0.57-1.472C45.314,14.36,44.422,13.961,43.736,13.682L43.736,13.682z"/>
	<path id="path36_1_" inkscape:connector-curvature="0" fill="#1A1A1A" d="M43.736,13.682L43.46,14.42
		c0.706,0.295,1.597,0.69,2.567,1.082l0.275-0.737C45.314,14.36,44.421,13.961,43.736,13.682L43.736,13.682z"/>
	<path id="path40_1_" inkscape:connector-curvature="0" d="M43.559,13.613l-0.57,1.473l-0.067,0.173l0.171,0.072
		c0.264,0.109,0.533,0.225,0.822,0.35c0.528,0.226,1.117,0.479,1.748,0.732l0.178,0.072l0.07-0.18l0.57-1.471l0.067-0.174
		l-0.173-0.071c-0.51-0.208-1.029-0.432-1.502-0.634c-0.379-0.162-0.725-0.311-1.064-0.45l-0.18-0.073L43.559,13.613L43.559,13.613z
		 M43.41,15.049l0.434-1.117c0.256,0.105,0.557,0.235,0.88,0.373c0.403,0.174,0.843,0.361,1.335,0.564l-0.434,1.117
		c-0.553-0.225-1.082-0.452-1.562-0.658C43.831,15.229,43.609,15.135,43.41,15.049L43.41,15.049z"/>
	<path id="path42_1_" inkscape:connector-curvature="0" fill="#D2D3D5" stroke="#000000" stroke-width="0.0095" d="M55.464,13.946
		c-0.92,4.949-8.739,0.939-11.84-0.311C24.382,5.886,58.217-0.879,55.464,13.946z"/>
	<path id="path44_1_" inkscape:connector-curvature="0" fill="#D2D3D5" d="M55.265,13.875c-0.899,4.844-8.55,0.92-11.585-0.303
		C24.852,5.99,57.959-0.63,55.265,13.875z"/>
	<path id="path46_1_" inkscape:connector-curvature="0" fill="#787878" d="M48.63,15.633c-1.925-0.63-3.813-1.518-5.006-1.998
		c-15.352-6.182,3.08-11.738,9.763-6.204c-5.944-2.896-13.031-1.466-13.715,1.205C39.143,10.703,43.486,13.512,48.63,15.633z"/>
	<path id="path48_1_" inkscape:connector-curvature="0" fill="#5DB4E5" stroke="#000000" stroke-width="0.0095" d="M55.498,13.343
		l-0.003,0.016c-0.305-0.036-0.618-0.08-0.938-0.134c-3.107-0.528-5.627-1.749-5.627-2.727c0-0.979,2.52-1.344,5.627-0.816
		c0.188,0.032,0.375,0.066,0.559,0.104C55.593,10.734,55.765,11.909,55.498,13.343L55.498,13.343z"/>
	<path id="path86_1_" inkscape:connector-curvature="0" fill="#467DC0" stroke="#000000" stroke-width="0.0095" d="M55.504,13.343
		l-0.003,0.016c-0.305-0.036-0.618-0.08-0.938-0.134c-3.107-0.528-5.627-1.749-5.627-2.727c0-0.979,2.52-1.344,5.627-0.816
		c0.188,0.032,0.375,0.066,0.559,0.104C55.599,10.734,55.771,11.909,55.504,13.343L55.504,13.343z"/>
	<path id="path88_1_" inkscape:connector-curvature="0" fill="#FFFFFF" d="M49.267,10.495c0.289-0.876,2.991-0.835,4.154-0.607
		c0.127,0.228,0.215,0.49,0.25,0.789C53.436,12.01,50.734,10.556,49.267,10.495L49.267,10.495z"/>
	<path id="path90_1_" inkscape:connector-curvature="0" fill="#FFFFFF" d="M50.949,6.784c-1.731-0.552-4.299-0.957-6.68-0.548
		c-2.951,0.506-5.442,2.089-3.654,4.14c-2.264-4.132,7.656-2.599,10.522-1.861C54.972,9.501,52.683,7.336,50.949,6.784L50.949,6.784
		z"/>
</g>
<circle id="circle10_1_" sodipodi:ry="0.16874801" sodipodi:rx="0.16874801" sodipodi:cy="1.30922" sodipodi:cx="1.29941" fill="#3669F0" stroke="#000000" stroke-width="0.0197" cx="38.247" cy="26.551" r="3.068">
</circle>
<path id="path12_1_" inkscape:connector-curvature="0" fill="#275C9C" d="M38.247,23.845c-1.495,0-2.706,1.212-2.706,2.706
	c0,1.496,1.211,2.707,2.706,2.707c0.15,0,0.298-0.012,0.44-0.035c-1.414-0.089-2.534-1.265-2.534-2.701
	c0-1.346,0.98-2.461,2.267-2.672C38.362,23.846,38.305,23.845,38.247,23.845L38.247,23.845z"/>
<path id="path14_1_" inkscape:connector-curvature="0" fill="#CCCCCC" d="M46.165,21.778c0.901,0.354,1.81,0.687,2.783,0.805
	c1.085,0.131,2.251-0.004,3.075-0.589c0.721-0.51,1.182-1.362,1.609-2.259l1.066,0.472c-0.439,0.914-0.831,1.659-1.404,2.306
	c-0.668,0.753-1.468,1.129-2.335,1.312c-0.866,0.184-1.8,0.174-2.934-0.062c-0.868-0.184-1.857-0.501-2.872-0.85L46.165,21.778
	L46.165,21.778z"/>
<path id="path16_1_" inkscape:connector-curvature="0" d="M54.794,19.424c0.555,0.012,1.108-0.227,1.479-0.695
	c0.626-0.795,0.491-1.946-0.302-2.573c-0.062-0.048-0.126-0.091-0.192-0.131l-0.071,0.26c0.01,0.007,0.02,0.016,0.029,0.022
	c0.563,0.445,0.66,1.262,0.215,1.828c-0.235,0.297-0.574,0.464-0.925,0.49L54.794,19.424L54.794,19.424z"/>
<path id="path18_1_" inkscape:connector-curvature="0" d="M54.04,16.307c-0.782,0.641-0.896,1.795-0.256,2.578
	c0.049,0.058,0.098,0.112,0.15,0.163l0.404-0.745c-0.448-0.555-0.366-1.369,0.188-1.823c0.277-0.228,0.621-0.321,0.951-0.289
	l0.134-0.251C55.078,15.817,54.496,15.934,54.04,16.307L54.04,16.307z"/>
<path id="path20_1_" inkscape:connector-curvature="0" d="M45.964,21.875c0.473,0.188,0.951,0.372,1.444,0.529
	c0.495,0.155,0.999,0.279,1.52,0.342c0.59,0.071,1.202,0.065,1.776-0.043c0.519-0.1,1.006-0.285,1.415-0.575
	c0.391-0.277,0.705-0.645,0.979-1.063c0.27-0.412,0.5-0.871,0.721-1.338l-0.297-0.143c-0.219,0.458-0.44,0.904-0.699,1.299
	c-0.254,0.388-0.542,0.728-0.894,0.975c-0.369,0.261-0.812,0.429-1.286,0.52c-0.539,0.103-1.116,0.108-1.675,0.04
	c-0.501-0.06-0.984-0.179-1.46-0.329c-0.477-0.15-0.949-0.334-1.424-0.522L45.964,21.875L45.964,21.875z"/>
<path id="path22_1_" inkscape:connector-curvature="0" d="M44.766,22.956c0.533,0.185,1.08,0.371,1.625,0.54h0.001
	c0.544,0.168,1.085,0.318,1.603,0.426c0.525,0.11,1.059,0.174,1.572,0.185c0.503,0.012,0.987-0.027,1.427-0.12
	c0.449-0.095,0.881-0.241,1.287-0.459c0.408-0.219,0.79-0.514,1.138-0.906c0.307-0.344,0.562-0.715,0.799-1.124
	c0.233-0.401,0.45-0.841,0.682-1.327l-0.297-0.142c-0.229,0.477-0.441,0.908-0.672,1.303c-0.226,0.391-0.47,0.745-0.758,1.071
	c-0.32,0.36-0.673,0.631-1.05,0.834c-0.376,0.203-0.776,0.336-1.196,0.426c-0.415,0.086-0.874,0.124-1.352,0.113
	c-0.491-0.011-1.005-0.071-1.513-0.178c-0.507-0.107-1.036-0.253-1.573-0.42v0.001c-0.536-0.166-1.083-0.353-1.615-0.536
	L44.766,22.956L44.766,22.956z"/>
<rect id="rect24_1_" x="53.722" y="18.507" transform="matrix(0.3964 -0.9181 0.9181 0.3964 14.9434 61.6316)" fill="#808080" width="1.244" height="1.888"/>
<polygon id="polygon26_1_" fill="#1A1A1A" points="55.459,19.255 55.212,19.826 53.479,19.076 53.725,18.505 "/>
<path id="path28_1_" inkscape:connector-curvature="0" d="M53.448,19.561l0.361-0.839l1.433,0.618l-0.364,0.841L53.448,19.561z
	 M53.575,18.439l-0.496,1.143l-0.065,0.151l0.152,0.064l1.732,0.751l0.152,0.065l0.065-0.151l0.493-1.142l0.065-0.151l-0.15-0.065
	l-1.734-0.752l-0.151-0.064L53.575,18.439L53.575,18.439z"/>
<circle id="circle30_1_" sodipodi:ry="0.051192898" sodipodi:rx="0.051192898" sodipodi:cy="0" sodipodi:cx="0" fill="#147AB4" stroke="#000000" stroke-width="0.0079" cx="54.542" cy="18.933" r="0.86">
</circle>
<path id="path32_1_" inkscape:connector-curvature="0" fill="#FFFFFF" d="M54,18.478c-0.231,0.284-0.206,0.692,0.048,0.945
	c0.237-0.137,0.467-0.33,0.663-0.572c0.12-0.147,0.22-0.302,0.299-0.459l-0.018-0.015C54.691,18.131,54.246,18.177,54,18.478
	L54,18.478z"/>
<path id="path38_1_" inkscape:connector-curvature="0" fill="#333333" d="M40.785,14.073L37.1,20.942l-1.796,3.346
	c0.401,0.562,0.904,1.099,1.487,1.587c2.783,2.333,7.367,3.56,11.143,1.146l0.513-9.833c-2.118-0.629-4.271-1.65-5.581-2.178
	C42.083,14.696,41.396,14.382,40.785,14.073L40.785,14.073z"/>
<path id="path50_1_" inkscape:connector-curvature="0" fill="#CCCCCC" d="M40.736,14.073l-3.686,6.869l-1.796,3.346
	c0.401,0.562,0.905,1.099,1.487,1.587c2.784,2.333,7.367,3.56,11.144,1.146l0.512-9.833c-2.118-0.629-4.271-1.65-5.581-2.178
	C42.034,14.696,41.349,14.382,40.736,14.073L40.736,14.073z"/>
<path id="path52_1_" inkscape:connector-curvature="0" d="M40.555,14.073l-3.686,6.869l-1.795,3.346
	c0.4,0.562,0.904,1.099,1.486,1.587c2.785,2.334,7.368,3.56,11.145,1.146l0.512-9.833c-2.119-0.629-4.271-1.65-5.582-2.178
	C41.854,14.696,41.168,14.382,40.555,14.073L40.555,14.073z"/>
<path id="path54_1_" inkscape:connector-curvature="0" fill="#333333" d="M43.686,21.418c0.736,0.734,1.768,1.197,2.325,1.084
	c0.858-0.175,1.317-1.49,1.023-2.939c-0.146-0.712-0.444-1.324-0.815-1.742C44.453,15.829,41.105,18.838,43.686,21.418
	L43.686,21.418z"/>
<path id="path56_1_" inkscape:connector-curvature="0" fill="#1A1A1A" d="M39.937,15.616c4.935,1.211-2.249,6.848,8.126,7.992
	l0.364-6.42c-2.119-0.629-4.272-1.65-5.582-2.178c-0.782-0.314-1.468-0.628-2.08-0.938L39.937,15.616L39.937,15.616z"/>
<path id="path58_1_" inkscape:connector-curvature="0" fill="#FFFFFF" d="M40.736,14.073l-3.686,6.869l-1.796,3.346
	c0.401,0.562,0.905,1.099,1.487,1.587c2.784,2.333,7.367,3.56,11.144,1.146l0.512-9.833c-2.118-0.629-4.271-1.65-5.581-2.178
	C42.034,14.696,41.349,14.382,40.736,14.073L40.736,14.073z"/>
<path id="path60_1_" inkscape:connector-curvature="0" fill="#D2D3D5" d="M40.562,14.073l-3.686,6.869l-1.795,3.346
	c0.4,0.562,0.904,1.099,1.486,1.587c2.784,2.333,7.367,3.56,11.144,1.146l0.513-9.833c-2.119-0.629-4.271-1.65-5.582-2.178
	C41.86,14.696,41.175,14.382,40.562,14.073L40.562,14.073z"/>
<path id="path62_1_" inkscape:connector-curvature="0" fill="none" d="M39.904,16.024c4.203,1.204-2.652,6.814,8.186,8.006"/>
<path id="path64_1_" inkscape:connector-curvature="0" fill="#FFFFFF" d="M40.304,16.534l-4.639,8.447l2.706,1.909l2.74-9.001
	c-0.15-0.094-0.09-0.609-0.338-0.793C40.612,16.978,40.506,16.688,40.304,16.534L40.304,16.534z"/>
<path id="path66_1_" inkscape:connector-curvature="0" fill="#666666" d="M39.525,16.369c1.559,0.446,1.541,1.53,1.523,2.763
	c-0.031,2.056-0.069,4.504,6.676,5.244l0.016-0.15c-6.606-0.727-6.57-3.1-6.54-5.092c0.021-1.294,0.037-2.434-1.633-2.912
	L39.525,16.369L39.525,16.369z"/>
<path id="path70_1_" inkscape:connector-curvature="0" fill="#CCCCCC" d="M47.537,21.801c0.77,0.813,1.559,1.606,2.518,2.205
	c1.073,0.669,2.358,1.096,3.508,0.889c1.004-0.183,1.903-0.849,2.789-1.578l0.886,1.015c-0.907,0.742-1.68,1.33-2.598,1.726
	c-1.068,0.461-2.089,0.463-3.086,0.232c-0.996-0.233-1.969-0.698-3.038-1.502c-0.821-0.616-1.7-1.432-2.592-2.293L47.537,21.801
	L47.537,21.801z"/>
<path id="path72_1_" inkscape:connector-curvature="0" fill="#CCCCCC" d="M44.144,21.247c0.655,0.654,1.574,1.067,2.071,0.967
	c0.766-0.156,1.174-1.328,0.912-2.619c-0.129-0.635-0.396-1.181-0.727-1.553C44.826,16.267,41.845,18.949,44.144,21.247
	L44.144,21.247z"/>
<path id="path74_1_" inkscape:connector-curvature="0" d="M44.01,21.381c0.339,0.339,0.746,0.616,1.135,0.798
	c0.402,0.188,0.794,0.274,1.083,0.225h0.002l0.022-0.005c0.454-0.092,0.797-0.471,0.984-1.007c0.174-0.503,0.215-1.151,0.078-1.829
	l0,0l0,0l-0.002-0.006c-0.066-0.327-0.168-0.632-0.295-0.903c-0.133-0.285-0.295-0.535-0.475-0.737
	c-0.578-0.653-1.33-0.765-1.984-0.529c-0.289,0.104-0.558,0.276-0.782,0.499c-0.225,0.222-0.407,0.495-0.522,0.804
	C42.96,19.467,43.085,20.458,44.01,21.381L44.01,21.381z M45.306,21.834c-0.351-0.164-0.72-0.414-1.027-0.723h0.001
	c-0.799-0.799-0.914-1.639-0.669-2.289c0.097-0.254,0.247-0.481,0.435-0.666c0.186-0.184,0.406-0.326,0.643-0.41
	c0.516-0.188,1.11-0.098,1.57,0.422c0.156,0.176,0.298,0.395,0.416,0.646c0.113,0.244,0.205,0.518,0.266,0.811h-0.001v0.001
	l0.001,0.006c0.125,0.61,0.091,1.191-0.063,1.635c-0.143,0.409-0.387,0.695-0.697,0.759h-0.001
	C45.967,22.069,45.648,21.995,45.306,21.834L45.306,21.834z"/>
<path id="path76_1_" inkscape:connector-curvature="0" fill="#FFFFFF" d="M45.242,17.765c-1.025-0.054-2.154,1.454-1.291,2.667
	c-0.006-1.689,3.548,0.642,2.582-1.591C46.35,18.416,45.961,17.802,45.242,17.765L45.242,17.765z"/>
<path id="path78_1_" inkscape:connector-curvature="0" d="M58.354,23.651c0.64,0.031,1.285-0.229,1.727-0.758
	c0.749-0.898,0.627-2.232-0.271-2.98c-0.069-0.057-0.14-0.11-0.215-0.157l-0.092,0.297c0.011,0.009,0.022,0.018,0.033,0.028
	c0.637,0.53,0.723,1.478,0.191,2.115c-0.281,0.336-0.677,0.519-1.083,0.54L58.354,23.651L58.354,23.651z"/>
<path id="path80_1_" inkscape:connector-curvature="0" d="M57.365,19.82c-1.006,0.595-1.337,1.894-0.74,2.898
	c0.044,0.075,0.092,0.146,0.143,0.212l0.592-0.779c-0.415-0.713-0.18-1.628,0.531-2.05c0.357-0.212,0.764-0.259,1.138-0.164
	l0.195-0.264C58.636,19.44,57.95,19.472,57.365,19.82L57.365,19.82z"/>
<path id="path82_1_" inkscape:connector-curvature="0" d="M46.833,21.659c0.405,0.429,0.813,0.855,1.255,1.259
	c0.44,0.406,0.907,0.782,1.421,1.102c0.581,0.364,1.228,0.658,1.881,0.823c0.592,0.151,1.191,0.195,1.762,0.091
	c0.544-0.098,1.054-0.329,1.545-0.632c0.483-0.3,0.947-0.667,1.409-1.048l-0.242-0.294c-0.451,0.372-0.902,0.731-1.367,1.017
	c-0.455,0.282-0.924,0.496-1.412,0.584c-0.514,0.092-1.061,0.052-1.601-0.085c-0.614-0.155-1.222-0.433-1.771-0.777
	c-0.495-0.309-0.945-0.671-1.368-1.06c-0.424-0.389-0.83-0.813-1.234-1.241L46.833,21.659L46.833,21.659z"/>
<rect id="rect92_1_" x="56.517" y="22.278" transform="matrix(0.7483 -0.6634 0.6634 0.7483 -1.096 43.8488)" fill="#808080" width="1.437" height="2.182"/>
<polygon id="polygon94_1_" fill="#1A1A1A" points="58.498,23.709 57.959,24.185 56.512,22.552 57.05,22.075 "/>
<path id="path96_1_" inkscape:connector-curvature="0" d="M56.243,23.044l0.791-0.701l1.194,1.348l-0.79,0.702L56.243,23.044
	L56.243,23.044z M56.924,21.933l-1.075,0.953l-0.143,0.126l0.126,0.143l1.447,1.634l0.126,0.143l0.143-0.127l1.076-0.953
	l0.142-0.126l-0.126-0.143l-1.447-1.633l-0.126-0.143L56.924,21.933L56.924,21.933z"/>
<path id="path98_1_" inkscape:connector-curvature="0" fill="#666666" d="M47.436,22.241c-0.363,0.218-0.57,0.34-1.006,0.423
	c-0.049,0.01-0.085,0.015-0.118,0.007l-0.036-0.061l0,0c-0.232-0.397-0.184-0.328-0.407-0.736c0.302,0.106,0.585,0.148,0.807,0.111
	h0.002l0.022-0.006c0.188-0.037,0.355-0.125,0.502-0.25l0.006,0.012l0.002,0.002l0.006,0.016l0.005,0.008l0.003,0.006l0.006,0.013
	l0.004,0.006l0.002,0.007c0.071,0.145,0.143,0.289,0.216,0.434L47.436,22.241L47.436,22.241z"/>
<circle id="circle100_1_" sodipodi:ry="0.054621302" sodipodi:rx="0.054621302" sodipodi:cy="1.28891" sodipodi:cx="0.30783501" fill="#147AB4" stroke="#000000" stroke-width="0.0079" cx="57.696" cy="22.922" r="0.993">
</circle>
<path id="path102_1_" inkscape:connector-curvature="0" fill="#FFFFFF" d="M57.352,22.181c-0.381,0.184-0.555,0.625-0.412,1.014
	c0.315-0.028,0.649-0.119,0.973-0.274c0.199-0.096,0.379-0.209,0.538-0.334l-0.011-0.024C58.243,22.156,57.756,21.986,57.352,22.181
	z"/>
<path id="path34_2_" inkscape:connector-curvature="0" fill="#808080" d="M12.132,44l-0.223,1.562
	c0.755,0.129,1.711,0.312,2.746,0.474l0.222-1.562C13.823,44.303,12.863,44.117,12.132,44L12.132,44z"/>
<path id="path36_2_" inkscape:connector-curvature="0" fill="#1A1A1A" d="M12.132,44l-0.102,0.782
	c0.755,0.127,1.711,0.311,2.746,0.472l0.101-0.78C13.823,44.303,12.862,44.117,12.132,44L12.132,44z"/>
<path id="path40_2_" inkscape:connector-curvature="0" d="M11.944,43.973l-0.223,1.563l-0.026,0.184l0.183,0.032
	c0.281,0.047,0.57,0.098,0.879,0.154c0.566,0.1,1.197,0.213,1.869,0.317l0.19,0.03l0.027-0.191l0.222-1.562l0.026-0.185l-0.185-0.03
	c-0.543-0.087-1.1-0.188-1.606-0.277c-0.406-0.071-0.777-0.138-1.14-0.197l-0.191-0.03L11.944,43.973L11.944,43.973z M12.125,45.406
	l0.169-1.187c0.272,0.045,0.595,0.103,0.941,0.164c0.432,0.077,0.903,0.16,1.428,0.247l-0.169,1.187
	c-0.59-0.094-1.156-0.195-1.67-0.287C12.575,45.485,12.338,45.444,12.125,45.406L12.125,45.406z"/>
<path id="path42_2_" inkscape:connector-curvature="0" fill="#D2D3D5" stroke="#000000" stroke-width="0.0095" d="M23.615,41.601
	c0.225,5.028-8.299,2.895-11.602,2.38C-8.484,40.791,22.938,26.537,23.615,41.601z"/>
<path id="path44_2_" inkscape:connector-curvature="0" fill="#D2D3D5" d="M23.405,41.577c0.221,4.922-8.12,2.833-11.352,2.329
	C-8.004,40.787,22.743,26.838,23.405,41.577z"/>
<path id="path46_2_" inkscape:connector-curvature="0" fill="#787878" d="M17.341,44.792c-2.018-0.177-4.059-0.614-5.328-0.812
	c-16.353-2.544,0.341-12.131,8.104-8.254C13.67,34.252,7.091,37.25,7.03,40.007C6.983,42.139,11.851,43.892,17.341,44.792z"/>
<path id="path48_2_" inkscape:connector-curvature="0" fill="#5DB4E5" stroke="#000000" stroke-width="0.0095" d="M23.512,41.006
	l0,0.016c-0.305,0.034-0.62,0.062-0.943,0.082c-3.146,0.19-5.876-0.428-6.098-1.381s2.149-1.88,5.295-2.07
	c0.191-0.011,0.38-0.02,0.568-0.025C23.013,38.442,23.446,39.548,23.512,41.006L23.512,41.006z"/>
<path id="path86_2_" inkscape:connector-curvature="0" fill="#467DC0" stroke="#000000" stroke-width="0.0095" d="M23.518,41.004
	l0,0.017c-0.305,0.033-0.62,0.062-0.943,0.082c-3.146,0.19-5.877-0.428-6.099-1.381s2.15-1.88,5.296-2.07
	c0.191-0.011,0.38-0.021,0.567-0.025C23.019,38.441,23.452,39.547,23.518,41.004L23.518,41.004z"/>
<path id="path88_2_" inkscape:connector-curvature="0" fill="#FFFFFF" d="M16.797,39.643c0.083-0.918,2.724-1.49,3.909-1.532
	c0.175,0.193,0.32,0.429,0.422,0.712C21.201,40.175,18.24,39.369,16.797,39.643L16.797,39.643z"/>
<path id="path90_2_" inkscape:connector-curvature="0" fill="#FFFFFF" d="M17.595,35.647c-1.812-0.146-4.404,0.041-6.63,0.979
	c-2.759,1.162-4.828,3.269-2.622,4.86c-3.141-3.513,6.868-4.266,9.828-4.196C22.128,37.382,19.409,35.793,17.595,35.647
	L17.595,35.647z"/>
<circle id="circle10_2_" sodipodi:ry="0.16874801" sodipodi:rx="0.16874801" sodipodi:cy="1.30922" sodipodi:cx="1.29941" fill="#3669F0" stroke="#000000" stroke-width="0.0197" cx="5.919" cy="56.283" r="3.068">
</circle>
<path id="path12_2_" inkscape:connector-curvature="0" fill="#275C9C" d="M5.919,53.577c-1.495,0-2.707,1.212-2.707,2.706
	c0,1.496,1.211,2.707,2.707,2.707c0.15,0,0.297-0.012,0.441-0.035c-1.415-0.089-2.535-1.265-2.535-2.701
	c0-1.346,0.98-2.461,2.266-2.672C6.035,53.578,5.977,53.577,5.919,53.577L5.919,53.577z"/>
<path id="path14_2_" inkscape:connector-curvature="0" fill="#CCCCCC" d="M13.754,49.817c0.727,0.642,1.468,1.265,2.341,1.708
	c0.976,0.494,2.117,0.765,3.092,0.496c0.852-0.233,1.576-0.877,2.284-1.573l0.841,0.808c-0.725,0.709-1.348,1.275-2.107,1.688
	c-0.885,0.479-1.766,0.56-2.643,0.436c-0.877-0.123-1.75-0.451-2.735-1.061c-0.755-0.469-1.576-1.105-2.411-1.779L13.754,49.817
	L13.754,49.817z"/>
<path id="path16_2_" inkscape:connector-curvature="0" d="M22.078,49.391c0.255,0.491,0.731,0.861,1.32,0.961
	c0.998,0.167,1.942-0.506,2.11-1.503c0.013-0.076,0.021-0.153,0.023-0.23l-0.263,0.062c-0.002,0.013-0.004,0.025-0.006,0.036
	c-0.119,0.709-0.789,1.187-1.499,1.067c-0.374-0.062-0.684-0.28-0.875-0.575L22.078,49.391L22.078,49.391z"/>
<path id="path18_2_" inkscape:connector-curvature="0" d="M23.025,47.366c-0.954,0.335-1.456,1.381-1.121,2.335
	c0.025,0.07,0.054,0.139,0.086,0.204l0.635-0.562c-0.232-0.675,0.123-1.412,0.799-1.649c0.338-0.119,0.693-0.09,0.993,0.054
	l0.211-0.19C24.167,47.26,23.581,47.171,23.025,47.366L23.025,47.366z"/>
<path id="path20_2_" inkscape:connector-curvature="0" d="M13.531,49.841c0.382,0.339,0.768,0.675,1.178,0.99
	c0.412,0.315,0.843,0.604,1.311,0.841c0.53,0.269,1.108,0.473,1.685,0.566c0.521,0.083,1.043,0.076,1.526-0.057
	c0.461-0.127,0.883-0.365,1.282-0.665c0.395-0.295,0.768-0.647,1.135-1.012l-0.23-0.235c-0.361,0.355-0.723,0.699-1.101,0.982
	c-0.371,0.277-0.759,0.498-1.173,0.611c-0.437,0.119-0.91,0.126-1.387,0.049c-0.541-0.087-1.086-0.279-1.588-0.534
	c-0.45-0.228-0.865-0.505-1.26-0.808c-0.396-0.304-0.778-0.639-1.16-0.977L13.531,49.841L13.531,49.841z"/>
<path id="path22_2_" inkscape:connector-curvature="0" d="M12.037,50.447c0.439,0.355,0.889,0.718,1.343,1.062h0
	c0.454,0.345,0.911,0.67,1.36,0.948c0.457,0.283,0.937,0.525,1.416,0.711c0.469,0.183,0.938,0.312,1.383,0.374
	c0.454,0.064,0.909,0.074,1.366,0.008c0.458-0.066,0.917-0.213,1.378-0.463c0.406-0.219,0.772-0.48,1.135-0.783
	c0.356-0.297,0.711-0.637,1.094-1.014l-0.23-0.235c-0.377,0.37-0.725,0.703-1.076,0.996c-0.346,0.29-0.695,0.539-1.078,0.747
	c-0.425,0.229-0.848,0.363-1.271,0.426c-0.423,0.062-0.846,0.051-1.27-0.008c-0.42-0.061-0.864-0.182-1.31-0.355
	c-0.458-0.178-0.919-0.41-1.361-0.684c-0.439-0.273-0.887-0.592-1.335-0.932v0.001c-0.448-0.34-0.897-0.702-1.335-1.056
	L12.037,50.447L12.037,50.447z"/>
<rect id="rect24_2_" x="21.615" y="49.48" transform="matrix(0.6868 -0.7268 0.7268 0.6868 -29.6862 31.9556)" fill="#808080" width="1.244" height="1.889"/>
<polygon id="polygon26_2_" fill="#1A1A1A" points="23.351,50.621 22.923,51.073 21.551,49.776 21.978,49.324 "/>
<path id="path28_2_" inkscape:connector-curvature="0" d="M21.357,50.222l0.627-0.665l1.135,1.07l-0.629,0.666L21.357,50.222z
	 M21.859,49.211l-0.855,0.904l-0.113,0.12l0.121,0.112l1.372,1.298l0.12,0.113l0.113-0.12l0.854-0.904l0.113-0.119l-0.119-0.113
	l-1.373-1.299l-0.12-0.112L21.859,49.211L21.859,49.211z"/>
<circle id="circle30_2_" sodipodi:ry="0.051192898" sodipodi:rx="0.051192898" sodipodi:cy="0" sodipodi:cx="0" fill="#147AB4" stroke="#000000" stroke-width="0.0079" cx="22.599" cy="50.005" r="0.86">
</circle>
<path id="path32_2_" inkscape:connector-curvature="0" fill="#FFFFFF" d="M22.246,49.393c-0.314,0.188-0.43,0.58-0.277,0.904
	c0.27-0.048,0.551-0.15,0.818-0.311c0.163-0.098,0.309-0.209,0.438-0.329l-0.012-0.021C23.013,49.303,22.58,49.193,22.246,49.393
	L22.246,49.393z"/>
<path id="path38_2_" inkscape:connector-curvature="0" fill="#333333" d="M8.457,43.805l-3.686,6.869L2.976,54.02
	c0.401,0.562,0.904,1.099,1.487,1.587c2.784,2.333,7.368,3.56,11.144,1.146l0.512-9.833c-2.119-0.629-4.271-1.65-5.582-2.178
	C9.755,44.428,9.069,44.114,8.457,43.805L8.457,43.805z"/>
<path id="path50_2_" inkscape:connector-curvature="0" fill="#CCCCCC" d="M8.408,43.805l-3.686,6.869L2.927,54.02
	c0.401,0.562,0.905,1.099,1.487,1.587c2.785,2.333,7.368,3.56,11.144,1.146l0.512-9.833c-2.119-0.629-4.271-1.65-5.582-2.178
	C9.707,44.428,9.021,44.114,8.408,43.805L8.408,43.805z"/>
<path id="path52_2_" inkscape:connector-curvature="0" d="M8.228,43.805l-3.686,6.869L2.747,54.02
	c0.401,0.562,0.905,1.099,1.487,1.587c2.785,2.334,7.368,3.56,11.144,1.146l0.512-9.833c-2.119-0.629-4.272-1.65-5.582-2.178
	C9.526,44.428,8.84,44.114,8.228,43.805L8.228,43.805z"/>
<path id="path54_2_" inkscape:connector-curvature="0" fill="#333333" d="M11.358,51.15c0.735,0.734,1.767,1.197,2.325,1.084
	c0.859-0.175,1.317-1.49,1.023-2.939c-0.145-0.712-0.445-1.324-0.815-1.742C12.125,45.561,8.778,48.57,11.358,51.15L11.358,51.15z"
	/>
<path id="path56_2_" inkscape:connector-curvature="0" fill="#1A1A1A" d="M7.609,45.348c4.935,1.211-2.249,6.848,8.126,7.992
	l0.364-6.42c-2.119-0.629-4.272-1.65-5.582-2.178c-0.782-0.314-1.467-0.628-2.08-0.938L7.609,45.348L7.609,45.348z"/>
<path id="path58_2_" inkscape:connector-curvature="0" fill="#FFFFFF" d="M8.408,43.805l-3.686,6.869L2.927,54.02
	c0.401,0.562,0.905,1.099,1.487,1.587c2.785,2.333,7.368,3.56,11.144,1.146l0.512-9.833c-2.119-0.629-4.271-1.65-5.582-2.178
	C9.707,44.428,9.021,44.114,8.408,43.805L8.408,43.805z"/>
<path id="path60_2_" inkscape:connector-curvature="0" fill="#D2D3D5" d="M8.235,43.805l-3.686,6.869L2.754,54.02
	c0.401,0.562,0.905,1.099,1.487,1.587c2.784,2.333,7.368,3.56,11.144,1.146l0.512-9.833c-2.119-0.629-4.271-1.65-5.582-2.178
	C9.533,44.428,8.847,44.114,8.235,43.805L8.235,43.805z"/>
<path id="path62_2_" inkscape:connector-curvature="0" fill="none" d="M7.577,45.756c4.203,1.204-2.652,6.814,8.186,8.006"/>
<path id="path64_2_" inkscape:connector-curvature="0" fill="#FFFFFF" d="M7.976,46.266l-4.639,8.447l2.706,1.909l2.74-9.001
	c-0.15-0.094-0.089-0.609-0.338-0.793C8.285,46.71,8.178,46.42,7.976,46.266L7.976,46.266z"/>
<path id="path66_2_" inkscape:connector-curvature="0" fill="#666666" d="M7.198,46.101c1.558,0.446,1.542,1.53,1.523,2.763
	c-0.031,2.056-0.069,4.504,6.676,5.244l0.016-0.15c-6.606-0.727-6.57-3.1-6.54-5.092c0.02-1.294,0.037-2.434-1.633-2.912
	L7.198,46.101L7.198,46.101z"/>
<path id="path70_2_" inkscape:connector-curvature="0" fill="#CCCCCC" d="M14.56,52.02c0.148,1.11,0.323,2.215,0.749,3.263
	c0.477,1.171,1.269,2.27,2.321,2.775c0.92,0.44,2.04,0.428,3.185,0.356l0.122,1.342c-1.169,0.069-2.141,0.093-3.116-0.124
	c-1.136-0.252-1.964-0.849-2.636-1.62c-0.67-0.772-1.186-1.72-1.582-2.998c-0.304-0.98-0.539-2.157-0.756-3.377L14.56,52.02
	L14.56,52.02z"/>
<path id="path72_2_" inkscape:connector-curvature="0" fill="#CCCCCC" d="M11.816,50.979c0.655,0.654,1.574,1.067,2.071,0.967
	c0.765-0.156,1.174-1.328,0.912-2.619c-0.129-0.635-0.396-1.181-0.726-1.553C12.499,45.999,9.517,48.681,11.816,50.979
	L11.816,50.979z"/>
<path id="path74_2_" inkscape:connector-curvature="0" d="M11.682,51.113c0.339,0.339,0.747,0.616,1.135,0.798
	c0.403,0.188,0.794,0.274,1.083,0.225h0.002l0.022-0.005c0.454-0.092,0.797-0.471,0.984-1.007c0.174-0.503,0.215-1.151,0.079-1.829
	l0,0l0,0l-0.001-0.006c-0.067-0.327-0.168-0.632-0.295-0.903c-0.133-0.285-0.295-0.535-0.475-0.737
	c-0.579-0.653-1.33-0.765-1.984-0.529c-0.289,0.104-0.558,0.276-0.782,0.499c-0.225,0.222-0.407,0.495-0.522,0.804
	C10.632,49.199,10.757,50.189,11.682,51.113L11.682,51.113z M12.978,51.566c-0.351-0.164-0.719-0.414-1.027-0.723h0
	c-0.799-0.799-0.914-1.639-0.668-2.289c0.096-0.254,0.248-0.481,0.435-0.666c0.186-0.184,0.407-0.326,0.642-0.41
	c0.517-0.188,1.111-0.098,1.571,0.422c0.156,0.176,0.298,0.395,0.416,0.646c0.114,0.244,0.206,0.518,0.266,0.811h0v0.001
	l0.001,0.006c0.124,0.61,0.09,1.191-0.064,1.635c-0.143,0.409-0.387,0.695-0.697,0.759H13.85
	C13.639,51.801,13.321,51.727,12.978,51.566L12.978,51.566z"/>
<path id="path76_2_" inkscape:connector-curvature="0" fill="#FFFFFF" d="M12.915,47.497c-1.026-0.054-2.155,1.454-1.292,2.667
	c-0.006-1.689,3.548,0.642,2.583-1.591C14.022,48.147,13.633,47.534,12.915,47.497L12.915,47.497z"/>
<path id="path78_2_" inkscape:connector-curvature="0" d="M21.858,59.475c0.097,0.634,0.481,1.214,1.088,1.541
	c1.029,0.554,2.312,0.17,2.866-0.859c0.042-0.08,0.08-0.16,0.111-0.242l-0.311-0.031c-0.006,0.013-0.013,0.025-0.02,0.039
	c-0.393,0.729-1.305,1.003-2.035,0.609c-0.385-0.208-0.644-0.56-0.745-0.953L21.858,59.475L21.858,59.475z"/>
<path id="path80_2_" inkscape:connector-curvature="0" d="M24.057,56.176c-1.164-0.107-2.193,0.751-2.298,1.914
	c-0.008,0.087-0.011,0.173-0.008,0.256l0.936-0.285c0.082-0.82,0.81-1.425,1.632-1.35c0.414,0.038,0.771,0.237,1.019,0.534
	l0.313-0.1C25.309,56.612,24.735,56.236,24.057,56.176L24.057,56.176z"/>
<path id="path82_2_" inkscape:connector-curvature="0" d="M14.348,51.871c0.077,0.586,0.159,1.171,0.279,1.756
	c0.12,0.587,0.278,1.166,0.506,1.727c0.258,0.635,0.608,1.252,1.042,1.77c0.391,0.469,0.851,0.855,1.374,1.105
	c0.498,0.24,1.046,0.352,1.623,0.394c0.567,0.041,1.158,0.015,1.755-0.023l-0.024-0.381c-0.583,0.037-1.159,0.063-1.703,0.022
	c-0.534-0.037-1.039-0.139-1.487-0.354c-0.47-0.227-0.889-0.58-1.247-1.008c-0.406-0.486-0.735-1.066-0.98-1.668
	c-0.22-0.54-0.372-1.097-0.487-1.66c-0.116-0.563-0.196-1.146-0.272-1.729L14.348,51.871L14.348,51.871z"/>
<rect id="rect92_2_" x="20.781" y="57.883" transform="matrix(0.9951 -0.0985 0.0985 0.9951 -5.706 2.4053)" fill="#808080" width="1.437" height="2.182"/>
<polygon id="polygon94_2_" fill="#1A1A1A" points="22.323,59.989 21.608,60.06 21.393,57.889 22.108,57.817 "/>
<path id="path96_2_" inkscape:connector-curvature="0" d="M20.887,58.13l1.051-0.104l0.178,1.792l-1.052,0.105L20.887,58.13
	L20.887,58.13z M22.09,57.628l-1.431,0.142l-0.189,0.019l0.018,0.189l0.216,2.172l0.018,0.189l0.189-0.02l1.431-0.141l0.188-0.02
	l-0.018-0.189l-0.216-2.171l-0.019-0.189L22.09,57.628L22.09,57.628z"/>
<path id="path98_2_" inkscape:connector-curvature="0" fill="#666666" d="M14.661,52.393c-0.363,0.218-0.571,0.34-1.006,0.423
	c-0.05,0.01-0.085,0.015-0.119,0.007L13.5,52.762h0c-0.232-0.397-0.184-0.328-0.407-0.736c0.302,0.106,0.584,0.148,0.807,0.111
	h0.002l0.022-0.006c0.188-0.037,0.355-0.125,0.502-0.25l0.006,0.012l0.001,0.002l0.007,0.016l0.004,0.008l0.002,0.006l0.006,0.013
	l0.003,0.006l0.003,0.007c0.071,0.145,0.143,0.289,0.215,0.434L14.661,52.393L14.661,52.393z"/>
<circle id="circle100_2_" sodipodi:ry="0.054621302" sodipodi:rx="0.054621302" sodipodi:cy="1.28891" sodipodi:cx="0.30783501" fill="#147AB4" stroke="#000000" stroke-width="0.0079" cx="22.135" cy="58.881" r="0.993">
</circle>
<path id="path102_2_" inkscape:connector-curvature="0" fill="#FFFFFF" d="M22.291,58.08c-0.416-0.075-0.815,0.181-0.928,0.579
	c0.271,0.162,0.595,0.284,0.948,0.349c0.218,0.039,0.43,0.052,0.632,0.044l0.005-0.025C23.027,58.582,22.732,58.159,22.291,58.08z"
	/>
<path id="path34_3_" inkscape:connector-curvature="0" fill="#808080" d="M43.316,44.091l-0.126,1.574
	c0.762,0.08,1.728,0.203,2.77,0.301l0.125-1.573C45.021,44.288,44.051,44.162,43.316,44.091L43.316,44.091z"/>
<path id="path36_3_" inkscape:connector-curvature="0" fill="#1A1A1A" d="M43.316,45.091l-0.054,0.786
	c0.762,0.08,1.728,0.204,2.771,0.301l0.052-0.785C45.021,45.288,44.051,45.162,43.316,45.091L43.316,45.091z"/>
<path id="path40_3_" inkscape:connector-curvature="0" d="M43.127,44.075l-0.125,1.574l-0.016,0.186l0.186,0.02
	c0.281,0.029,0.576,0.062,0.887,0.101c0.571,0.063,1.209,0.137,1.885,0.199l0.192,0.019l0.015-0.192l0.125-1.572l0.015-0.186
	l-0.187-0.02c-0.547-0.054-1.109-0.118-1.62-0.177c-0.409-0.046-0.784-0.09-1.149-0.126l-0.192-0.019L43.127,44.075L43.127,44.075z
	 M43.395,45.494L43.49,44.3c0.274,0.027,0.601,0.065,0.95,0.105c0.437,0.05,0.912,0.104,1.441,0.157l-0.096,1.194
	c-0.596-0.056-1.166-0.123-1.685-0.183C43.851,45.546,43.612,45.519,43.395,45.494L43.395,45.494z"/>
<path id="path42_3_" inkscape:connector-curvature="0" fill="#D2D3D5" stroke="#000000" stroke-width="0.0095" d="M54.627,40.982
	c0.538,5.005-8.103,3.404-11.432,3.096C22.539,42.169,53.016,25.99,54.627,40.982z"/>
<path id="path44_3_" inkscape:connector-curvature="0" fill="#D2D3D5" d="M54.416,40.972c0.526,4.898-7.928,3.332-11.185,3.03
	C23.02,42.135,52.841,26.303,54.416,40.972z"/>
<path id="path46_3_" inkscape:connector-curvature="0" fill="#787878" d="M48.563,44.558c-2.025-0.052-4.089-0.36-5.368-0.479
	c-16.479-1.522-0.414-12.129,7.574-8.741c-6.524-1.071-12.905,2.33-12.795,5.085C38.062,42.553,43.027,44,48.563,44.558z"/>
<path id="path48_3_" inkscape:connector-curvature="0" fill="#5DB4E5" stroke="#000000" stroke-width="0.0095" d="M54.486,40.396
	l0.003,0.016c-0.303,0.053-0.616,0.1-0.938,0.141c-3.128,0.385-5.892-0.062-6.172-1s2.028-2.01,5.157-2.395
	c0.189-0.023,0.378-0.044,0.564-0.062C53.83,37.868,54.331,38.944,54.486,40.396L54.486,40.396z"/>
<path id="path86_3_" inkscape:connector-curvature="0" fill="#467DC0" stroke="#000000" stroke-width="0.0095" d="M54.492,40.393
	l0.003,0.016c-0.303,0.054-0.616,0.102-0.938,0.142c-3.128,0.386-5.892-0.062-6.172-0.999c-0.28-0.938,2.028-2.01,5.156-2.396
	c0.19-0.023,0.379-0.044,0.565-0.062C53.835,37.866,54.337,38.942,54.492,40.393L54.492,40.393z"/>
<path id="path88_3_" inkscape:connector-curvature="0" fill="#FFFFFF" d="M47.7,39.452c0.026-0.922,2.627-1.658,3.807-1.773
	c0.187,0.183,0.347,0.408,0.465,0.685C52.129,39.709,49.124,39.089,47.7,39.452L47.7,39.452z"/>
<path id="path90_3_" inkscape:connector-curvature="0" fill="#FFFFFF" d="M49.249,35.414c-1.816-0.032-4.393,0.315-6.557,1.389
	c-2.682,1.331-4.615,3.562-2.314,5.015c-3.353-3.312,6.589-4.686,9.548-4.8C53.881,36.864,51.068,35.447,49.249,35.414
	L49.249,35.414z"/>
<circle id="circle10_3_" sodipodi:ry="0.16874801" sodipodi:rx="0.16874801" sodipodi:cy="1.30922" sodipodi:cx="1.29941" fill="#3669F0" stroke="#000000" stroke-width="0.0197" cx="37.885" cy="56.244" r="3.068">
</circle>
<path id="path12_3_" inkscape:connector-curvature="0" fill="#275C9C" d="M37.885,53.538c-1.495,0-2.707,1.212-2.707,2.706
	c0,1.496,1.212,2.707,2.707,2.707c0.15,0,0.297-0.012,0.441-0.035c-1.415-0.089-2.535-1.265-2.535-2.701
	c0-1.346,0.98-2.461,2.266-2.672C38,53.539,37.942,53.538,37.885,53.538L37.885,53.538z"/>
<path id="path14_3_" inkscape:connector-curvature="0" fill="#CCCCCC" d="M45.739,51.148c0.876,0.415,1.763,0.807,2.725,0.99
	c1.074,0.204,2.246,0.146,3.107-0.382c0.754-0.461,1.271-1.28,1.758-2.146l1.032,0.542c-0.5,0.883-0.94,1.6-1.557,2.206
	c-0.717,0.707-1.54,1.028-2.417,1.152c-0.877,0.126-1.807,0.053-2.922-0.259c-0.856-0.24-1.821-0.624-2.812-1.039L45.739,51.148
	L45.739,51.148z"/>
<path id="path16_3_" inkscape:connector-curvature="0" d="M54.179,49.125c0.412,0.371,0.988,0.55,1.573,0.435
	c0.993-0.194,1.641-1.155,1.446-2.148c-0.015-0.076-0.034-0.151-0.06-0.224l-0.223,0.15c0.002,0.013,0.006,0.024,0.007,0.036
	c0.139,0.705-0.321,1.389-1.027,1.526c-0.371,0.073-0.738-0.022-1.021-0.231L54.179,49.125L54.179,49.125z"/>
<path id="path18_3_" inkscape:connector-curvature="0" d="M53.966,46.219c-0.824,0.587-1.016,1.73-0.429,2.555
	c0.044,0.061,0.09,0.118,0.139,0.172l0.454-0.716c-0.41-0.584-0.273-1.391,0.31-1.807c0.291-0.208,0.641-0.278,0.969-0.224
	l0.149-0.242C55.033,45.799,54.445,45.877,53.966,46.219L53.966,46.219z"/>
<path id="path20_3_" inkscape:connector-curvature="0" d="M45.532,51.233c0.462,0.219,0.925,0.435,1.407,0.623
	c0.482,0.189,0.978,0.346,1.492,0.444c0.584,0.11,1.196,0.146,1.776,0.076c0.523-0.065,1.022-0.217,1.45-0.479
	c0.407-0.25,0.747-0.596,1.047-0.995c0.297-0.393,0.558-0.835,0.81-1.287l-0.287-0.162c-0.248,0.442-0.5,0.873-0.784,1.25
	c-0.279,0.369-0.591,0.688-0.957,0.913c-0.387,0.235-0.84,0.373-1.318,0.432c-0.544,0.066-1.121,0.033-1.674-0.072
	c-0.496-0.094-0.972-0.244-1.435-0.426c-0.465-0.182-0.925-0.397-1.386-0.616L45.532,51.233L45.532,51.233z"/>
<path id="path22_3_" inkscape:connector-curvature="0" d="M44.266,52.23c0.521,0.22,1.053,0.442,1.586,0.647l0,0
	c0.531,0.205,1.061,0.391,1.569,0.533c0.518,0.146,1.046,0.244,1.558,0.29c0.501,0.045,0.987,0.039,1.432-0.025
	c0.454-0.063,0.895-0.181,1.315-0.371c0.421-0.191,0.821-0.46,1.194-0.828c0.33-0.322,0.609-0.676,0.873-1.067
	c0.26-0.384,0.506-0.809,0.77-1.277l-0.287-0.162c-0.26,0.46-0.501,0.877-0.757,1.256c-0.252,0.375-0.519,0.711-0.829,1.017
	c-0.344,0.339-0.713,0.585-1.103,0.763c-0.389,0.178-0.799,0.283-1.222,0.345c-0.421,0.059-0.881,0.065-1.357,0.022
	c-0.489-0.044-0.996-0.139-1.497-0.278c-0.497-0.141-1.018-0.322-1.541-0.524v0.001c-0.525-0.202-1.057-0.426-1.576-0.644
	L44.266,52.23L44.266,52.23z"/>
<rect id="rect24_3_" x="53.437" y="48.431" transform="matrix(0.4585 -0.8887 0.8887 0.4585 -14.6069 74.78)" fill="#808080" width="1.244" height="1.889"/>
<polygon id="polygon26_3_" fill="#1A1A1A" points="55.183,49.255 54.897,49.809 53.219,48.943 53.504,48.391 "/>
<path id="path28_3_" inkscape:connector-curvature="0" d="M53.156,49.425l0.418-0.812l1.387,0.713l-0.419,0.814L53.156,49.425z
	 M53.357,48.314l-0.57,1.106l-0.075,0.147l0.147,0.074l1.679,0.865l0.146,0.075l0.075-0.146l0.569-1.105l0.075-0.146l-0.146-0.075
	l-1.68-0.867l-0.146-0.074L53.357,48.314L53.357,48.314z"/>
<circle id="circle30_3_" sodipodi:ry="0.051192898" sodipodi:rx="0.051192898" sodipodi:cy="0" sodipodi:cx="0" fill="#147AB4" stroke="#000000" stroke-width="0.0079" cx="54.29" cy="48.872" r="0.86">
</circle>
<path id="path32_3_" inkscape:connector-curvature="0" fill="#FFFFFF" d="M53.779,48.382c-0.25,0.268-0.251,0.677-0.015,0.945
	c0.245-0.12,0.487-0.297,0.699-0.525c0.13-0.139,0.239-0.286,0.329-0.438l-0.017-0.017C54.492,48.082,54.045,48.098,53.779,48.382
	L53.779,48.382z"/>
<path id="path38_3_" inkscape:connector-curvature="0" fill="#333333" d="M40.422,43.766l-3.686,6.869l-1.795,3.346
	c0.4,0.562,0.904,1.099,1.486,1.587c2.785,2.333,7.368,3.56,11.145,1.146l0.512-9.833c-2.119-0.629-4.271-1.65-5.582-2.178
	C41.721,44.389,41.035,44.075,40.422,43.766L40.422,43.766z"/>
<path id="path50_3_" inkscape:connector-curvature="0" fill="#CCCCCC" d="M40.373,43.766l-3.686,6.869l-1.795,3.346
	c0.4,0.562,0.904,1.099,1.486,1.587c2.785,2.333,7.368,3.56,11.145,1.146l0.512-9.833c-2.119-0.629-4.271-1.65-5.582-2.178
	C41.672,44.389,40.986,44.075,40.373,43.766L40.373,43.766z"/>
<path id="path52_3_" inkscape:connector-curvature="0" d="M40.193,43.766l-3.686,6.869l-1.796,3.346
	c0.401,0.562,0.905,1.099,1.487,1.587c2.784,2.334,7.367,3.56,11.144,1.146l0.513-9.833c-2.119-0.629-4.272-1.65-5.582-2.178
	C41.491,44.389,40.806,44.075,40.193,43.766L40.193,43.766z"/>
<path id="path54_3_" inkscape:connector-curvature="0" fill="#333333" d="M43.324,51.111c0.734,0.734,1.767,1.197,2.324,1.084
	c0.859-0.175,1.317-1.49,1.023-2.939c-0.145-0.712-0.445-1.324-0.814-1.742C44.091,45.521,40.744,48.531,43.324,51.111
	L43.324,51.111z"/>
<path id="path56_3_" inkscape:connector-curvature="0" fill="#1A1A1A" d="M39.574,45.309c4.936,1.211-2.248,6.848,8.127,7.992
	l0.363-6.42c-2.119-0.629-4.271-1.65-5.582-2.178c-0.782-0.314-1.467-0.628-2.08-0.938L39.574,45.309L39.574,45.309z"/>
<path id="path58_3_" inkscape:connector-curvature="0" fill="#FFFFFF" d="M40.373,43.766l-3.686,6.869l-1.795,3.346
	c0.4,0.562,0.904,1.099,1.486,1.587c2.785,2.333,7.368,3.56,11.145,1.146l0.512-9.833c-2.119-0.629-4.271-1.65-5.582-2.178
	C41.672,44.389,40.986,44.075,40.373,43.766L40.373,43.766z"/>
<path id="path60_3_" inkscape:connector-curvature="0" fill="#D2D3D5" d="M40.2,43.766l-3.686,6.869l-1.796,3.346
	c0.401,0.562,0.905,1.099,1.487,1.587c2.784,2.333,7.368,3.56,11.144,1.146l0.512-9.833c-2.118-0.629-4.271-1.65-5.581-2.178
	C41.498,44.389,40.812,44.075,40.2,43.766L40.2,43.766z"/>
<path id="path62_3_" inkscape:connector-curvature="0" fill="none" d="M39.542,45.717c4.202,1.204-2.651,6.814,8.186,8.006"/>
<path id="path64_3_" inkscape:connector-curvature="0" fill="#FFFFFF" d="M39.941,46.227l-4.639,8.447l2.705,1.909l2.74-9.001
	c-0.149-0.094-0.089-0.609-0.338-0.793C40.25,46.671,40.144,46.381,39.941,46.227L39.941,46.227z"/>
<path id="path66_3_" inkscape:connector-curvature="0" fill="#666666" d="M39.163,46.062c1.558,0.446,1.542,1.53,1.522,2.763
	c-0.031,2.056-0.068,4.504,6.676,5.244l0.016-0.15c-6.605-0.727-6.569-3.1-6.539-5.092c0.02-1.294,0.037-2.434-1.633-2.912
	L39.163,46.062L39.163,46.062z"/>
<path id="path70_3_" inkscape:connector-curvature="0" fill="#CCCCCC" d="M46.561,51.754c0.491,1.007,1.006,2,1.74,2.859
	c0.822,0.961,1.92,1.754,3.078,1.901c1.013,0.128,2.07-0.237,3.135-0.666l0.539,1.234c-1.088,0.435-2.002,0.764-2.996,0.865
	c-1.157,0.119-2.132-0.186-3.013-0.706c-0.88-0.521-1.667-1.258-2.446-2.346c-0.598-0.834-1.191-1.877-1.783-2.966L46.561,51.754
	L46.561,51.754z"/>
<path id="path72_3_" inkscape:connector-curvature="0" fill="#CCCCCC" d="M43.781,50.939c0.655,0.654,1.574,1.067,2.071,0.967
	c0.765-0.156,1.174-1.328,0.911-2.619c-0.129-0.635-0.396-1.181-0.726-1.553C44.465,45.96,41.482,48.642,43.781,50.939
	L43.781,50.939z"/>
<path id="path74_3_" inkscape:connector-curvature="0" d="M43.646,51.074c0.34,0.339,0.747,0.616,1.136,0.798
	c0.403,0.188,0.794,0.274,1.083,0.225h0.002l0.022-0.005c0.454-0.092,0.797-0.471,0.983-1.007c0.175-0.503,0.215-1.151,0.079-1.829
	l0,0l0,0l-0.001-0.006c-0.067-0.327-0.168-0.632-0.295-0.903c-0.134-0.285-0.296-0.535-0.476-0.737
	c-0.579-0.653-1.33-0.765-1.984-0.529c-0.288,0.104-0.558,0.276-0.782,0.499c-0.225,0.222-0.406,0.495-0.522,0.804
	C42.598,49.16,42.723,50.15,43.646,51.074L43.646,51.074z M44.943,51.527c-0.351-0.164-0.719-0.414-1.027-0.723l0,0
	c-0.799-0.799-0.914-1.639-0.668-2.289c0.096-0.254,0.248-0.481,0.435-0.666c0.187-0.184,0.407-0.326,0.642-0.41
	c0.518-0.188,1.111-0.098,1.571,0.422c0.156,0.176,0.298,0.395,0.415,0.646c0.115,0.244,0.206,0.518,0.266,0.811l0,0v0.001
	l0.002,0.006c0.123,0.61,0.09,1.191-0.064,1.635c-0.143,0.409-0.387,0.695-0.697,0.759h-0.002
	C45.604,51.762,45.287,51.688,44.943,51.527L44.943,51.527z"/>
<path id="path76_3_" inkscape:connector-curvature="0" fill="#FFFFFF" d="M44.88,47.458c-1.026-0.054-2.155,1.454-1.292,2.667
	c-0.006-1.689,3.549,0.642,2.584-1.591C45.987,48.108,45.598,47.495,44.88,47.458L44.88,47.458z"/>
<path id="path78_3_" inkscape:connector-curvature="0" d="M55.839,56.525c0.292,0.57,0.839,1,1.519,1.119
	c1.151,0.201,2.247-0.568,2.448-1.72c0.015-0.089,0.025-0.177,0.029-0.265l-0.305,0.068c-0.002,0.014-0.004,0.028-0.007,0.043
	c-0.143,0.816-0.922,1.363-1.738,1.221c-0.432-0.076-0.788-0.328-1.008-0.67L55.839,56.525L55.839,56.525z"/>
<path id="path80_3_" inkscape:connector-curvature="0" d="M56.884,52.701c-1.138,0.266-1.844,1.404-1.577,2.542
	c0.02,0.085,0.044,0.167,0.073,0.245l0.798-0.565c-0.182-0.805,0.318-1.607,1.123-1.796c0.404-0.095,0.807-0.018,1.135,0.186
	l0.266-0.193C58.21,52.721,57.547,52.545,56.884,52.701L56.884,52.701z"/>
<path id="path82_3_" inkscape:connector-curvature="0" d="M46.312,51.68c0.258,0.531,0.52,1.061,0.818,1.578
	c0.299,0.52,0.632,1.019,1.025,1.479c0.445,0.521,0.973,0.996,1.547,1.351c0.519,0.321,1.077,0.544,1.652,0.616
	c0.548,0.07,1.104,0.003,1.664-0.139c0.551-0.141,1.104-0.352,1.658-0.576l-0.143-0.354c-0.542,0.219-1.08,0.426-1.609,0.559
	c-0.519,0.133-1.029,0.195-1.522,0.133c-0.518-0.066-1.026-0.27-1.501-0.562c-0.539-0.333-1.034-0.78-1.456-1.273
	c-0.379-0.443-0.698-0.924-0.985-1.422c-0.288-0.498-0.548-1.025-0.805-1.555L46.312,51.68L46.312,51.68z"/>
<rect id="rect92_3_" x="54.622" y="55.072" transform="matrix(0.9131 -0.4077 0.4077 0.9131 -18.0881 27.4382)" fill="#808080" width="1.437" height="2.182"/>
<polygon id="polygon94_3_" fill="#1A1A1A" points="56.442,56.867 55.786,57.159 54.896,55.167 55.553,54.874 "/>
<path id="path96_3_" inkscape:connector-curvature="0" d="M54.492,55.556l0.965-0.431l0.734,1.645l-0.965,0.432L54.492,55.556
	L54.492,55.556z M55.476,54.7l-1.312,0.586l-0.174,0.077l0.077,0.174l0.89,1.993l0.077,0.174l0.174-0.078l1.313-0.585l0.173-0.078
	l-0.077-0.174l-0.89-1.992l-0.077-0.174L55.476,54.7L55.476,54.7z"/>
<path id="path98_3_" inkscape:connector-curvature="0" fill="#666666" d="M46.627,52.354c-0.363,0.218-0.572,0.34-1.006,0.423
	c-0.051,0.01-0.086,0.015-0.119,0.007l-0.036-0.061h-0.001c-0.231-0.397-0.184-0.328-0.406-0.736
	c0.302,0.106,0.584,0.148,0.807,0.111h0.002l0.022-0.006c0.188-0.037,0.355-0.125,0.502-0.25l0.007,0.012v0.002l0.008,0.016
	l0.004,0.008l0.002,0.006l0.007,0.013l0.003,0.006l0.004,0.007c0.07,0.145,0.143,0.289,0.215,0.434L46.627,52.354L46.627,52.354z"/>
<circle id="circle100_3_" sodipodi:ry="0.054621302" sodipodi:rx="0.054621302" sodipodi:cy="1.28891" sodipodi:cx="0.30783501" fill="#147AB4" stroke="#000000" stroke-width="0.0079" cx="55.914" cy="55.875" r="0.993">
</circle>
<path id="path102_3_" inkscape:connector-curvature="0" fill="#FFFFFF" d="M55.809,55.065c-0.418,0.061-0.717,0.429-0.697,0.843
	c0.309,0.068,0.654,0.082,1.01,0.031c0.219-0.031,0.424-0.086,0.613-0.157l-0.003-0.026C56.666,55.31,56.253,55.001,55.809,55.065z"
	/>
</svg>
