<?xml version="1.0" encoding="UTF-8" standalone="no"?>
<!-- Created with Inkscape (http://www.inkscape.org/) -->

<svg
   xmlns:dc="http://purl.org/dc/elements/1.1/"
   xmlns:cc="http://creativecommons.org/ns#"
   xmlns:rdf="http://www.w3.org/1999/02/22-rdf-syntax-ns#"
   xmlns:svg="http://www.w3.org/2000/svg"
   xmlns="http://www.w3.org/2000/svg"
   xmlns:sodipodi="http://sodipodi.sourceforge.net/DTD/sodipodi-0.dtd"
   xmlns:inkscape="http://www.inkscape.org/namespaces/inkscape"
   version="1.1"
   width="64"
   height="64"
   viewBox="0 0 0.71111116 0.71111116"
   id="svg2"
   xml:space="preserve"
   style="fill-rule:evenodd"
   inkscape:version="0.48.2 r9819"
   sodipodi:docname="robot.svg"><sodipodi:namedview
   pagecolor="#ffffff"
   bordercolor="#666666"
   borderopacity="1"
   objecttolerance="10"
   gridtolerance="10"
   guidetolerance="10"
   inkscape:pageopacity="0"
   inkscape:pageshadow="2"
   inkscape:window-width="1366"
   inkscape:window-height="716"
   id="namedview53"
   showgrid="false"
   inkscape:zoom="7.3945083"
   inkscape:cx="33.240585"
   inkscape:cy="31.760032"
   inkscape:window-x="-8"
   inkscape:window-y="-8"
   inkscape:window-maximized="1"
   inkscape:current-layer="layer1" /><metadata
   id="metadata110"><rdf:RDF><cc:Work
       rdf:about=""><dc:format>image/svg+xml</dc:format><dc:type
         rdf:resource="http://purl.org/dc/dcmitype/StillImage" /><dc:title /></cc:Work></rdf:RDF></metadata>
 <defs
   id="defs4"><style
     type="text/css"
     id="style6" /></defs>
 
<g
   inkscape:groupmode="layer"
   id="layer1"
   inkscape:label="Head and Neck"
   style="display:inline"><path
     inkscape:connector-curvature="0"
     style="fill:#808080;fill-rule:evenodd"
     id="path34"
     d="m 0.25337002,0.25745921 -0.0151059,0.0389561 c 0.018693,0.007814 0.0422326,0.018265 0.0679218,0.0286342 l 0.0150889,-0.0389182 c -0.0261646,-0.010712 -0.0497874,-0.0212669 -0.0679045,-0.0286721 z" /><path
     inkscape:connector-curvature="0"
     style="fill:#1a1a1a;fill-rule:evenodd"
     id="path36"
     d="m 0.25337002,0.25745921 -0.007311,0.0195434 c 0.0186911,0.007814 0.0422307,0.018265 0.0679218,0.0286342 l 0.007293,-0.0195055 c -0.0261646,-0.010712 -0.0497874,-0.0212669 -0.0679045,-0.0286721 z" /><path
     inkscape:connector-curvature="0"
     style="fill:#000000;fill-rule:nonzero"
     id="path40"
     d="m 0.24867491,0.25564467 -0.0151042,0.0389561 -0.001775,0.004578 0.004536,0.001894 c 0.006947,0.002905 0.0140983,0.005972 0.0217328,0.009244 0.0139885,0.005994 0.0295812,0.0126836 0.0462477,0.0194089 l 0.004723,0.001907 0.001849,-0.004769 0.0150889,-0.0389182 0.00178,-0.004595 -0.004582,-0.001877 C 0.30970085,0.27595924 0.29594336,0.27005971 0.2834359,0.264698 0.27341896,0.2604065 0.26425613,0.25647271 0.2552676,0.2528023 l -0.004738,-0.001936 -0.001852,0.004778 z m -0.00394,0.0380186 0.0114734,-0.0295925 c 0.006756,0.002818 0.0147328,0.00624 0.0232801,0.009901 0.0106742,0.004576 0.0223104,0.009564 0.035316,0.0149336 l -0.0114601,0.0295528 c -0.014638,-0.005971 -0.0286398,-0.0119768 -0.0413291,-0.017418 -0.006142,-0.002632 -0.0119866,-0.005138 -0.0172802,-0.007377 z" /><path
     inkscape:connector-curvature="0"
     style="fill:#d2d3d5;fill-rule:evenodd;stroke:#000000;stroke-width:0.00946959"
     id="path42"
     d="M 0.56364173,0.2644326 C 0.53931623,0.39538961 0.33243548,0.2892922 0.25039854,0.2562526 -0.25870338,0.05121677 0.63649146,-0.12779535 0.56364173,0.2644326 z" /><path
     inkscape:connector-curvature="0"
     style="fill:#d2d3d5;fill-rule:evenodd"
     id="path44"
     d="M 0.55838812,0.26259737 C 0.53458718,0.3907402 0.33215358,0.2869229 0.25187971,0.25459365 -0.24627817,0.05396478 0.62967201,-0.12119649 0.55838812,0.26259737 z" /><path
     inkscape:connector-curvature="0"
     style="fill:#787878;fill-rule:evenodd"
     id="path46"
     d="M 0.38286317,0.30911023 C 0.33190343,0.29243422 0.28192841,0.2689515 0.25039854,0.25625272 -0.15577031,0.09267096 0.33189236,-0.05432783 0.50870125,0.09209514 0.35142806,0.01546334 0.16390701,0.05330761 0.14582362,0.12396228 c -0.0139963,0.0546793 0.10093476,0.12901402 0.23703955,0.185148 z" /><path
     inkscape:connector-curvature="0"
     style="fill:#5db4e5;fill-rule:evenodd;stroke:#000000;stroke-width:0.00946959"
     id="path48"
     d="m 0.56456247,0.2485106 -8.901e-5,4.1666e-4 c -0.008064,-9.4335e-4 -0.0163484,-0.002123 -0.024799,-0.003559 -0.0822207,-0.0139563 -0.14887202,-0.0462515 -0.14887202,-0.0721339 0,-0.0258823 0.0666508,-0.0355489 0.14887202,-0.0215926 0.004987,8.4666e-4 0.009915,0.001761 0.0147745,0.002737 0.0126022,0.0250907 0.0171627,0.0561831 0.0101135,0.0941317 z" /><path
     inkscape:connector-curvature="0"
     style="fill:#467dc0;fill-rule:evenodd;stroke:#000000;stroke-width:0.00946959"
     id="path86"
     d="m 0.56471786,0.2485106 -8.712e-5,4.1666e-4 c -0.008066,-9.4335e-4 -0.0163502,-0.002123 -0.024799,-0.003559 -0.0822226,-0.0139563 -0.14887347,-0.0462515 -0.14887347,-0.0721339 0,-0.0258823 0.0666508,-0.0355489 0.14887347,-0.0215926 0.004985,8.4666e-4 0.009913,0.001761 0.0147726,0.002737 0.0126022,0.0250907 0.0171627,0.0561831 0.0101135,0.0941317 z" /><path
     inkscape:connector-curvature="0"
     style="fill:#ffffff;fill-rule:evenodd"
     id="path88"
     d="m 0.39967753,0.17314928 c 0.007661,-0.0231778 0.0791544,-0.0220983 0.10992522,-0.0160756 0.003375,0.006045 0.005665,0.0129734 0.006627,0.020871 -0.006237,0.0352932 -0.0777021,-0.003197 -0.11655177,-0.004795 z" /><path
     inkscape:connector-curvature="0"
     style="fill:#ffffff;fill-rule:evenodd"
     id="path90"
     d="M 0.44420362,0.07495702 C 0.39839532,0.06035109 0.33046988,0.04963528 0.26747026,0.06044577 0.18941021,0.0738415 0.12348481,0.11571818 0.1707967,0.1699693 0.1109167,0.06065214 0.3733575,0.1012028 0.44920709,0.1207293 0.55063253,0.1468408 0.49006659,0.08957994 0.44420309,0.07495698 z" /></g><g
   inkscape:groupmode="layer"
   id="layer2"
   inkscape:label="Body"
   style="display:inline"><circle
     d="m 1.468158,1.30922 c 0,0.093197 -0.075551,0.168748 -0.168748,0.168748 -0.093197,0 -0.168748,-0.075551 -0.168748,-0.168748 0,-0.093197 0.075551,-0.168748 0.168748,-0.168748 0.093197,0 0.168748,0.075551 0.168748,0.168748 z"
     sodipodi:ry="0.16874801"
     sodipodi:rx="0.16874801"
     sodipodi:cy="1.30922"
     sodipodi:cx="1.29941"
     style="fill:#3669f0;fill-rule:evenodd;stroke:#000000;stroke-width:0.019685"
     id="circle10"
     r="0.16874801"
     cy="1.30922"
     cx="1.29941"
     transform="matrix(-0.48105633,0,0,0.48105633,0.73322371,-0.03183171)" /><path
     inkscape:connector-curvature="0"
     style="fill:#275c9c;fill-rule:evenodd"
     id="path12"
     d="m 0.1081343,0.526362 c -0.03955437,0 -0.0716187,0.0320639 -0.0716187,0.0716187 0,0.0395544 0.03206385,0.0716187 0.0716187,0.0716187 0.003974,0 0.007865,-3.2952e-4 0.0116627,-9.5249e-4 -0.03742955,-0.002352 -0.06706213,-0.0334469 -0.06706213,-0.071471 0,-0.0355828 0.02595058,-0.065098 0.05995597,-0.0706681 -0.001506,-9.467e-5 -0.003026,-1.4773e-4 -0.004556,-1.4773e-4 z" /><path
     inkscape:connector-curvature="0"
     style="fill:#cccccc;fill-rule:evenodd"
     id="path14"
     d="m 0.31541474,0.42689543 c 0.0192328,0.0169828 0.0388368,0.0334618 0.0619389,0.0451738 0.0258274,0.0130984 0.0560296,0.0202404 0.0818195,0.0131571 0.0225263,-0.006189 0.0416871,-0.0232308 0.0604255,-0.0416455 l 0.0222593,0.0213729 c -0.0191778,0.0187516 -0.0356531,0.0337514 -0.0557722,0.0446473 -0.0234222,0.0126835 -0.0467098,0.014805 -0.0699124,0.0115319 -0.0232005,-0.003271 -0.0463197,-0.0119355 -0.0723571,-0.0280908 -0.0199828,-0.0123997 -0.041689,-0.0292155 -0.0637909,-0.0470564 l 0.0353898,-0.0190904 z" /><path
     inkscape:connector-curvature="0"
     style="fill:#000000;fill-rule:evenodd"
     id="path16"
     d="m 0.55129735,0.44636089 c 0.013676,0.005299 0.0295888,0.004352 0.0430261,-0.003956 0.0227574,-0.0140756 0.0297971,-0.0439333 0.0157233,-0.0666927 -0.001087,-0.001756 -0.002269,-0.00342 -0.003534,-0.004989 l -0.004153,0.005829 c 1.7614e-4,2.6704e-4 3.4849e-4,5.3782e-4 5.1714e-4,8.125e-4 0.009994,0.0161609 0.004996,0.0373709 -0.0111666,0.0473651 -0.008536,0.005278 -0.018479,0.006373 -0.0274354,0.003852 l -0.0129772,0.0177783 z" /><path
     inkscape:connector-curvature="0"
     style="fill:#000000;fill-rule:evenodd"
     id="path18"
     d="m 0.56070055,0.36204374 c -0.025246,0.008867 -0.0385243,0.0365224 -0.0296588,0.0617686 6.5712e-4,0.001871 0.001421,0.003674 0.002274,0.005411 L 0.55010786,0.414373 c -0.006151,-0.0178729 0.003273,-0.037386 0.0211343,-0.0436606 0.008956,-0.003146 0.0183407,-0.002365 0.0262763,0.001437 l 0.005583,-0.005053 C 0.59094626,0.3592324 0.57541606,0.3568749 0.56070036,0.3620434 z" /><path
     inkscape:connector-curvature="0"
     style="fill:#000000;fill-rule:nonzero"
     id="path20"
     d="m 0.30951892,0.42750493 c 0.0101173,0.008966 0.0203104,0.0178711 0.0311759,0.0261986 0.0108882,0.008345 0.022299,0.0159753 0.0346853,0.0222574 0.0140056,0.007102 0.0293028,0.0125037 0.0445621,0.0149601 0.0137972,0.002218 0.0275793,0.002025 0.0403841,-0.001494 0.012195,-0.00335 0.0233577,-0.009651 0.0339467,-0.0175737 0.0104317,-0.007803 0.0202801,-0.0171495 0.0300224,-0.0267668 l -0.006138,-0.006216 c -0.009515,0.009396 -0.0191059,0.0184998 -0.0290926,0.0259695 -0.009824,0.007352 -0.0200642,0.0131665 -0.0310452,0.0161856 -0.0115321,0.003165 -0.024068,0.003324 -0.0366929,0.001294 -0.0143086,-0.002299 -0.0287327,-0.007409 -0.0420015,-0.0141382 -0.0119109,-0.006042 -0.0228729,-0.013369 -0.0333236,-0.0213786 -0.0104715,-0.008025 -0.0205983,-0.0168748 -0.0306835,-0.0258123 l -0.005799,0.006515 z" /><path
     inkscape:connector-curvature="0"
     style="fill:#000000;fill-rule:nonzero"
     id="path22"
     d="m 0.26997609,0.44354864 c 0.0116135,0.009407 0.0235358,0.0190017 0.0355432,0.0281058 l 7.57e-6,1.515e-5 c 0.0120264,0.009117 0.0241058,0.0177159 0.0359845,0.0250871 0.0120946,0.007504 0.0247895,0.0138919 0.0374637,0.0188141 0.0124165,0.004818 0.0248066,0.008224 0.0365906,0.009886 0.0119904,0.001693 0.024032,0.001987 0.0361322,2.121e-4 0.0121154,-0.001775 0.0242706,-0.005629 0.0364637,-0.0122328 0.0107423,-0.005816 0.0204354,-0.0127403 0.0300016,-0.0207254 0.009445,-0.007883 0.0188085,-0.0168466 0.0289713,-0.0268218 l -0.006106,-0.006229 c -0.009975,0.009789 -0.0191703,0.0185943 -0.0284619,0.0263484 -0.00917,0.007655 -0.0184089,0.0142633 -0.0285566,0.0197575 -0.0112234,0.006078 -0.0224297,0.009627 -0.0336115,0.0112668 -0.0112007,0.00164 -0.0224089,0.001357 -0.0336153,-2.2157e-4 -0.0111268,-0.001568 -0.0228558,-0.004796 -0.0346361,-0.009369 -0.0121287,-0.00471 -0.0243369,-0.0108599 -0.0360281,-0.0181137 -0.0116078,-0.007204 -0.0234733,-0.0156492 -0.035314,-0.0246267 l -3.79e-6,7.6e-6 c -0.0118541,-0.008987 -0.0237309,-0.0185472 -0.035316,-0.0279297 l -0.005509,0.006769 z" /><rect
     style="fill:#808080;fill-rule:evenodd"
     id="rect24"
     transform="matrix(-0.68678481,0.72686081,0.72686081,0.68678481,0,0)"
     y="0.67164332"
     x="-0.065265186"
     height="0.049973182"
     width="0.032926649" /><polygon
     style="fill:#1a1a1a;fill-rule:evenodd"
     id="polygon26"
     points="0.340673,0.99778 0.364177,1.02265 0.439685,0.951307 0.416185,0.926429 "
     transform="matrix(-0.48105633,0,0,0.48105633,0.73322371,-0.03183171)" /><path
     inkscape:connector-curvature="0"
     style="fill:#000000;fill-rule:nonzero"
     id="path28"
     d="M 0.5165646,0.4375922 0.5331895,0.4199958 0.5631779,0.4483308 0.5465511,0.4659253 0.5165647,0.4375922 z m 0.0132821,-0.0267516 -0.0226135,0.0239335 -0.002992,0.003169 0.003169,0.002992 0.0363235,0.0343217 0.003167,0.002992 0.002994,-0.00317 L 0.57251,0.4511472 0.575501,0.4479802 0.572334,0.4449862 0.5360086,0.4106626 0.5328396,0.4076716 0.5298476,0.4108386 z" /><circle
     d="M 0.0511929,0 C 0.0511929,0.02827306 0.02827306,0.0511929 0,0.0511929 -0.02827306,0.0511929 -0.0511929,0.02827306 -0.0511929,0 c 0,-0.02827306 0.02291984,-0.0511929 0.0511929,-0.0511929 0.02827306,0 0.0511929,0.02291984 0.0511929,0.0511929 z"
     sodipodi:ry="0.051192898"
     sodipodi:rx="0.051192898"
     sodipodi:cy="0"
     sodipodi:cx="0"
     style="fill:#147ab4;fill-rule:evenodd;stroke:#000000;stroke-width:0.00787402"
     id="circle30"
     transform="matrix(-0.41027274,0.1705412,0.1705412,0.41027274,0.54943999,0.43184502)"
     r="0.051192898"
     cy="0"
     cx="0" /><path
     inkscape:connector-curvature="0"
     style="fill:#ffffff;fill-rule:evenodd"
     id="path32"
     d="m 0.54008729,0.41564737 c -0.008309,0.004956 -0.0113692,0.0153597 -0.007341,0.0239373 0.007142,-0.001269 0.0145643,-0.003996 0.0216589,-0.008229 0.004311,-0.00257 0.008189,-0.005511 0.0115813,-0.008697 l -3.125e-4,-5.4552e-4 c -0.005278,-0.00885 -0.0167366,-0.0117442 -0.0255869,-0.006466 z" /><path
     inkscape:connector-curvature="0"
     style="fill:#333333;fill-rule:evenodd"
     id="path38"
     d="M 0.17527053,0.26779086 0.077758,0.44953153 0.03025273,0.53807428 c 0.01061162,0.0148675 0.02393736,0.029064 0.03934271,0.041977 0.073668,0.0617513 0.1949322,0.0941735 0.29483846,0.0303446 L 0.3779809,0.35022739 C 0.3219263,0.33357589 0.2649668,0.30657239 0.23030428,0.29261019 0.20961698,0.28427919 0.19147868,0.27600239 0.17527048,0.26779029 z" /><path
     inkscape:connector-curvature="0"
     style="fill:#cccccc;fill-rule:evenodd"
     id="path50"
     d="M 0.17398129,0.26779086 0.07646877,0.44953153 0.0289635,0.53807428 c 0.01061354,0.0148675 0.02393736,0.029064 0.03934271,0.041977 0.073668,0.0617513 0.1949322,0.0941735 0.29483846,0.0303446 l 0.013547,-0.26016849 c -0.0560546,-0.0166514 -0.11301216,-0.0436549 -0.1476766,-0.0576171 -0.0206873,-0.008331 -0.0388256,-0.0166078 -0.0550338,-0.0248199 z" /><path
     inkscape:connector-curvature="0"
     style="fill:#000000;fill-rule:evenodd"
     id="path52"
     d="M 0.16920441,0.26779423 0.07169188,0.4495349 0.02418661,0.53807572 c 0.01061162,0.014867 0.02393736,0.029064 0.0393403,0.041977 0.07366993,0.0617532 0.19493365,0.0941735 0.29484039,0.0303446 L 0.3719148,0.35023075 c -0.0560546,-0.0166533 -0.11301408,-0.0436568 -0.14767852,-0.057619 -0.0206854,-0.008331 -0.0388237,-0.0166078 -0.0550319,-0.024818 z" /><path
     inkscape:connector-curvature="0"
     style="fill:#333333;fill-rule:evenodd"
     id="path54"
     d="m 0.25204231,0.46214098 c 0.0194525,0.0194487 0.046742,0.0316986 0.0615011,0.0287005 0.0227327,-0.004614 0.0348596,-0.0394296 0.0270774,-0.0777551 -0.003833,-0.0188654 -0.0117707,-0.035066 -0.0215566,-0.0461018 -0.0467306,-0.0527156 -0.13528844,0.026907 -0.0670222,0.0951563 z" /><path
     inkscape:connector-curvature="0"
     style="fill:#1a1a1a;fill-rule:evenodd"
     id="path56"
     d="m 0.15282925,0.30862917 c 0.13057648,0.0320281 -0.05948791,0.18119516 0.21501726,0.21146948 l 0.009604,-0.16987157 C 0.321396,0.3335757 0.26443845,0.30657218 0.22977402,0.29261 0.20908672,0.28427863 0.19094858,0.2760022 0.17474021,0.26779014 l -0.0219107,0.0408386 z" /><path
     inkscape:connector-curvature="0"
     style="fill:#ffffff;fill-rule:evenodd"
     id="path58"
     d="M 0.17398129,0.26779086 0.07646877,0.44953153 0.0289635,0.53807428 c 0.01061354,0.0148675 0.02393736,0.029064 0.03934271,0.041977 0.073668,0.0617513 0.1949322,0.0941735 0.29483846,0.0303446 l 0.013547,-0.26016849 c -0.0560546,-0.0166514 -0.11301216,-0.0436549 -0.1476766,-0.0576171 -0.0206873,-0.008331 -0.0388256,-0.0166078 -0.0550338,-0.0248199 z" /><path
     inkscape:connector-curvature="0"
     style="fill:#d2d3d5;fill-rule:evenodd"
     id="path60"
     d="M 0.16939202,0.26779086 0.07187949,0.44953153 0.02437422,0.53807428 c 0.01061355,0.0148675 0.02393736,0.029064 0.03934271,0.041977 0.073668,0.0617513 0.1949322,0.0941735 0.29483846,0.0303446 l 0.013547,-0.26016849 c -0.0560546,-0.0166515 -0.1130141,-0.043655 -0.14767661,-0.0576172 -0.0206873,-0.008331 -0.0388256,-0.0166078 -0.0550338,-0.0248199 z" /><path
     inkscape:connector-curvature="0"
     style="fill:none"
     id="path62"
     d="M 0.1519874,0.3194438 C 0.26317395,0.35128444 0.08181379,0.49973746 0.36855559,0.53124857" /><path
     inkscape:connector-curvature="0"
     style="fill:#ffffff;fill-rule:evenodd"
     id="path64"
     d="m 0.16254659,0.33293214 -0.12272421,0.22348482 0.07157685,0.050509 0.0725106,-0.23814742 c -0.003978,-0.002452 -0.002367,-0.0161305 -0.008945,-0.0209733 -0.004257,-0.003133 -0.007066,-0.0108105 -0.0124185,-0.014873 z" /><path
     inkscape:connector-curvature="0"
     style="fill:#666666;fill-rule:nonzero"
     id="path66"
     d="m 0.14196219,0.32854779 c 0.0412174,0.0118029 0.0407782,0.040511 0.0402817,0.0730903 -8.2742e-4,0.0543974 -0.001814,0.11916727 0.17662512,0.13877513 l 4.2424e-4,-0.004007 C 0.1845107,0.51719932 0.1854656,0.45441392 0.18626848,0.40168728 c 5.2435e-4,-0.0342175 9.8136e-4,-0.0643706 -0.0432041,-0.0770239 l -0.001102,0.003885 z" /><path
     inkscape:connector-curvature="0"
     style="fill:#cccccc;fill-rule:evenodd"
     id="path70"
     d="m 0.33768957,0.47915594 c 0.0129885,0.0266438 0.0265926,0.0529162 0.0460413,0.0756529 0.0217441,0.0254238 0.0507952,0.0464354 0.0814462,0.0503156 0.0267744,0.003387 0.0547721,-0.006298 0.0829255,-0.0176307 l 0.0142669,0.032668 c -0.0287725,0.0114982 -0.0529994,0.0201967 -0.0792911,0.0228973 -0.0306096,0.003146 -0.0563913,-0.00492 -0.0796903,-0.0186987 -0.0233009,-0.0137784 -0.0441208,-0.0332703 -0.0647324,-0.0620505 -0.015818,-0.0220867 -0.0315149,-0.0496493 -0.0471814,-0.0784824 l 0.0462155,-0.004671 z" /><path
     inkscape:connector-curvature="0"
     style="fill:#cccccc;fill-rule:evenodd"
     id="path72"
     d="m 0.26414472,0.45760943 c 0.0173313,0.0173256 0.0416436,0.0282403 0.0547933,0.0255698 0.0202555,-0.004112 0.0310566,-0.0351304 0.0241229,-0.069274 -0.003413,-0.0168085 -0.0104848,-0.0312422 -0.0192044,-0.0410735 -0.0416341,-0.0469655 -0.12053107,0.0239714 -0.0597116,0.0847775 z" /><path
     inkscape:connector-curvature="0"
     style="fill:#000000;fill-rule:nonzero"
     id="path74"
     d="m 0.26059164,0.46117887 c 0.008972,0.008968 0.0197517,0.0163086 0.0300338,0.0211059 0.0106533,0.004973 0.0210055,0.007263 0.0286588,0.005943 l 5.303e-5,0 5.8882e-4,-1.193e-4 c 0.0120094,-0.002439 0.0210775,-0.0124468 0.0260244,-0.0266457 0.004627,-0.0132953 0.005687,-0.0304656 0.002078,-0.0483746 l 7.57e-6,-1.9e-6 -1.89e-6,-1.325e-5 -3.978e-5,-1.572e-4 c -0.001758,-0.008659 -0.004443,-0.0167233 -0.007801,-0.0239032 -0.003527,-0.00754 -0.007814,-0.0141552 -0.0125681,-0.0195188 -0.0153105,-0.0172688 -0.0351872,-0.0202157 -0.0525054,-0.0139771 -0.007632,0.00275 -0.0147442,0.007297 -0.0206968,0.0131893 -0.005936,0.005875 -0.0107537,0.013106 -0.0138237,0.0212423 -0.007769,0.0205775 -0.004464,0.0468007 0.0199733,0.0712305 l 1.894e-5,0 z m 0.034297,0.0119884 c -0.009276,-0.004329 -0.019032,-0.0109772 -0.0271816,-0.0191229 l 9.47e-6,-9.47e-6 C 0.24658031,0.4329006 0.24353871,0.410702 0.25003101,0.3935012 c 0.002549,-0.006748 0.006557,-0.0127594 0.0114961,-0.0176495 0.004924,-0.004873 0.0107613,-0.008619 0.0169866,-0.0108616 0.0136722,-0.004926 0.0294031,-0.002557 0.0415735,0.0111722 0.004127,0.004653 0.007873,0.0104507 0.0109885,0.0171135 0.003015,0.006449 0.00543,0.0136874 0.007021,0.0214525 l -7.58e-6,1.9e-6 1.89e-6,1.325e-5 3.978e-5,1.572e-4 c 0.003282,0.0161665 0.002392,0.0315111 -0.001693,0.0432477 -0.003778,0.0108502 -0.0102329,0.0184014 -0.0184525,0.020087 l -3.409e-5,7.55e-6 c -0.005587,0.001135 -0.0139847,-8.3704e-4 -0.0230623,-0.005076 z" /><path
     inkscape:connector-curvature="0"
     style="fill:#ffffff;fill-rule:evenodd"
     id="path76"
     d="m 0.29321255,0.36550206 c -0.0271456,-0.001407 -0.0570186,0.0384599 -0.0341796,0.0705392 -1.4394e-4,-0.0446701 0.0938854,0.0170037 0.0683461,-0.0420678 -0.004871,-0.0112632 -0.0151628,-0.0274884 -0.0341663,-0.0284713 z" /><path
     inkscape:connector-curvature="0"
     style="fill:#000000;fill-rule:evenodd"
     id="path78"
     d="m 0.58316059,0.60540918 c 0.007737,0.0150739 0.0222024,0.0264716 0.0401796,0.0296114 0.0304524,0.00532 0.0594504,-0.0150527 0.0647704,-0.0455036 4.0908e-4,-0.002352 6.6857e-4,-0.004695 7.7839e-4,-0.007021 l -0.008061,0.001842 c -5.303e-5,3.6743e-4 -1.1174e-4,7.3121e-4 -1.7803e-4,0.001097 -0.003776,0.0216249 -0.0243729,0.036098 -0.0459977,0.0323178 -0.0114222,-0.001996 -0.0208464,-0.008682 -0.0266418,-0.0177346 l -0.0248502,0.005386 z" /><path
     inkscape:connector-curvature="0"
     style="fill:#000000;fill-rule:evenodd"
     id="path80"
     d="m 0.61080642,0.50421898 c -0.0300982,0.007051 -0.048782,0.0371645 -0.0417307,0.0672627 5.2099e-4,0.002227 0.001172,0.004397 0.00194,0.006494 l 0.0211284,-0.0149696 c -0.004847,-0.0212915 0.0084,-0.0425337 0.0296929,-0.0475223 0.0106798,-0.002502 0.0213597,-4.394e-4 0.0299997,0.004913 l 0.007042,-0.005112 c -0.0129847,-0.010538 -0.0305281,-0.0151759 -0.0480715,-0.0110662 z" /><path
     inkscape:connector-curvature="0"
     style="fill:#000000;fill-rule:nonzero"
     id="path82"
     d="m 0.33113085,0.47719324 c 0.006816,0.0140512 0.0137404,0.0280696 0.02164,0.0417706 0.007913,0.0137289 0.0167044,0.0269295 0.0271304,0.0391229 0.0117915,0.0137875 0.0257119,0.026333 0.0409031,0.0357194 0.0137328,0.008483 0.0285206,0.0143879 0.0437401,0.0163121 0.0144961,0.001833 0.0291967,6.061e-5 0.0440053,-0.003695 0.014587,-0.003699 0.0292384,-0.009299 0.0438935,-0.0152404 l -0.00379,-0.009352 c -0.0143181,0.005803 -0.0285831,0.011263 -0.0425489,0.014805 -0.0137423,0.003483 -0.0272422,0.005146 -0.0402951,0.003497 -0.0137063,-0.001732 -0.0271456,-0.007127 -0.0397156,-0.0148901 -0.0142423,-0.008799 -0.0273634,-0.0206436 -0.0385338,-0.0337062 -0.0100264,-0.0117272 -0.0184714,-0.0244049 -0.026068,-0.037583 -0.007612,-0.0132026 -0.0144904,-0.027134 -0.0212839,-0.0411399 l -0.009078,0.004382 z" /><rect
     style="fill:#808080;fill-rule:evenodd"
     id="rect92"
     transform="matrix(-0.91317371,0.40757058,0.40757058,0.91317371,0,0)"
     y="0.74754155"
     x="-0.29668596"
     height="0.057730064"
     width="0.03803755" /><polygon
     style="fill:#1a1a1a;fill-rule:evenodd"
     id="polygon94"
     points="0.27874,1.34342 0.314843,1.35953 0.363756,1.24994 0.327654,1.23383 "
     transform="matrix(-0.48105633,0,0,0.48105633,0.73322371,-0.03183171)" /><path
     inkscape:connector-curvature="0"
     style="fill:#000000;fill-rule:nonzero"
     id="path96"
     d="m 0.54751913,0.57975926 0.0255396,-0.0113976 0.0194241,0.0435223 -0.0255376,0.0113976 -0.019426,-0.0435223 z m 0.026032,-0.0226457 -0.0347345,0.0155035 -0.004598,0.002054 0.002053,0.004599 0.0235301,0.0527175 0.002051,0.004599 0.0046,-0.002054 0.0347345,-0.0154996 0.004595,-0.002049 -0.002051,-0.004599 -0.0235301,-0.0527195 -0.002053,-0.004594 -0.004596,0.002049 z" /><path
     inkscape:connector-curvature="0"
     style="fill:#666666;fill-rule:evenodd"
     id="path98"
     d="m 0.33942042,0.49500194 c -0.009606,0.005777 -0.0151173,0.009021 -0.0266172,0.0112101 -0.001314,2.4808e-4 -0.002263,3.8826e-4 -0.003142,2.0267e-4 l -9.4864e-4,-0.001621 -7.58e-6,5.72e-6 c -0.006138,-0.0105169 -0.00486,-0.008695 -0.0107651,-0.0195015 0.007985,0.002829 0.0154601,0.003945 0.0213445,0.002934 l 5.303e-5,0 5.8882e-4,-1.1935e-4 c 0.004954,-0.001005 0.009407,-0.0033 0.0132802,-0.006646 l 1.6477e-4,3.3905e-4 2.841e-5,5.868e-5 1.856e-4,3.7879e-4 1.0796e-4,2.197e-4 7.007e-5,1.4205e-4 1.6856e-4,3.466e-4 8.333e-5,1.7044e-4 7.766e-5,1.5721e-4 c 0.001879,0.003839 0.003774,0.007676 0.005706,0.0115016 l -3.7878e-4,2.2345e-4 z" /><circle
     d="m 0.36245631,1.28891 c 0,0.030166 -0.0244548,0.054621 -0.0546213,0.054621 -0.0301665,0 -0.0546213,-0.024455 -0.0546213,-0.054621 0,-0.030166 0.0244548,-0.054621 0.0546213,-0.054621 0.0301665,0 0.0546213,0.024455 0.0546213,0.054621 z"
     sodipodi:ry="0.054621302"
     sodipodi:rx="0.054621302"
     sodipodi:cy="1.28891"
     sodipodi:cx="0.30783501"
     style="fill:#147ab4;fill-rule:evenodd;stroke:#000000;stroke-width:0.00787402"
     id="circle100"
     r="0.054621302"
     cy="1.28891"
     cx="0.30783501"
     transform="matrix(-0.48105633,0,0,0.48105633,0.73322371,-0.03183171)" /><path
     inkscape:connector-curvature="0"
     style="fill:#ffffff;fill-rule:evenodd"
     id="path102"
     d="m 0.58234424,0.56678036 c -0.0110605,0.001602 -0.0189411,0.0113448 -0.0184468,0.0222801 0.008182,0.001814 0.0173086,0.002198 0.0267554,8.2742e-4 0.005737,-8.3223e-4 0.0111798,-0.002251 0.0162101,-0.004142 l -9.28e-5,-7.2158e-4 C 0.60506414,0.5732423 0.59412444,0.5650739 0.58234424,0.5667802 z" /></g></svg>