<?xml version="1.0" encoding="UTF-8" standalone="no"?>
<!-- Created with Inkscape (http://www.inkscape.org/) -->

<svg
   xmlns:dc="http://purl.org/dc/elements/1.1/"
   xmlns:cc="http://creativecommons.org/ns#"
   xmlns:rdf="http://www.w3.org/1999/02/22-rdf-syntax-ns#"
   xmlns:svg="http://www.w3.org/2000/svg"
   xmlns="http://www.w3.org/2000/svg"
   version="1.1"
   width="1.66666in"
   height="1.66666in"
   viewBox="0 0 1.66666 1.66666"
   id="svg2"
   xml:space="preserve"
   style="fill-rule:evenodd"><metadata
   id="metadata110"><rdf:RDF><cc:Work
       rdf:about=""><dc:format>image/svg+xml</dc:format><dc:type
         rdf:resource="http://purl.org/dc/dcmitype/StillImage" /><dc:title></dc:title></cc:Work></rdf:RDF></metadata>
 <defs
   id="defs4">
  <style
   type="text/css"
   id="style6" />
 </defs>
 <g
   id="Layer_x0020_1">
  <metadata
   id="CorelCorpID_0Corel-Layer" />
  <circle
   cx="1.29941"
   cy="1.30922"
   r="0.16874801"
   id="circle10"
   style="fill:#3669f0;stroke:#000000;stroke-width:0.019685" />
  <path
   d="m 1.29941,1.16035 c 0.082224,0 0.148878,0.066653 0.148878,0.148878 0,0.082224 -0.066653,0.148878 -0.148878,0.148878 -0.00826,0 -0.01635,-6.85e-4 -0.024244,-0.00198 0.077807,-0.00489 0.139406,-0.069528 0.139406,-0.148571 0,-0.073968 -0.053945,-0.135323 -0.124634,-0.146902 0.00313,-1.968e-4 0.00629,-3.071e-4 0.00947,-3.071e-4 z"
   id="path12"
   style="fill:#275c9c" />
  <path
   d="M 0.868524,0.953583 C 0.8285437,0.9888861 0.7877917,1.0231421 0.739768,1.0474885 0.686079,1.0747168 0.623296,1.0895633 0.569685,1.0748389 0.5228582,1.0619728 0.4830275,1.0265476 0.444075,0.988268 L 0.3978033,1.0326971 c 0.0398661,0.03898 0.0741142,0.070161 0.115937,0.092811 0.048689,0.026366 0.0970984,0.030776 0.145331,0.023972 0.0482283,-0.0068 0.0962874,-0.024811 0.150413,-0.058394 0.0415394,-0.025776 0.0866614,-0.060732 0.132606,-0.0978189 L 0.8685234,0.9535829 z"
   id="path14"
   style="fill:#cccccc" />
  <path
   d="M 0.378181,0.994047 C 0.3497519,1.0050627 0.3166731,1.0030942 0.2887401,0.98582259 0.241433,0.95656279 0.2267992,0.89449579 0.2560551,0.84718459 c 0.00226,-0.00365 0.004717,-0.00711 0.007346,-0.0103701 l 0.008634,0.0121181 c -3.6614e-4,5.5512e-4 -7.2441e-4,0.001118 -0.001075,0.001689 -0.0207756,0.0335945 -0.0103858,0.077685 0.0232126,0.0984606 0.0177441,0.0109724 0.0384134,0.013248 0.0570315,0.008008 l 0.0269764,0.0369567 z"
   id="path16"
   style="fill:#000000" />
  <path
   d="m 0.358634,0.818772 c 0.0524803,0.0184331 0.0800827,0.0759213 0.0616535,0.128402 -0.001366,0.00389 -0.002953,0.007638 -0.004728,0.011248 L 0.38065365,0.9275519 c 0.0127874,-0.0371535 -0.006803,-0.0777165 -0.0439331,-0.0907598 -0.0186181,-0.006539 -0.038126,-0.004917 -0.054622,0.002988 l -0.0116063,-0.0105039 c 0.0252677,-0.0163465 0.0575512,-0.021248 0.0881417,-0.0105039 z"
   id="path18"
   style="fill:#000000" />
  <path
   d="M 0.88078,0.95485 C 0.8597485,0.9734878 0.8385595,0.9919996 0.8159729,1.0093106 0.793339,1.0266571 0.7696186,1.0425193 0.7438705,1.0555783 0.7147563,1.0703421 0.6829571,1.0815704 0.6512366,1.0866767 0.6225555,1.0912869 0.5939059,1.0908854 0.5672878,1.0835704 0.5419374,1.0766058 0.5187327,1.0635074 0.4967209,1.0470389 0.4750359,1.0308184 0.4545634,1.0113893 0.4343115,0.9913972 L 0.4470713,0.9784759 c 0.0197795,0.0195315 0.0397165,0.0384567 0.0604764,0.0539843 0.0204213,0.015284 0.0417087,0.02737 0.0645354,0.033646 0.0239724,0.00658 0.0500315,0.00691 0.0762756,0.00269 0.0297441,-0.00478 0.0597283,-0.015402 0.087311,-0.02939 0.0247598,-0.012559 0.0475472,-0.027791 0.0692717,-0.0444409 0.0217677,-0.0166811 0.0428189,-0.0350787 0.0637835,-0.0536575 L 0.88078,0.95484994 z"
   id="path20"
   style="fill:#000000;fill-rule:nonzero" />
  <path
   d="M 0.96298,0.988201 C 0.9388383,1.0077561 0.9140548,1.027701 0.8890942,1.0466262 l -1.575e-5,3.15e-5 c -0.025,0.018953 -0.0501102,0.036827 -0.0748031,0.05215 -0.0251417,0.015598 -0.0515315,0.028878 -0.077878,0.03911 -0.025811,0.010016 -0.0515669,0.017095 -0.076063,0.020551 -0.0249252,0.00352 -0.0499567,0.00413 -0.0751102,4.409e-4 -0.025185,-0.00369 -0.0504528,-0.011701 -0.0757992,-0.025429 -0.0223307,-0.012091 -0.0424803,-0.026484 -0.0623661,-0.043083 -0.0196339,-0.016386 -0.0390984,-0.03502 -0.0602244,-0.055756 l 0.0126929,-0.012949 c 0.0207362,0.02035 0.0398504,0.038653 0.0591654,0.054772 0.019063,0.015913 0.0382677,0.02965 0.0593622,0.041071 0.0233307,0.012634 0.046626,0.020012 0.0698701,0.023421 0.0232835,0.00341 0.0465827,0.00282 0.069878,-4.606e-4 0.0231299,-0.00326 0.0475118,-0.00997 0.072,-0.019476 0.0252126,-0.00979 0.0505906,-0.022575 0.0748937,-0.037654 0.0241299,-0.014976 0.0487953,-0.032531 0.0734094,-0.051193 l 7.88e-6,1.58e-5 c 0.0246417,-0.018681 0.0493307,-0.0385551 0.0734134,-0.0580591 l 0.0114528,0.0140709 z"
   id="path22"
   style="fill:#000000;fill-rule:nonzero" />
  <rect
   width="0.063681103"
   height="0.096649602"
   x="0"
   y="0"
   transform="matrix(0.738179,0.781254,-0.781254,0.738179,0.416187,0.926435)"
   id="rect24"
   style="fill:#808080" />
  <polygon
   points="0.416185,0.926429 0.340673,0.99778 0.364177,1.02265 0.439685,0.951307 "
   id="polygon26"
   style="fill:#1a1a1a" />
  <path
   d="M 0.450382,0.975819 0.4158229,0.9392403 0.3534843,0.9981419 0.3880473,1.0347167 0.4503819,0.9758191 z m -0.0276102,-0.0556102 0.0470079,0.049752 0.00622,0.006587 -0.006587,0.00622 -0.0755079,0.0713465 -0.006583,0.00622 -0.006224,-0.00659 -0.0470118,-0.049748 -0.006217,-0.006583 0.006583,-0.006224 0.0755118,-0.0713504 0.006587,-0.006217 0.00622,0.006583 z"
   id="path28"
   style="fill:#000000;fill-rule:nonzero" />
  <circle
   cx="0"
   cy="0"
   r="0.051192898"
   transform="matrix(0.852858,0.354514,-0.354514,0.852858,0.382042,0.963872)"
   id="circle30"
   style="fill:#147ab4;stroke:#000000;stroke-width:0.00787402" />
  <path
   d="M 0.401484,0.930201 C 0.4187557,0.9405041 0.4251179,0.9621301 0.4167438,0.9799608 0.4018973,0.977323 0.3864682,0.97165371 0.3717202,0.9628545 0.36275957,0.95751198 0.3546966,0.9513978 0.3476454,0.9447758 l 6.4961e-4,-0.001134 c 0.0109724,-0.0183976 0.0347913,-0.0244134 0.053189,-0.0134409 z"
   id="path32"
   style="fill:#ffffff" />
  <path
   d="M 0.9975,0.601366 1.0289016,0.6823463 C 0.9900433,0.6985904 0.9411103,0.7203148 0.8877086,0.7418699 L 0.8563425,0.6609683 C 0.9107323,0.6387006 0.9598385,0.6167596 0.9974995,0.6013659 z"
   id="path34"
   style="fill:#808080" />
  <path
   d="M 0.9975,0.601366 1.0126969,0.641992 C 0.9738426,0.6582361 0.9249095,0.6799605 0.8715039,0.7015156 L 0.8563425,0.6609684 C 0.9107323,0.6387007 0.9598385,0.6167597 0.9974995,0.601366 z"
   id="path36"
   style="fill:#1a1a1a" />
  <path
   d="m 1.15985,0.622843 0.202705,0.377795 0.098752,0.184059 c -0.022059,0.030906 -0.04976,0.060417 -0.081784,0.08726 -0.153138,0.128366 -0.405217,0.195764 -0.612898,0.063079 L 0.7384641,0.7942085 c 0.116524,-0.0346142 0.234929,-0.090748 0.306984,-0.119772 0.043004,-0.0173189 0.080709,-0.0345236 0.114402,-0.0515945 z"
   id="path38"
   style="fill:#333333" />
  <path
   d="m 1.00726,0.597594 0.031398,0.0809803 0.00369,0.009516 -0.00943,0.003937 c -0.014441,0.006039 -0.029307,0.0124134 -0.0451772,0.0192165 -0.0290787,0.0124606 -0.0614921,0.0263661 -0.0961378,0.0403465 l -0.009819,0.003965 -0.003843,-0.009913 -0.0313661,-0.0809016 -0.003701,-0.009551 0.009524,-0.003902 c 0.0280039,-0.0114646 0.0566024,-0.0237283 0.0826024,-0.034874 0.0208228,-0.008921 0.0398701,-0.0170984 0.0585551,-0.0247283 l 0.00985,-0.004024 0.00385,0.009933 z m 0.00819,0.0790315 -0.0238504,-0.0615157 c -0.0140433,0.005858 -0.030626,0.0129724 -0.0483937,0.0205827 -0.022189,0.009512 -0.046378,0.0198819 -0.0734134,0.0310433 l 0.0238228,0.0614331 c 0.0304291,-0.0124134 0.0595354,-0.0248976 0.0859134,-0.0362087 0.0127677,-0.005472 0.0249173,-0.0106811 0.0359213,-0.0153346 z"
   id="path40"
   style="fill:#000000;fill-rule:nonzero" />
  <path
   d="M 0.35252,0.615862 C 0.4030869,0.88809 0.833142,0.6675392 1.003677,0.5988581 2.061977,0.1726381 0.201083,-0.1994849 0.35252,0.615862 z"
   id="path42"
   style="fill:#d2d3d5;stroke:#000000;stroke-width:0.019685" />
  <path
   d="M 0.363441,0.612047 C 0.4129174,0.878425 0.833728,0.6626139 1.000598,0.5954092 2.036148,0.1783502 0.215259,-0.1857678 0.363441,0.612047 z"
   id="path44"
   style="fill:#d2d3d5" />
  <path
   d="M 0.728315,0.708736 C 0.834248,0.6740706 0.938134,0.6252557 1.003677,0.598858 1.848004,0.258811 0.834271,-0.046764 0.466728,0.257614 0.793661,0.098315 1.183472,0.1769841 1.221063,0.3238581 c 0.029095,0.113665 -0.209819,0.268189 -0.492748,0.384878 z"
   id="path46"
   style="fill:#787878" />
  <path
   d="m 0.350606,0.582764 1.8504e-4,8.6614e-4 c 0.0167638,-0.001961 0.0339843,-0.004413 0.0515512,-0.007398 0.170917,-0.0290118 0.309469,-0.0961457 0.309469,-0.149949 0,-0.0538031 -0.138551,-0.0738976 -0.309469,-0.0448858 -0.0103661,0.00176 -0.0206102,0.003661 -0.0307126,0.005689 -0.0261969,0.0521575 -0.0356772,0.116791 -0.0210236,0.195677 z"
   id="path48"
   style="fill:#5db4e5;stroke:#000000;stroke-width:0.019685" />
  <path
   d="m 1.16253,0.622843 0.202705,0.377795 0.098752,0.184059 c -0.022063,0.030906 -0.04976,0.060417 -0.081784,0.08726 -0.153138,0.128366 -0.405217,0.195764 -0.612898,0.063079 L 0.7411441,0.7942085 c 0.116524,-0.0346142 0.234925,-0.090748 0.306984,-0.119772 0.043004,-0.0173189 0.080709,-0.0345236 0.114402,-0.0515945 z"
   id="path50"
   style="fill:#cccccc" />
  <path
   d="M 1.17246,0.62285 1.375165,1.000645 1.473917,1.1847 c -0.022059,0.030905 -0.04976,0.060417 -0.081779,0.08726 -0.153142,0.12837 -0.40522,0.195764 -0.612902,0.063079 L 0.7510741,0.7942155 c 0.116524,-0.0346181 0.234929,-0.090752 0.306988,-0.119776 0.043,-0.0173189 0.080705,-0.0345236 0.114398,-0.0515906 z"
   id="path52"
   style="fill:#000000" />
  <path
   d="M 1.00026,1.02685 C 0.959823,1.0672791 0.9030946,1.0927437 0.872414,1.0865114 0.8251581,1.0769208 0.7999494,1.0045468 0.8161266,0.9248774 0.8240951,0.8856609 0.8405951,0.8519837 0.8609376,0.8290428 c 0.0971417,-0.109583 0.281232,0.0559331 0.139323,0.197807 z"
   id="path54"
   style="fill:#333333" />
  <path
   d="M 1.2065,0.707736 C 0.935063,0.7743147 1.330161,1.084397 0.759531,1.14733 L 0.7395664,0.794208 C 0.8560904,0.7595938 0.9744914,0.70346 1.0465504,0.674436 1.0895543,0.6571171 1.1272591,0.6399124 1.1609524,0.6228415 l 0.045547,0.0848937 z"
   id="path56"
   style="fill:#1a1a1a" />
  <path
   d="m 1.16253,0.622843 0.202705,0.377795 0.098752,0.184059 c -0.022063,0.030906 -0.04976,0.060417 -0.081784,0.08726 -0.153138,0.128366 -0.405217,0.195764 -0.612898,0.063079 L 0.7411441,0.7942085 c 0.116524,-0.0346142 0.234925,-0.090748 0.306984,-0.119772 0.043004,-0.0173189 0.080709,-0.0345236 0.114402,-0.0515945 z"
   id="path58"
   style="fill:#ffffff" />
  <path
   d="m 1.17207,0.622843 0.202705,0.377795 0.098752,0.184059 c -0.022063,0.030906 -0.04976,0.060417 -0.081784,0.08726 -0.153138,0.128366 -0.405217,0.195764 -0.612898,0.063079 L 0.7506841,0.7942085 c 0.116524,-0.0346142 0.234929,-0.090748 0.306984,-0.119772 0.043004,-0.0173189 0.080709,-0.0345236 0.114402,-0.0515945 z"
   id="path60"
   style="fill:#d2d3d5" />
  <path
   d="M 1.20825,0.730217 C 0.97712,0.796406 1.354124,1.105004 0.758057,1.170508"
   id="path62"
   style="fill:none" />
  <path
   d="M 1.1863,0.758256 1.441414,1.222827 1.292623,1.327823 1.141891,0.832772 c 0.00827,-0.005098 0.00492,-0.0335315 0.018595,-0.0435984 0.00885,-0.006512 0.014689,-0.0224724 0.025815,-0.0309173 z"
   id="path64"
   style="fill:#ffffff" />
  <path
   d="m 1.22909,0.749142 c -0.085681,0.0245354 -0.084768,0.0842126 -0.083736,0.151937 0.00172,0.113079 0.00377,0.24772 -0.367161,0.28848 l -8.8189e-4,-0.00833 C 1.1406419,1.141303 1.1386569,1.0107873 1.1369879,0.90118135 c -0.00109,-0.0711299 -0.00204,-0.133811 0.089811,-0.160114 l 0.00229,0.008075 z"
   id="path66"
   style="fill:#666666;fill-rule:nonzero" />
  
  <path
   d="m 0.82222,1.06222 c -0.027,0.055386 -0.0552795,0.11 -0.0957087,0.157264 -0.0452008,0.05285 -0.105591,0.096528 -0.169307,0.104594 -0.0556575,0.00704 -0.113858,-0.013091 -0.172382,-0.03665 l -0.0296575,0.067909 c 0.059811,0.023902 0.110173,0.041984 0.164827,0.047598 0.0636299,0.00654 0.117224,-0.010228 0.165657,-0.03887 0.048437,-0.028642 0.0917165,-0.069161 0.134563,-0.128988 0.0328819,-0.045913 0.0655118,-0.103209 0.0980787,-0.163146 l -0.0960709,-0.00971 z"
   id="path70"
   style="fill:#cccccc" />
  <path
   d="M 0.975102,1.01743 C 0.9390744,1.0534457 0.8885351,1.0761347 0.8612,1.0705835 0.8190937,1.0620363 0.7966409,0.9975559 0.8110543,0.9265795 0.81814879,0.8916386 0.8328496,0.8616346 0.8509756,0.8411976 c 0.0865472,-0.0976299 0.250555,0.0498307 0.124126,0.176232 z"
   id="path72"
   style="fill:#cccccc" />
  <path
   d="M 0.982488,1.02485 C 0.9638384,1.0434917 0.9414289,1.0587516 0.9200549,1.068724 0.8979092,1.0790626 0.8763895,1.0838224 0.8604801,1.0810783 l -1.1024e-4,0 -0.001224,-2.48e-4 c -0.0249646,-0.00507 -0.043815,-0.025874 -0.0540984,-0.05539 -0.009618,-0.0276378 -0.0118228,-0.0633307 -0.004319,-0.10055903 l -1.574e-5,-3.94e-6 3.93e-6,-2.756e-5 8.268e-5,-3.2677e-4 c 0.003654,-0.018 0.009236,-0.0347638 0.0162165,-0.049689 0.007331,-0.0156732 0.0162441,-0.0294252 0.026126,-0.0405748 0.0318268,-0.0358976 0.0731457,-0.0420236 0.109146,-0.0290551 0.0158661,0.005717 0.0306496,0.0151693 0.0430236,0.0274173 0.0123386,0.0122126 0.0223543,0.0272441 0.0287362,0.0441575 0.01615,0.0427756 0.00928,0.0972874 -0.0415197,0.148071 l -3.937e-5,0 z m -0.0712953,0.024921 c 0.0192835,-0.009 0.039563,-0.022819 0.0565039,-0.039752 l -1.969e-5,-1.97e-5 c 0.043937,-0.0439331 0.0502598,-0.0900787 0.0367638,-0.12583499 -0.005299,-0.0140276 -0.0136299,-0.0265236 -0.0238976,-0.036689 -0.0102362,-0.0101299 -0.0223701,-0.0179173 -0.035311,-0.0225787 -0.0284213,-0.0102402 -0.061122,-0.005315 -0.0864213,0.0232244 -0.008579,0.009673 -0.0163661,0.0217244 -0.0228425,0.0355748 -0.006268,0.0134055 -0.0112874,0.0284528 -0.0145945,0.0445945 l 1.575e-5,3.94e-6 -3.93e-6,2.756e-5 -8.268e-5,3.2677e-4 c -0.006823,0.0336063 -0.004972,0.0655039 0.00352,0.0899016 0.007854,0.022555 0.0212717,0.038252 0.0383583,0.041756 l 7.086e-5,1.57e-5 c 0.0116142,0.00236 0.0290709,-0.00174 0.0479409,-0.010551 z"
   id="path74"
   style="fill:#000000;fill-rule:nonzero" />
  <path
   d="M 0.914677,0.825961 C 0.9711061,0.8230358 1.033205,0.9059098 0.9857282,0.972595 0.98602741,0.8797367 0.7905632,1.0079415 0.8436532,0.8851462 0.8537792,0.8617328 0.8751729,0.8280045 0.9146768,0.8259612 z"
   id="path76"
   style="fill:#ffffff" />
  <path
   d="m 0.311945,1.32467 c -0.0160827,0.031335 -0.0461535,0.055028 -0.0835236,0.061555 -0.0633031,0.011059 -0.123583,-0.031291 -0.134642,-0.094591 -8.5039e-4,-0.00489 -0.0013898,-0.00976 -0.0016181,-0.014595 l 0.0167559,0.00383 c 1.1024e-4,7.638e-4 2.3228e-4,0.00152 3.7008e-4,0.00228 0.00785,0.044953 0.0506654,0.075039 0.0956181,0.067181 0.0237441,-0.00415 0.0433346,-0.018047 0.0553819,-0.036866 l 0.0516575,0.011197 z"
   id="path78"
   style="fill:#000000" />
  <path
   d="m 0.254476,1.11432 c 0.0625669,0.014657 0.101406,0.077256 0.086748,0.139823 -0.001083,0.00463 -0.002437,0.00914 -0.004032,0.0135 L 0.2932712,1.2365249 C 0.303346,1.1922651 0.2758106,1.1481076 0.2315468,1.1377375 0.209346,1.1325367 0.1871452,1.1368241 0.1691846,1.1479501 L 0.1545468,1.1373241 c 0.0269921,-0.021906 0.0634606,-0.031547 0.0999291,-0.023004 z"
   id="path80"
   style="fill:#000000" />
  <path
   d="m 0.835854,1.05814 c -0.0141693,0.029209 -0.028563,0.05835 -0.0449843,0.086831 -0.0164488,0.028539 -0.0347244,0.05598 -0.0563976,0.081327 -0.0245118,0.028661 -0.0534488,0.05474 -0.0850276,0.074252 -0.0285472,0.017634 -0.0592874,0.029909 -0.0909252,0.033909 -0.0301339,0.00381 -0.0606929,1.26e-4 -0.0914764,-0.00768 -0.0303228,-0.00769 -0.0607795,-0.019331 -0.0912441,-0.031681 l 0.007878,-0.019441 c 0.0297638,0.012063 0.0594173,0.023413 0.0884488,0.030776 0.0285669,0.00724 0.0566299,0.010697 0.0837638,0.00727 0.0284921,-0.0036 0.0564291,-0.014815 0.0825591,-0.030953 0.0296063,-0.018291 0.0568819,-0.042913 0.0801024,-0.070067 0.0208425,-0.024378 0.0383976,-0.050732 0.054189,-0.078126 0.0158228,-0.027445 0.030122,-0.056405 0.0442441,-0.08552 l 0.0188701,0.00911 z"
   id="path82"
   style="fill:#000000;fill-rule:nonzero" />
  
  <path
   d="m 0.350283,0.582764 1.811e-4,8.6614e-4 c 0.0167677,-0.001961 0.0339882,-0.004413 0.0515512,-0.007398 0.170921,-0.0290118 0.309472,-0.0961457 0.309472,-0.149949 0,-0.0538031 -0.138551,-0.0738976 -0.309472,-0.0448858 -0.0103622,0.00176 -0.0206063,0.003661 -0.0307087,0.005689 -0.0261969,0.0521575 -0.0356772,0.116791 -0.0210236,0.195677 z"
   id="path86"
   style="fill:#467dc0;stroke:#000000;stroke-width:0.019685" />
  <path
   d="M 0.693362,0.426106 C 0.6774368,0.3779249 0.528819,0.380169 0.464854,0.3926887 0.45783825,0.4052556 0.4530784,0.4196572 0.4510784,0.4360745 0.464043,0.5094406 0.6126024,0.42942883 0.6933614,0.426106 z"
   id="path88"
   style="fill:#ffffff" />
  <path
   d="M 0.600803,0.221988 C 0.6960274,0.1916258 0.837228,0.1693502 0.968189,0.1918226 1.130457,0.2196691 1.2675,0.3067206 1.16915,0.4194956 1.293626,0.1922516 0.748075,0.2765466 0.590402,0.3171376 0.379563,0.3714171 0.505465,0.2523856 0.6008036,0.221988 z"
   id="path90"
   style="fill:#ffffff" />
  <rect
   width="0.063681103"
   height="0.096649602"
   x="0"
   y="0"
   transform="matrix(1.13386,0.506068,-0.506068,1.13386,0.327658,1.23384)"
   id="rect92"
   style="fill:#808080" />
  <polygon
   points="0.327654,1.23383 0.27874,1.34342 0.314843,1.35953 0.363756,1.24994 "
   id="polygon94"
   style="fill:#1a1a1a" />
  <path
   d="M 0.386035,1.27135 0.3329444,1.2476571 0.2925664,1.3381295 0.345653,1.3618224 0.3860349,1.27135 z m -0.0541142,-0.047075 0.0722047,0.032228 0.009559,0.00427 -0.004268,0.00956 -0.0489134,0.109587 -0.004264,0.00956 -0.009563,-0.00427 -0.0722047,-0.03222 -0.009551,-0.00426 0.004264,-0.00956 0.0489134,-0.109591 0.004268,-0.00955 0.009555,0.00426 z"
   id="path96"
   style="fill:#000000;fill-rule:nonzero" />
  <path
   d="m 0.818622,1.09516 c 0.0199685,0.012008 0.0314252,0.018752 0.0553307,0.023303 0.002732,5.157e-4 0.004705,8.071e-4 0.006532,4.213e-4 l 0.001972,-0.00337 1.575e-5,1.19e-5 c 0.0127598,-0.021862 0.0101024,-0.018075 0.022378,-0.040539 -0.0165984,0.00588 -0.0321378,0.0082 -0.0443701,0.0061 l -1.1024e-4,0 -0.001224,-2.481e-4 c -0.0102992,-0.00209 -0.0195551,-0.00686 -0.0276063,-0.013815 l -3.4252e-4,7.048e-4 -5.905e-5,1.22e-4 -3.8583e-4,7.874e-4 -2.2441e-4,4.567e-4 -1.4567e-4,2.953e-4 -3.5039e-4,7.205e-4 -1.7323e-4,3.543e-4 -1.6142e-4,3.268e-4 c -0.003906,0.00798 -0.007846,0.015957 -0.0118622,0.023909 l 7.874e-4,4.645e-4 z"
   id="path98"
   style="fill:#666666" />
  <circle
   cx="0.30783501"
   cy="1.28891"
   r="0.054621302"
   id="circle100"
   style="fill:#147ab4;stroke:#000000;stroke-width:0.00787402" />
  <path
   d="m 0.313642,1.24437 c 0.0229921,0.00333 0.039374,0.023583 0.0383465,0.046315 -0.0170079,0.00377 -0.0359803,0.00457 -0.0556181,0.00172 -0.0119252,-0.00173 -0.0232402,-0.00468 -0.0336969,-0.00861 l 1.9291e-4,-0.0015 c 0.003547,-0.024492 0.0262874,-0.041472 0.0507756,-0.037925 z"
   id="path102"
   style="fill:#ffffff" />
  
  
 </g>
</svg>