<?xml version="1.0" encoding="UTF-8" standalone="no"?>
<!-- Created with Inkscape (http://www.inkscape.org/) -->

<svg
   xmlns:dc="http://purl.org/dc/elements/1.1/"
   xmlns:cc="http://creativecommons.org/ns#"
   xmlns:rdf="http://www.w3.org/1999/02/22-rdf-syntax-ns#"
   xmlns:svg="http://www.w3.org/2000/svg"
   xmlns="http://www.w3.org/2000/svg"
   xmlns:xlink="http://www.w3.org/1999/xlink"
   xmlns:sodipodi="http://sodipodi.sourceforge.net/DTD/sodipodi-0.dtd"
   xmlns:inkscape="http://www.inkscape.org/namespaces/inkscape"
   width="854"
   height="480"
   id="svg2"
   version="1.1"
   inkscape:version="0.48.1 "
   enable-background="new"
   sodipodi:docname="menu_bg1.svg"
   inkscape:export-filename="C:\Users\Prem\workspace\Candy Cat\res\drawable\menu_bg_0_7.png"
   inkscape:export-xdpi="90"
   inkscape:export-ydpi="90">
  <defs
     id="defs4">
    <linearGradient
       id="linearGradient4151">
      <stop
         id="stop4153"
         offset="0"
         style="stop-color:#4181c5;stop-opacity:1;" />
      <stop
         style="stop-color:#a6c9d8;stop-opacity:1;"
         offset="0.5"
         id="stop4157" />
      <stop
         id="stop4155"
         offset="1"
         style="stop-color:#4181c5;stop-opacity:1;" />
    </linearGradient>
    <linearGradient
       inkscape:collect="always"
       id="linearGradient4074">
      <stop
         style="stop-color:#000000;stop-opacity:1;"
         offset="0"
         id="stop4076" />
      <stop
         style="stop-color:#000000;stop-opacity:0;"
         offset="1"
         id="stop4078" />
    </linearGradient>
    <linearGradient
       id="linearGradient3876">
      <stop
         style="stop-color:#ff9902;stop-opacity:1;"
         offset="0"
         id="stop3878" />
      <stop
         id="stop3886"
         offset="0.35108024"
         style="stop-color:#ffb810;stop-opacity:1;" />
      <stop
         style="stop-color:#fdd62d;stop-opacity:1;"
         offset="0.72627318"
         id="stop3888" />
      <stop
         id="stop3890"
         offset="0.84412777"
         style="stop-color:#fbea38;stop-opacity:1;" />
      <stop
         style="stop-color:#faff43;stop-opacity:0;"
         offset="1"
         id="stop3880" />
    </linearGradient>
    <linearGradient
       id="linearGradient3865">
      <stop
         style="stop-color:#4181c5;stop-opacity:1;"
         offset="0"
         id="stop3867" />
      <stop
         style="stop-color:#a6c9d8;stop-opacity:1;"
         offset="1"
         id="stop3869" />
    </linearGradient>
    <linearGradient
       id="linearGradient3848">
      <stop
         style="stop-color:#6c58a0;stop-opacity:1;"
         offset="0"
         id="stop3850" />
      <stop
         id="stop3982"
         offset="0.16145833"
         style="stop-color:#8284b5;stop-opacity:1;" />
      <stop
         id="stop3980"
         offset="0.375"
         style="stop-color:#98b0ca;stop-opacity:1;" />
      <stop
         style="stop-color:#57667c;stop-opacity:1;"
         offset="0.7048611"
         id="stop3984" />
      <stop
         style="stop-color:#171d2e;stop-opacity:1;"
         offset="1"
         id="stop3852" />
    </linearGradient>
    <linearGradient
       inkscape:collect="always"
       xlink:href="#linearGradient3848"
       id="linearGradient3854"
       x1="433.41705"
       y1="97.479141"
       x2="433.41705"
       y2="503.73352"
       gradientUnits="userSpaceOnUse"
       gradientTransform="translate(-6.4170383,548.62861)" />
    <radialGradient
       inkscape:collect="always"
       xlink:href="#linearGradient3865"
       id="radialGradient3871"
       cx="427"
       cy="240"
       fx="478.02383"
       fy="189.84448"
       r="427"
       gradientTransform="matrix(1.2658426,0,0,0.56206089,-113.51479,105.10539)"
       gradientUnits="userSpaceOnUse" />
    <radialGradient
       inkscape:collect="always"
       xlink:href="#linearGradient3876"
       id="radialGradient3884"
       cx="462.64987"
       cy="254.73598"
       fx="462.64987"
       fy="254.73598"
       r="79.802048"
       gradientUnits="userSpaceOnUse" />
    <linearGradient
       inkscape:collect="always"
       xlink:href="#linearGradient3876"
       id="linearGradient3908"
       x1="365.67523"
       y1="375.44919"
       x2="671.75146"
       y2="375.44919"
       gradientUnits="userSpaceOnUse" />
    <linearGradient
       inkscape:collect="always"
       xlink:href="#linearGradient3876"
       id="linearGradient3948"
       gradientUnits="userSpaceOnUse"
       x1="365.67523"
       y1="375.44919"
       x2="671.75146"
       y2="375.44919"
       gradientTransform="translate(-244.75146,-82.919012)" />
    <linearGradient
       inkscape:collect="always"
       xlink:href="#linearGradient3876"
       id="linearGradient3952"
       gradientUnits="userSpaceOnUse"
       x1="365.67523"
       y1="375.44919"
       x2="671.75146"
       y2="375.44919"
       gradientTransform="translate(150.15659,-190.4087)" />
    <linearGradient
       inkscape:collect="always"
       xlink:href="#linearGradient3876"
       id="linearGradient3966"
       gradientUnits="userSpaceOnUse"
       x1="365.67523"
       y1="375.44919"
       x2="671.75146"
       y2="375.44919" />
    <filter
       inkscape:collect="always"
       id="filter3972"
       x="-0.11431143"
       width="1.2286229"
       y="-0.12628439"
       height="1.2525688">
      <feGaussianBlur
         inkscape:collect="always"
         stdDeviation="12.255154"
         id="feGaussianBlur3974" />
    </filter>
    <linearGradient
       inkscape:collect="always"
       xlink:href="#linearGradient4074"
       id="linearGradient4080"
       x1="-134.47742"
       y1="329.18675"
       x2="564.62978"
       y2="329.18675"
       gradientUnits="userSpaceOnUse" />
    <filter
       inkscape:collect="always"
       id="filter4105"
       x="-0.09378146"
       width="1.1875629"
       y="-0.17436506"
       height="1.3487301">
      <feGaussianBlur
         inkscape:collect="always"
         stdDeviation="12.313915"
         id="feGaussianBlur4107" />
    </filter>
    <filter
       inkscape:collect="always"
       id="filter4117"
       x="-0.10132375"
       width="1.2026475"
       y="-0.14711698"
       height="1.294234">
      <feGaussianBlur
         inkscape:collect="always"
         stdDeviation="13.199863"
         id="feGaussianBlur4119" />
    </filter>
    <linearGradient
       inkscape:collect="always"
       xlink:href="#linearGradient4151"
       id="linearGradient4149"
       x1="555.9696"
       y1="408.79556"
       x2="644.44263"
       y2="408.79556"
       gradientUnits="userSpaceOnUse" />
  </defs>
  <sodipodi:namedview
     id="base"
     pagecolor="#ffffff"
     bordercolor="#666666"
     borderopacity="1.0"
     inkscape:pageopacity="0.0"
     inkscape:pageshadow="2"
     inkscape:zoom="0.7"
     inkscape:cx="351.67728"
     inkscape:cy="160.31926"
     inkscape:document-units="px"
     inkscape:current-layer="layer4"
     showgrid="false"
     inkscape:snap-bbox="true"
     inkscape:bbox-paths="true"
     inkscape:bbox-nodes="true"
     inkscape:snap-bbox-edge-midpoints="true"
     inkscape:snap-bbox-midpoints="true"
     inkscape:object-paths="true"
     inkscape:snap-intersection-paths="true"
     inkscape:object-nodes="true"
     inkscape:snap-smooth-nodes="true"
     inkscape:snap-midpoints="true"
     inkscape:snap-object-midpoints="true"
     inkscape:snap-center="true"
     inkscape:snap-page="true"
     inkscape:snap-global="true"
     inkscape:window-width="1366"
     inkscape:window-height="716"
     inkscape:window-x="-8"
     inkscape:window-y="-8"
     inkscape:window-maximized="1" />
  <metadata
     id="metadata7">
    <rdf:RDF>
      <cc:Work
         rdf:about="">
        <dc:format>image/svg+xml</dc:format>
        <dc:type
           rdf:resource="http://purl.org/dc/dcmitype/StillImage" />
        <dc:title></dc:title>
      </cc:Work>
    </rdf:RDF>
  </metadata>
  <g
     inkscape:groupmode="layer"
     id="layer2"
     inkscape:label="Sky"
     style="display:inline">
    <rect
       style="fill:url(#radialGradient3871);fill-opacity:1;stroke:none"
       id="rect3863"
       width="854"
       height="480"
       x="0"
       y="0"
       rx="0"
       ry="0" />
  </g>
  <g
     inkscape:groupmode="layer"
     id="layer3"
     inkscape:label="Sun"
     style="display:inline">
    <path
       sodipodi:type="arc"
       style="fill:url(#radialGradient3884);fill-opacity:1;stroke:none"
       id="path3874"
       sodipodi:cx="462.64987"
       sodipodi:cy="254.73598"
       sodipodi:rx="79.802048"
       sodipodi:ry="79.802048"
       d="m 542.45192,254.73598 a 79.802048,79.802048 0 1 1 -159.6041,0 79.802048,79.802048 0 1 1 159.6041,0 z"
       transform="translate(28.938288,-42.926425)" />
  </g>
  <g
     inkscape:label="Mountains"
     inkscape:groupmode="layer"
     id="layer1"
     transform="translate(0,-572.36215)"
     style="display:inline">
    <path
       style="fill:url(#linearGradient3854);fill-opacity:1;stroke:#000000;stroke-width:1px;stroke-linecap:butt;stroke-linejoin:miter;stroke-opacity:1"
       d="m 0,1052.3622 c -6.0609157,-2.0203 -20.082244,-25.277 -24.599784,-29.7945 -2.962171,-2.9622 -3.030457,-53.89376 -3.030457,-61.61931 0,-49.41265 -13.133362,-105.05311 10.101525,-151.52288 6.199151,-12.39831 -3.656066,-28.66882 17.172593,-49.49748 2.0716819,-2.07168 11.607429,11.74536 14.142136,11.11168 19.444675,-4.86117 43.715568,-69.05594 52.527932,-64.64976 12.149624,6.07481 4.412919,61.30038 21.213204,69.70052 3.327288,1.66365 13.910671,-45.72512 17.172591,-38.38579 6.71404,15.10658 9.32974,23.71024 16.16244,37.37564 10.43171,20.86343 23.83731,-31.91852 27.27412,-35.35534 13.88887,-13.88887 18.72208,31.55014 29.29442,26.26397 16.28382,-8.14191 29.49181,-44.74279 41.41626,-62.62946 4.87757,-7.31636 12.24114,-9.32938 19.1929,-14.14214 8.19261,-5.6718 13.19791,-17.97965 20.20305,-23.2335 23.98105,16.79895 15.7533,49.68936 27.27412,72.73098 2.68344,5.36688 8.36566,-2.8931 13.13198,5.05076 10.80213,18.00355 8.1847,43.54004 24.24366,59.599 10.00583,10.00583 15.22544,-42.8949 22.22336,-39.39595 16.88676,8.44338 -1.36004,44.7966 29.29442,14.14214 2.16161,-2.16161 11.04778,-3.43969 12.12183,-5.05076 8.85941,-13.28912 22.67674,-85.58458 27.27412,-87.88328 9.56905,-4.78452 26.39549,76.28756 28.28427,83.84267 0.6097,2.43878 12.3413,27.27411 10.10153,27.27411 -0.95239,0 1.59438,-1.16847 2.0203,-2.0203 1.93587,-3.87174 4.02341,-13.0632 5.05076,-17.17259 1.75488,-7.01953 3.48053,-14.14715 5.05077,-21.21321 0.30117,-1.35526 0.0285,-5.0223 1.01015,-4.04061 8.32758,8.32759 14.97563,89.55027 26.26396,112.12694 3.33133,6.66264 6.56511,-15.65648 10.10153,-19.1929 0.56351,-0.56351 2.96374,6.06091 5.05076,6.06091 2.38396,0 12.73637,-1.40577 14.14214,0 3.3869,3.38691 2.26431,14.38614 5.05076,17.1726 8.19103,8.19103 21.2132,10.33724 21.2132,24.24366 9.9173,2.1038 24.65149,4.24138 34.34519,1.01015 10.3428,-3.90695 17.27454,-16.71849 26.26397,-21.2132 3.96776,-1.98389 6.61997,4.59967 8.08122,6.06091 5.20289,5.20289 11.59164,-5.53073 13.13198,-7.07107 0.75584,-0.75584 7.53456,2.87596 10.10153,2.02031 12.5921,-4.19737 34.48135,-71.857 40.4061,-77.78175 0.91618,-0.91618 2.55086,0.69043 3.03046,1.01015 14.98467,9.98979 5.32325,27.7393 17.17259,4.04061 6.64396,-13.28791 10.89187,-22.00354 22.22336,-33.33503 4.34563,-4.34563 7.17376,-9.21974 11.11167,-14.14213 0.53234,-0.66543 1.83074,-5.24034 2.02031,-5.05077 6.16745,6.16745 1.76374,14.3987 9.09137,7.07107 11.25718,-11.25718 11.43098,-35.8343 19.1929,-47.47717 12.66738,-19.00107 43.15674,-23.96384 57.57869,-38.3858 7.61397,-7.61396 37.33463,-29.33544 46.46702,-20.20305 15.89326,15.89326 6.96472,85.43757 13.13198,110.10663 7.48345,29.93378 4.04062,60.95842 4.04062,92.93403 0,47.47717 0,94.95434 0,142.43151 0,15.08958 -19.59781,50.78538 -30.53751,58.07878"
       id="path3836"
       inkscape:connector-curvature="0"
       sodipodi:nodetypes="cssssssssssssscsssssssssssscsssssccssssscsssssssssssc" />
    <path
       style="opacity:0.7;fill:#000000;fill-opacity:1;stroke:none"
       id="path4044"
       d="m 262.74504,139.36979 c -2.17681,2.06185 -4.41221,4.05824 -6.79683,5.88234 -2.55297,1.97275 -4.76978,4.29782 -7.39374,6.176 -3.67748,2.3481 -7.95855,2.64565 -12.19258,2.83319 -0.10809,0.0366 -4.52029,-0.0255 -4.54007,0.58949 -0.006,0.18787 0.24548,0.0385 0.84818,-0.2492 0.14512,-0.1099 0.26524,-0.39444 0.43536,-0.32969 0.2025,0.0771 -1.42535,6.29931 -1.60078,6.88936 -0.61761,2.87899 -2.19922,5.30385 -3.50318,7.88417 -1.29781,2.55573 -3.34037,4.64101 -4.78367,7.08624 -0.91348,1.87557 -2.67973,3.3418 -3.57318,5.21349 -0.25791,0.54028 -0.15535,1.18817 -0.27296,1.7752 -1.18602,5.95201 -2.24898,11.26322 -5.1592,16.64833 -3.47943,4.99949 -8.75787,7.974 -13.77946,11.16081 -2.1513,1.3841 -4.23975,2.84893 -6.34564,4.29915 -6.65944,4.57799 -13.1337,-4.83988 -6.47426,-9.41787 l 0,0 c 2.22411,-1.52583 4.42712,-3.07339 6.69734,-4.53148 3.44921,-2.18779 7.0742,-4.17231 9.94976,-7.12886 2.53334,-4.11412 2.79893,-9.11327 4.00074,-13.70668 1.11894,-4.30253 2.73004,-6.96669 5.30772,-10.43632 1.38901,-2.11847 2.99061,-4.07702 4.30072,-6.24908 1.05826,-1.9932 2.29627,-3.74709 2.73221,-6.02282 1.2534,-3.51281 1.11453,-7.49983 3.43248,-10.61938 0.64348,-0.62537 1.21098,-1.33991 1.93045,-1.87612 2.81872,-2.10074 6.54215,-2.29968 9.9085,-2.39684 2.0602,-0.0845 4.25278,-0.029 6.18997,-0.82104 2.5704,-1.60854 4.43244,-4.21457 6.98467,-5.88014 2.42225,-1.80828 4.56012,-3.93715 6.84031,-5.91511 6.46498,-4.84873 13.32212,4.29413 6.85714,9.14286 z"
       inkscape:connector-curvature="0"
       transform="translate(0,572.36215)"
       sodipodi:nodetypes="ccccccccccccccccccccccccsccccc" />
    <path
       style="opacity:0.7;fill:#000000;fill-opacity:1;stroke:none"
       id="path4050"
       d="m 247.99727,180 c 5.11695,-0.39676 9.98593,0.50875 14.87696,1.93017 3.67763,1.11984 6.84114,3.38578 10.52496,4.44539 5.22541,0.83865 8.28301,3.73006 11.09694,7.99924 3.35255,5.63613 5.49631,11.88933 7.99295,17.93263 1.25133,3.3259 2.48364,6.65869 4.26432,9.74238 1.14291,2.41819 2.39363,4.76328 3.73882,7.07609 1.23795,2.57474 2.51966,5.01306 4.32931,7.20255 1.43478,1.34235 3.10389,2.32833 4.801,3.29329 2.42997,1.32683 5.24738,1.4381 7.95188,1.65271 0.54752,0.029 1.09505,0.0579 1.64258,0.0868 8.06939,0.43705 7.45132,11.84889 -0.61808,11.41185 l 0,0 c -0.65133,-0.036 -1.30266,-0.072 -1.954,-0.10797 -4.37171,-0.36462 -8.80138,-0.8729 -12.67429,-3.11024 -2.89024,-1.6456 -5.70311,-3.46519 -7.959,-5.94652 -2.21261,-2.67816 -3.94153,-5.58212 -5.39872,-8.73695 -1.36461,-2.34661 -2.65477,-4.7265 -3.80139,-7.18505 -1.97045,-3.51683 -3.52196,-7.22301 -4.88522,-11.01551 -2.24561,-5.43643 -4.1723,-11.06382 -7.08653,-16.18326 -1.37887,-2.38937 -1.76232,-2.67704 -4.76081,-3.17643 -3.63338,-1.13708 -6.91366,-2.93857 -10.41139,-4.41155 -3.87357,-1.14025 -7.59636,-1.87045 -11.67029,-1.47108 -8.08122,0 -8.08122,-11.42857 0,-11.42857 z"
       inkscape:connector-curvature="0"
       transform="translate(0,572.36215)"
       sodipodi:nodetypes="ccccccccccccccccccccccccc" />
    <path
       style="opacity:0.7;fill:#000000;fill-opacity:1;stroke:none"
       id="path4054"
       d="m 397.89333,199.8805 c 1.51121,-3.48749 3.0615,-6.92479 4.85543,-10.27931 1.62301,-3.09184 2.83267,-6.35713 4.18251,-9.56664 3.16481,-5.56783 8.35913,-6.10631 12.40689,-0.8606 0.65434,0.848 1.99329,4.53837 2.40601,5.61559 2.52829,6.02085 3.55373,12.46051 4.90715,18.79836 0.63204,3.029 2.11893,5.6622 3.56224,8.34853 1.37033,3.11348 2.93431,6.12704 4.44236,9.17771 1.31389,2.55766 2.15945,6.1673 4.86311,7.70935 3.20083,1.95722 6.1947,4.163 8.7565,6.90374 1.25851,2.12388 2.67826,3.7264 4.70825,5.06049 2.9986,0.76066 5.58445,2.41758 8.16065,4.07023 0.80057,-0.30704 -0.23627,-0.3865 -0.1924,-0.44087 0.16595,-0.20563 0.49047,-0.21698 0.75286,-0.24822 3.5817,-0.42646 2.61919,-0.3518 5.98801,0.57627 3.14692,1.2309 5.10196,3.85888 6.70688,6.68639 0.13406,0.2362 -0.15045,-0.64678 -0.41675,-0.70012 -2.43517,-0.48777 -4.93345,-0.57708 -7.40018,-0.86562 -0.77437,1.50606 -1.18956,3.26004 -2.32311,4.51819 -0.38841,0.43109 -0.10009,-1.15705 -0.18849,-1.73054 -0.45802,-2.97128 -1.12712,-5.68647 -1.1479,-8.72174 1.88066,-7.63681 6.26468,-8.23531 12.16923,-2.46455 1.26448,1.23582 3.2504,10.07026 3.75755,12.1124 1.37267,4.86909 2.56735,9.77081 3.35518,14.76818 1.2452,7.98471 -10.04688,9.7457 -11.29209,1.76099 l 0,0 c -0.71873,-4.67012 -1.89535,-9.23359 -3.15734,-13.78511 -1.34545,-5.46435 -0.35386,-1.61441 -1.8234,-6.89727 -0.17062,-0.61335 -1.12707,-1.76707 -0.49517,-1.84462 1.69811,-0.20839 3.29049,1.64063 4.96625,1.29592 3.81167,-0.78406 3.6436,-2.37734 3.94585,-4.70613 -0.19345,1.56342 0.31331,3.11762 0.60787,4.63797 0.86333,4.4559 0.95679,5.35694 -1.52611,10.20578 -2.61528,-0.17735 -5.29152,0.0567 -7.84585,-0.53204 -1.61247,-0.37162 -1.13325,-2.86154 -2.03195,-3.08554 0.55002,-0.0175 2.15433,-0.45175 1.61592,-0.33798 -4.01954,0.84934 -6.26505,1.57452 -10.19771,-0.58362 -0.84277,-0.54114 -1.64826,-1.14166 -2.51267,-1.64751 -1.90367,-1.11403 -4.23413,-1.3068 -6.02226,-2.67348 -2.60449,-1.86767 -5.12909,-3.9355 -6.67857,-6.8078 -1.92786,-2.44322 -4.99648,-3.72853 -7.40127,-5.6179 -3.81225,-3.31204 -6.13579,-6.84641 -7.94961,-11.55798 -1.44561,-2.9342 -2.96309,-5.83376 -4.26509,-8.83329 -1.94688,-3.63747 -3.82528,-7.2894 -4.67017,-11.37664 -1.21724,-5.76209 -2.11337,-11.62366 -4.40541,-17.0976 -0.28942,-0.76214 -0.59898,-1.51695 -0.86827,-2.28644 -0.0991,-0.28307 -0.53385,-0.9013 -0.23577,-0.86827 0.70084,0.0777 1.1421,0.93679 1.83874,1.0459 0.5671,0.0888 6.04554,0.36181 5.6366,-2.22335 -1.53454,3.48534 -2.78195,7.1033 -4.61242,10.46145 -1.59703,2.98268 -2.98448,6.02576 -4.32092,9.13181 -3.00129,7.50322 -13.61245,3.25876 -10.61116,-4.24447 z"
       inkscape:connector-curvature="0"
       transform="translate(0,572.36215)"
       sodipodi:nodetypes="cccscccccccccsccsccscscccccssscscccscscccccccccccccc" />
    <path
       style="opacity:0.7;fill:#000000;fill-opacity:1;stroke:none"
       id="path4056"
       d="m 157.79985,208.26975 c -4.39089,3.61838 -8.7594,7.25693 -13.35191,10.61929 -3.29489,2.18598 -6.70685,4.20146 -9.9754,6.42149 -2.9082,1.83789 -5.83901,3.63974 -8.82788,5.34391 -3.36989,1.70489 -5.74079,3.53939 -9.95567,2.48182 -2.82469,-0.70875 -4.18559,-3.01101 -5.84329,-5.04408 -0.63159,-1.06722 -1.26438,-2.13374 -1.89478,-3.20166 -2.86501,-4.8534 -0.3832,-0.61462 -3.16408,-5.52958 -0.017,-0.03 -1.21884,-2.41961 -1.83997,-2.7771 -0.15551,-0.0895 0.14814,0.32684 0.22222,0.49027 10.90054,3.29714 -1.70057,0.19288 5.36546,0.38969 0.24724,0.007 -0.18394,0.45929 -0.28288,0.68598 -0.19743,0.45234 -0.37283,0.91597 -0.60614,1.3509 -0.46881,0.87392 -1.84263,3.10375 -2.42825,4.06347 -2.14927,3.62181 -5.01435,6.69502 -8.090828,9.53567 -2.819527,2.20524 -5.492795,4.58201 -8.26686,6.84285 -5.480348,4.61184 -10.500024,9.7476 -15.880969,14.4863 -6.06777,5.33744 -13.616053,-3.24368 -7.548283,-8.58113 l 0,0 c 5.494209,-4.82696 10.595786,-10.08455 16.209845,-14.76476 2.596878,-2.11578 5.092828,-4.35123 7.747997,-6.39345 2.305513,-2.11203 4.477442,-4.36455 6.073673,-7.07895 0.618388,-1.01316 1.305602,-1.98626 1.868862,-3.03107 1.56836,-2.90921 3.018093,-6.80679 6.805073,-7.64287 1.74919,-0.38619 3.55975,0.40415 5.33962,0.60623 0.81356,0.65271 1.70635,1.21739 2.44067,1.95812 3.22431,3.25242 4.4498,8.16486 7.12603,11.80593 0.12133,0.26482 0.52799,0.55372 0.36398,0.79445 -0.1654,0.24279 -0.59175,-0.0899 -0.88057,-0.0362 -0.86358,0.16059 -1.68264,0.5206 -2.54758,0.67367 -0.30179,0.0534 0.56854,-0.23126 0.84098,-0.37165 0.59963,-0.30898 1.17434,-0.66473 1.77313,-0.97535 0.4619,-0.23961 0.93848,-0.4498 1.40772,-0.6747 2.76607,-1.56415 5.46399,-3.24422 8.15624,-4.9311 3.16545,-2.06995 6.35057,-4.10982 9.55294,-6.12741 4.88131,-3.55228 9.39229,-7.56117 14.21095,-11.18892 6.92959,-4.15776 12.80954,5.64216 5.87995,9.79992 z"
       inkscape:connector-curvature="0"
       transform="translate(0,572.36215)"
       sodipodi:nodetypes="ccccscsccccsscccccccccsscscccccscccccc" />
    <path
       style="opacity:0.7;fill:#000000;fill-opacity:1;stroke:none"
       id="path4058"
       d="m 59.145591,187.14286 c -0.515511,-0.10023 -2.339265,0.7251 -2.188444,0.71614 0.765432,-0.0455 0.449631,-0.41565 0.694697,-0.0506 -1.346999,3.14518 -3.273702,5.77308 -5.631171,8.23757 -2.633636,2.73104 -5.403354,5.34285 -8.458907,7.59518 -0.352533,0.2766 -0.773183,0.48353 -1.0576,0.82979 -0.06155,0.0749 0.227256,0.0766 0.233617,0.17334 0.02021,0.30731 -0.128721,0.60341 -0.162419,0.90954 -0.05663,0.51443 -0.08063,1.03203 -0.108196,1.54883 -0.15487,2.9035 -0.145001,1.87459 0.04455,4.61677 0.634794,4.48182 1.428797,8.81275 0.867159,13.33393 -0.373237,1.60454 -0.646684,3.42372 -1.769982,4.74111 -4.304787,5.04857 -11.245073,5.45542 -17.349533,6.32108 -3.530048,0.45435 -7.081217,0.67794 -10.632017,0.88389 -8.0678558,0.46457 -8.7248642,-10.9451 -0.657009,-11.40967 l 0,0 c 3.2413,-0.18518 6.482968,-0.38564 9.706053,-0.79263 5.973005,-0.82183 1.510813,-0.14437 7.157201,-1.15992 0.630236,-0.11335 1.279846,-0.48501 1.89585,-0.31012 0.328968,0.0934 -0.06936,1.33045 0.07994,1.02279 0.159,-0.32764 0.184862,-0.70451 0.277294,-1.05676 0.937487,-3.39638 -1.184021,-7.48083 -0.986894,-10.95729 -0.288274,-6.49928 -0.07251,-13.81297 5.776808,-17.96402 2.5485,-1.76413 4.695412,-4.05637 6.888844,-6.22921 0.44615,-0.46558 1.013532,-0.81527 1.412268,-1.32204 1.053068,-1.33841 1.531067,-3.01674 2.421465,-4.44871 0.476106,-0.77235 0.842984,-1.62381 1.428319,-2.31706 2.612996,-3.09472 6.254425,-4.04931 10.118101,-4.34047 8.081221,0 8.081221,11.42857 0,11.42857 z"
       inkscape:connector-curvature="0"
       transform="translate(0,572.36215)"
       sodipodi:nodetypes="cccccccssccscccccsssccccscsccc" />
    <path
       style="opacity:0.7;fill:#000000;fill-opacity:1;stroke:none"
       id="path4060"
       d="m 816.26639,165.46416 c -3.86466,13.80987 -10.60499,26.45133 -18.3979,38.40259 -3.43471,5.17657 -8.07806,9.22825 -12.99616,12.93551 -1.47164,1.10933 -3.13076,1.97542 -4.5108,3.19681 -1.77132,1.56768 -9.77436,10.49213 -10.88039,11.71005 -1.90456,2.10934 -3.62171,4.40439 -5.71368,6.32803 -11.4938,10.56895 -26.99168,16.9956 -41.33867,22.71831 -1.45076,0.53777 -2.90012,1.07934 -4.35229,1.6133 -0.9001,0.33096 -1.81263,0.62889 -2.70449,0.98146 -0.24931,0.0986 0.68264,0.0337 0.77406,-0.21831 0.77553,-2.13789 1.5517,-4.33772 1.70187,-6.60697 0.0437,-0.65981 -1.23637,-0.95406 -1.15806,-1.61066 0.0609,-0.51062 0.82722,0.6111 1.24083,0.91665 0.81415,1.9626 1.93731,3.82396 2.44246,5.88781 0.29968,1.22439 0.0411,2.52575 -0.076,3.78082 -0.53464,5.73011 -2.3918,11.05193 -4.75328,16.24406 -1.47383,3.0652 -3.69744,5.59614 -5.90276,8.13633 -5.31138,6.0906 -13.92478,-1.42082 -8.61341,-7.51142 l 0,0 c 1.50959,-1.72155 3.10054,-3.37193 4.15009,-5.43705 1.41406,-2.96071 2.45271,-5.81389 3.17186,-9.02876 0.20909,-0.93467 0.39759,-1.8756 0.5267,-2.82463 0.0936,-0.68788 -0.55224,-2.02907 0.14025,-2.07791 0.92247,-0.0651 1.33038,1.28485 1.99557,1.92727 -4.2281,-3.48492 -4.85239,-3.70267 -2.09198,-10.64991 0.67139,-1.68971 7.99998,-3.4032 9.2819,-4.14035 7.45367,-2.96035 14.85231,-6.10179 21.94878,-9.85928 5.1796,-2.74253 10.76373,-5.88333 15.13408,-9.89976 2.10184,-1.93164 3.82616,-4.23749 5.73923,-6.35624 3.64698,-4.00856 8.66763,-9.74548 12.74198,-13.35634 1.23185,-1.09171 2.71454,-1.86364 4.03716,-2.84341 3.95749,-2.93162 7.74576,-6.06312 10.49999,-10.21006 7.16038,-10.91603 13.35127,-22.46784 16.92033,-35.09266 2.08223,-7.80836 13.12492,-4.86364 11.04269,2.94472 z"
       inkscape:connector-curvature="0"
       transform="translate(0,572.36215)"
       sodipodi:nodetypes="ccsscscscscscsscccccscccscsscsscccc" />
    <path
       style="opacity:0.7;fill:#000000;fill-opacity:1;stroke:none"
       id="path4062"
       d="m 824.17362,240.79836 c 0.0169,-0.39187 -1.16682,1.60825 -0.98358,1.14079 0.53863,-1.37407 0.68365,-3.10249 1.83039,-4.03157 0.51431,-0.41668 0.90443,0.96677 1.36154,1.44551 2.79182,2.92395 1.61314,1.75382 4.68834,4.53654 5.86035,4.38872 11.35009,9.24702 17.24626,13.58546 4.21055,2.88756 8.57216,5.51748 13.09847,7.87824 6.88608,2.9402 9.5368,5.07957 11.88915,12.36699 1.08157,4.82488 1.09092,9.78561 1.08724,14.70323 0.11769,0.95499 -0.46798,5.46726 0.58799,6.00053 2.12586,0.85419 3.93047,3.00432 5.52409,4.6399 1.67298,1.01865 3.46276,1.83843 5.25267,2.62965 7.37941,3.29398 2.72102,13.73005 -4.65839,10.43607 l 0,0 c -3.12788,-1.40639 -6.32628,-2.8214 -8.86944,-5.18321 -2.23063,-2.4612 -5.23833,-4.0548 -7.15175,-6.81746 -1.92748,-3.71455 -2.40405,-7.5515 -2.11374,-11.71605 0.004,-3.83214 0.0198,-7.6894 -0.62627,-11.47955 -0.13297,-0.61574 -0.23484,-1.92111 -0.69828,-2.46504 -1.37051,-1.60853 -3.84593,-1.87852 -5.52251,-2.98933 -5.03765,-2.64422 -9.90766,-5.56492 -14.58488,-8.80793 -6.20331,-4.58873 -12.03114,-9.65814 -18.16469,-14.33996 -1.77845,-1.63427 -8.11254,-7.31697 -8.65422,-9.48914 -0.67092,-2.69049 -0.55217,-5.56278 -0.22035,-8.31573 0.0576,-0.47781 2.46039,-2.54286 2.82481,-2.8708 6.46498,-4.84873 13.32212,4.29413 6.85715,9.14286 z"
       inkscape:connector-curvature="0"
       transform="translate(0,572.36215)"
       sodipodi:nodetypes="csssccccccccccccccscccsccc" />
    <path
       style="opacity:0.90000000000000002;fill:url(#linearGradient4149);fill-opacity:1.0;stroke:#d5e4ff;stroke-width:3;stroke-linecap:round;stroke-linejoin:miter;stroke-miterlimit:4;stroke-opacity:0.59411764000000000;stroke-dasharray:none"
       id="path4141"
       d="m 569.48315,321.61332 c 0.71605,0.29178 1.57163,0.3601 2.14816,0.87535 0.34982,0.31264 0.15919,0.9357 0.35523,1.36195 0.26554,0.57738 0.68092,1.0733 1.01374,1.6147 1.16609,1.89685 2.37777,3.74133 3.6269,5.58493 1.56927,2.00103 2.37241,4.46216 3.80138,6.54119 0.53188,1.13477 1.30769,2.08371 1.95372,3.14545 0.67398,1.40081 0.66077,2.92909 0.76503,4.44334 -0.02,1.39098 -0.22013,2.77321 -0.37273,4.15438 -0.12276,1.41277 -0.43156,2.79681 -0.56451,4.20909 -0.10005,1.39348 -0.15102,2.79678 -0.058,4.19156 -0.10654,1.55402 0.13339,3.07157 0.41774,4.5926 0.19939,1.15038 0.5841,2.44651 1.49043,3.23813 0.86592,0.90717 1.76063,1.7771 2.64404,2.68689 0.86733,1.28817 1.69597,2.58158 2.76547,3.70934 1.02224,1.02955 2.21254,1.80875 3.18663,2.8856 1.25815,1.16988 2.03974,1.7833 2.61857,3.48668 0.30986,1.26034 1.10504,2.2076 1.77361,3.26786 0.49573,1.12769 1.05166,2.18717 1.43303,3.36538 0.21172,0.65795 0.0983,1.38081 0.23571,2.04579 0.10896,0.52728 0.35638,1.09284 0.49697,1.621 0.27635,1.12829 0.20302,2.33465 0.90231,3.31148 0.46824,0.90486 1.3817,1.4305 2.00439,2.22988 0.99898,0.52391 1.79258,1.32117 2.734,1.92652 0.62027,0.4527 1.03357,1.11158 1.57927,1.63522 0.28013,0.26879 0.62166,0.46607 0.917,0.71805 0.80482,0.99305 1.98286,1.52288 2.99907,2.26755 0.15832,0.17324 0.288,0.37788 0.47497,0.51973 0.17194,0.13043 0.40291,0.1629 0.58254,0.28251 0.73181,0.48727 1.35306,1.11757 2.08734,1.6035 0.16615,0.15714 0.32275,0.32503 0.49846,0.47141 0.88977,0.74129 -0.0312,-0.0762 0.89034,0.48022 0.6749,0.40752 1.23994,1.06761 1.77803,1.62975 0.9709,1.04861 1.47093,2.62467 2.74141,3.35757 1.01134,0.75886 1.14947,2.07519 1.84743,3.07026 0.47765,1.26381 1.72093,1.71411 2.47869,2.73998 0.60729,1.18162 1.56481,2.0742 2.20959,3.23453 0.85115,1.2731 1.05817,2.84397 1.72771,4.17981 0.41197,1.15461 0.86183,2.28633 1.2554,3.44801 0.23689,1.32515 0.57671,2.62268 0.83531,3.94245 0.19278,1.18446 0.35642,2.20947 1.40297,2.91294 1.13517,1.0946 1.39743,1.37078 1.78953,2.97882 0.30187,0.67016 0.14952,1.42367 0.28628,2.11758 0.10329,0.52408 0.34792,1.09073 0.48298,1.61644 0.33352,1.32887 0.75735,2.62578 0.95324,3.98869 0.52477,1.12893 0.78141,2.34155 1.12143,3.53169 0.51599,1.37442 0.49925,2.86812 0.83401,4.28152 0.41746,1.43819 0.52914,2.92396 0.73491,4.39846 0.11915,1.24315 0.5536,2.43992 0.76058,3.68794 0.17697,1.38347 0.61523,2.71202 0.79099,4.09679 0.38727,1.06666 1.05685,1.94243 1.3659,3.04781 0.22533,1.22409 0.6461,2.37918 0.96796,3.58056 0.21267,1.39886 0.28926,2.80639 0.36182,4.2179 0.0361,1.43357 0.0872,2.86683 0.13946,4.30034 -0.0499,4.96984 6.6719,-0.19665 -11.26613,1.93494 -0.20076,0.0239 0.0822,0.39593 0.11953,0.59464 0.11298,0.60166 0.10875,0.62546 0.19353,1.23675 0.0456,1.2815 0.24519,2.5164 0.51844,3.76509 0.23774,1.23758 0.27638,2.48465 0.5749,3.71016 0.33001,1.24182 0.42733,2.52288 0.49021,3.80085 -0.0304,0.84535 0.19772,1.66382 0.36929,2.48342 0,0 -0.55702,0.0115 -0.55702,0.0115 l 0,0 c -0.17221,-0.82239 -0.39939,-1.644 -0.3694,-2.49217 -0.0628,-1.27451 -0.16033,-2.55198 -0.49006,-3.7903 -0.29756,-1.22607 -0.33647,-2.4737 -0.57493,-3.71145 -0.27372,-1.24998 -0.47149,-2.48682 -0.51852,-3.7694 -0.0189,-0.13583 -0.20866,-1.81907 -0.313,-1.82828 -11.93479,-1.05286 -11.68027,3.38295 -11.66739,-1.94954 0.0564,-1.41838 0.11879,-2.83609 0.12439,-4.25554 0.0221,-1.26133 0.0518,-2.53953 -0.20639,-3.7798 -0.1573,-1.11811 -0.54258,-2.20245 -0.70943,-3.32195 -0.46701,-1.12438 -1.01009,-2.24524 -1.06057,-3.48485 -0.19485,-1.36502 -0.45815,-2.71721 -0.62637,-4.0841 -0.14532,-1.2879 -0.46105,-2.54892 -0.43218,-3.85242 0.0143,-1.40435 -0.22707,-2.79422 -0.45626,-4.17574 -0.16747,-1.34767 -0.15882,-2.71501 -0.53128,-4.03345 -0.38749,-1.25374 -0.70271,-2.52451 -0.8914,-3.82448 -0.21973,-1.30164 -0.56367,-2.56517 -0.80252,-3.86086 -0.21245,-1.1808 -0.3248,-2.36211 -0.51243,-3.54792 -0.37997,-0.85307 -1.14133,-1.4242 -1.6714,-2.1877 -0.70339,-1.22174 -0.98327,-2.52283 -1.05126,-3.93047 -0.26998,-1.23748 -0.43087,-2.49518 -0.7007,-3.73205 -0.33472,-1.12766 -0.68231,-2.24735 -0.97519,-3.38793 -0.32784,-1.3159 -0.72437,-2.5793 -1.40941,-3.76083 -0.70458,-0.96375 -1.38826,-1.93987 -2.03827,-2.93676 -0.98243,-0.88904 -1.79132,-1.89046 -2.34979,-3.10459 -0.48833,-0.92935 -0.73253,-1.88333 -1.59207,-2.56334 -0.82811,-1.10625 -1.37876,-2.41913 -2.4124,-3.3581 -1.01775,-0.82973 -2.16761,-1.44376 -3.08161,-2.39997 -0.97267,-0.82862 -2.04383,-1.53952 -3.01931,-2.35826 -1.04095,-0.71096 -1.94017,-1.58068 -2.83367,-2.4654 -0.82217,-0.72246 -1.51389,-1.58785 -2.40252,-2.23972 -0.86344,-0.75093 -1.88659,-1.33418 -2.56133,-2.27904 -0.8629,-0.79233 -1.54397,-1.67312 -1.96249,-2.7813 -0.40289,-1.20092 -0.47239,-2.44938 -0.65683,-3.69635 -0.22549,-1.19493 -0.32147,-2.39758 -0.57611,-3.58686 -0.22047,-1.00237 -0.68165,-1.96651 -1.14748,-2.87398 -0.69162,-1.11353 -1.04452,-2.37651 -1.52091,-3.58983 -0.55391,-1.13525 -1.46595,-1.94002 -2.34799,-2.83244 -1.03004,-0.97339 -2.08504,-1.93019 -2.97522,-3.0386 -0.86768,-1.19334 -1.54882,-2.52283 -2.53885,-3.62753 -0.86292,-0.97084 -1.93375,-1.74916 -2.58447,-2.89388 -0.639,-1.27926 -1.0878,-2.57537 -1.10292,-4.0296 -0.17492,-1.61503 -0.33096,-3.21319 -0.22505,-4.84208 0.12535,-1.4563 0.10987,-2.92664 0.33334,-4.3751 0.2284,-1.39769 0.63128,-2.75899 0.75428,-4.16681 0.12924,-1.3306 0.46724,-2.62423 0.73658,-3.93156 -0.0219,-1.26295 -0.0997,-2.60089 -0.67566,-3.74636 -0.54319,-1.06666 -1.26379,-2.04139 -1.6423,-3.19286 -0.89421,-2.1532 -1.33322,-4.48718 -2.50499,-6.53058 -1.04239,-1.9148 -2.14996,-3.74843 -3.38479,-5.54702 -0.37122,-0.54069 -0.70162,-1.11484 -1.13444,-1.60759 -0.42325,-0.48184 -1.2714,-0.67521 -1.41897,-1.29933 -0.10439,-0.44152 0.57525,-0.70174 0.86287,-1.0526 0,0 11.13991,-0.65579 11.13991,-0.65579 z"
       inkscape:connector-curvature="0"
       transform="translate(0,572.36215)" />
  </g>
  <g
     inkscape:groupmode="layer"
     id="layer5"
     inkscape:label="Hill"
     style="display:inline" />
  <g
     inkscape:groupmode="layer"
     id="layer4"
     inkscape:label="Rays"
     style="display:inline">
    <path
       style="opacity:0.7;fill:url(#linearGradient3966);fill-opacity:1;stroke:none;display:inline;filter:url(#filter4105)"
       d="m 420.47445,334.69805 251.27701,25.09379 0,31.31473 -339.12439,29.2953 z"
       id="rect3892"
       inkscape:connector-curvature="0"
       sodipodi:nodetypes="ccccc"
       transform="matrix(-1.0903074,-0.33917361,-0.39310527,0.94072379,1394.888,87.505964)" />
    <path
       sodipodi:nodetypes="ccccc"
       inkscape:connector-curvature="0"
       id="path3946"
       d="M 142.47464,265.7681 427,276.87283 l 0,31.31473 -354.313862,81.43022 z"
       style="opacity:0.9;fill:url(#linearGradient3948);fill-opacity:1;stroke:none;display:inline;filter:url(#filter4117)"
       transform="matrix(-0.95245498,0.30467935,-0.30467935,-0.95245498,989.19444,355.07945)" />
    <path
       sodipodi:nodetypes="ccccc"
       inkscape:connector-curvature="0"
       id="path3950"
       d="m 574.68218,130.44438 247.22587,38.93876 0,31.31473 -330.31989,11.11168 z"
       style="opacity:0.5;fill:url(#linearGradient3952);fill-opacity:1;stroke:none;display:inline;filter:url(#filter3972)"
       transform="matrix(-0.68541923,-0.72814867,0.72814867,-0.68541923,926.69715,953.99833)" />
  </g>
</svg>
